<svg id="ATG" xmlns="http://www.w3.org/2000/svg" viewBox="0 0 1096.20359 307.8128">
  <title>ATG_primary_flat_no_parallellogram_RGB</title>
  <g id="Lager_2" data-name="Lager 2">
    <g id="Lager_35" data-name="Lager 35">
      <path d="M177.763,56.9193,0,303.42864H109.45444l35.95375-52.53514H245.62573l-7.4445,52.53514h95.45694l41.168-299.05235h-87.143C225.05316,4.37629,206.6644,16.65068,177.763,56.9193Zm78.81413,121.29727H195.12871L269.713,69.178h3.4911Z" fill="#ffde00"/>
      <path d="M897.58879,81.88312h130.04965C1040.32806,25.83325,1027.19211,0,908.0944,0,782.44349,0,749.15866,20.14258,696.62353,145.36961c-40.72224,97.195-35.90808,162.44319,106.4004,162.44319,131.34139,0,154.10643-38.52267,206.64866-166.3887l10.95213-26.70977H904.15677c-38.96861,0-46.85175,3.4919-63.92534,42.47606l-13.136,29.763H884.8913c-14.44325,38.09976-24.07943,43.36045-59.541,43.36045-45.10639,0-53.41934-10.52137-22.32639-84.94424C829.295,82.74467,844.17694,81.88312,897.58879,81.88312Z" fill="#ffde00"/>
      <path d="M699.68386,66.54761,726.39362,4.37629H493.45023c-57.35717,0-67.41625,5.69146-91.0649,60.43324l-9.637,22.32639H501.772L409.822,303.42864H516.661L608.17262,87.13592h52.54283C687.86386,87.13592,693.54666,80.99085,699.68386,66.54761Z" fill="#ffde00"/>
      <g>
        <path d="M1072.01858.8398c-15.58732,0-24.17971,10.54015-24.17971,24.18369,0,13.64421,8.59239,24.17905,24.17971,24.17905,15.582,0,24.185-10.53484,24.185-24.179C1096.20359,11.37995,1087.60059.8398,1072.01858.8398Zm0,44.87589c-14.096,0-20.36912-9.50524-20.36912-20.6922,0-11.12726,6.27313-20.69751,20.36912-20.69751s20.37443,9.57025,20.37443,20.69751C1092.393,36.21045,1086.11456,45.71569,1072.01858,45.71569Z" fill="#ffde00"/>
        <path d="M1077.9096,29.81459c-.89692-1.31487-1.555-2.27149-2.44663-2.511V27.2439c4.474-.89626,6.26783-3.40259,6.26783-7.70675,0-5.44521-2.74915-8.25008-10.5773-8.25008a56.57382,56.57382,0,0,0-7.17006.59773c-.30251.0597-.36089.23882-.36089.47831V37.17305a.31873.31873,0,0,0,.36089.3589h3.58238c.23882,0,.35027-.11941.35027-.3589V27.6028h3.83182l5.92286,9.39113c.23883.41861.30251.538.83854.538h3.87958c.41927,0,.47765-.29919.30251-.59772Zm-6.69772-5.79416h-3.29579V15.22768c.483-.0597,2.10166-.11941,3.29579-.11941,4.90387,0,5.86448.23883,5.86448,4.42888C1077.07636,23.72189,1076.05737,24.02043,1071.21188,24.02043Z" fill="#ffde00"/>
      </g>
    </g>
  </g>
</svg>
