<?xml version="1.0" encoding="UTF-8"?>
<svg id="Layer_1" xmlns="http://www.w3.org/2000/svg" xmlns:xlink="http://www.w3.org/1999/xlink" version="1.1" viewBox="0 0 116 25">
  <!-- Generator: Adobe Illustrator 29.6.1, SVG Export Plug-In . SVG Version: 2.1.1 Build 9)  -->
  <defs>
    <style>
      .st0 {
        fill: none;
      }

      .st1 {
        fill: url(#linear-gradient1);
      }

      .st2 {
        fill: url(#linear-gradient);
      }

      .st3 {
        fill: #fff;
      }

      .st4 {
        clip-path: url(#clippath);
      }
    </style>
    <clipPath id="clippath">
      <rect class="st0" x=".35" y=".25" width="115.29" height="24.5"/>
    </clipPath>
    <linearGradient id="linear-gradient" x1="-2691.33" y1="2626.54" x2="-2670.19" y2="2606.06" gradientTransform="translate(2694 2630) scale(1 -1)" gradientUnits="userSpaceOnUse">
      <stop offset="0" stop-color="#c47e0a"/>
      <stop offset=".13" stop-color="#cb8512"/>
      <stop offset=".52" stop-color="#deb84e"/>
      <stop offset=".83" stop-color="#d8ac40"/>
      <stop offset="1" stop-color="#a57a00"/>
    </linearGradient>
    <linearGradient id="linear-gradient1" x1="-2695.09" y1="2622.66" x2="-2673.94" y2="2602.18" xlink:href="#linear-gradient"/>
  </defs>
  <g class="st4">
    <g>
      <path class="st3" d="M27.44,4.53c1.3,0,2.3.28,3.01.85.71.57,1.06,1.35,1.06,2.36,0,.73-.19,1.34-.56,1.82-.37.48-.92.81-1.63,1,1.8.34,2.71,1.33,2.71,2.96,0,1.06-.38,1.9-1.15,2.51-.77.61-1.87.91-3.31.91h-4.48V4.53h4.36ZM24.61,9.92h2.9c.79,0,1.39-.18,1.83-.53.43-.35.65-.84.65-1.47s-.21-1.11-.64-1.46c-.43-.35-1.04-.52-1.83-.52h-2.9v3.99ZM24.61,15.54h2.95c.94,0,1.65-.18,2.15-.55.5-.37.75-.88.75-1.52,0-.7-.25-1.23-.76-1.6-.51-.37-1.22-.56-2.14-.56h-2.95v4.24Z"/>
      <path class="st3" d="M34.04,9.99c.36-.7.86-1.24,1.5-1.62.64-.38,1.38-.58,2.21-.58s1.55.17,2.18.51c.63.34,1.13.84,1.5,1.49.36.65.56,1.41.58,2.29,0,.13-.01.34-.04.62h-6.96v.12c.02.89.29,1.6.81,2.13.52.53,1.19.8,2.02.8.64,0,1.19-.16,1.64-.49.45-.33.75-.78.9-1.36h1.46c-.18.92-.62,1.68-1.32,2.26-.7.59-1.56.88-2.58.88-.89,0-1.67-.19-2.34-.58-.67-.38-1.19-.93-1.55-1.63-.37-.7-.55-1.51-.55-2.42s.18-1.73.54-2.43h0ZM40.51,11.5c-.07-.77-.36-1.37-.85-1.79-.5-.43-1.13-.64-1.89-.64-.68,0-1.28.22-1.79.67-.52.45-.81,1.03-.88,1.76h5.41Z"/>
      <path class="st3" d="M44.15,9.23h-1.62v-1.33h1.62v-2.54h1.44v2.54h2.27v1.33h-2.27v5.34c0,.38.08.65.22.81.15.16.4.24.77.24h1.56v1.33h-1.65c-.84,0-1.44-.19-1.8-.57-.36-.38-.54-.98-.54-1.79v-5.35h0Z"/>
      <path class="st3" d="M48.37,16.94l4.69-12.41h1.81l4.68,12.41h-1.63l-1.3-3.35h-5.36l-1.3,3.35h-1.58ZM51.71,12.19h4.45l-2.23-5.97-2.21,5.97Z"/>
      <path class="st3" d="M67.75,8.79c.66.66.99,1.7.99,3.12v5.04h-1.44v-4.95c0-.94-.21-1.64-.62-2.14-.41-.49-1.02-.74-1.8-.74-.84,0-1.51.29-1.98.89-.48.59-.72,1.39-.72,2.41v4.52h-1.44V7.9h1.25l.19,1.22c.68-.89,1.67-1.33,2.95-1.33,1.09,0,1.97.33,2.63.99h0Z"/>
      <path class="st3" d="M70.95,7.9l2.76,7.38,2.67-7.38h1.53l-4.13,10.57c-.21.55-.4.95-.56,1.22-.17.27-.37.47-.62.6-.24.13-.58.2-.98.2h-1.72v-1.33h1.28c.28,0,.49-.03.63-.09.14-.06.26-.16.34-.29.09-.14.2-.36.32-.68l.46-1.08-3.52-9.11h1.53Z"/>
      <path class="st3" d="M78.98,5.36h1.44v2.54h2.27v1.33h-2.27v5.34c0,.38.07.65.22.81.15.16.4.24.77.24h1.56v1.33h-1.65c-.84,0-1.44-.19-1.8-.57-.36-.38-.54-.98-.54-1.79V5.36h0Z"/>
      <path class="st3" d="M91.02,8.79c.67.66,1,1.7,1,3.12v5.04h-1.44v-4.95c0-.94-.21-1.64-.63-2.14-.42-.49-1.03-.74-1.81-.74-.83,0-1.49.29-1.98.89-.49.59-.73,1.39-.73,2.41v4.52h-1.44V4.53h1.44v4.86c.29-.47.68-.86,1.17-1.15.49-.29,1.08-.44,1.78-.44,1.09,0,1.97.33,2.64.99h0Z"/>
      <path class="st3" d="M95.26,4.67c.18.18.26.4.26.67s-.09.5-.26.67c-.18.18-.4.27-.67.27s-.49-.09-.67-.27c-.18-.18-.26-.4-.26-.67s.09-.5.26-.67c.18-.18.4-.27.67-.27s.49.09.67.27ZM93.87,7.9h1.44v9.04h-1.44V7.9Z"/>
      <path class="st3" d="M104.3,8.79c.66.66.99,1.7.99,3.12v5.04h-1.44v-4.95c0-.94-.21-1.64-.62-2.14-.41-.49-1.02-.74-1.8-.74-.84,0-1.51.29-1.98.89-.48.59-.72,1.39-.72,2.41v4.52h-1.44V7.9h1.25l.19,1.22c.68-.89,1.66-1.33,2.95-1.33,1.09,0,1.97.33,2.63.99h0Z"/>
      <path class="st3" d="M115.65,7.9v8.6c0,2.73-1.48,4.1-4.45,4.1-1.16,0-2.11-.27-2.84-.8-.73-.53-1.16-1.29-1.27-2.27h1.48c.12.57.41,1,.9,1.31.48.31,1.1.46,1.85.46,1.93,0,2.9-.95,2.9-2.85v-1.06c-.64,1.11-1.67,1.67-3.07,1.67-.83,0-1.57-.18-2.22-.55-.65-.37-1.16-.9-1.53-1.6-.37-.7-.55-1.52-.55-2.48s.19-1.72.55-2.41c.37-.7.88-1.24,1.54-1.63.66-.39,1.39-.59,2.21-.59.73,0,1.35.14,1.86.43.52.29.92.7,1.21,1.23l.19-1.56h1.25ZM112.8,15.33c.45-.28.8-.67,1.05-1.17.24-.5.37-1.07.37-1.71s-.12-1.23-.37-1.75c-.25-.51-.6-.91-1.05-1.2-.45-.28-.96-.43-1.54-.43-.89,0-1.61.31-2.15.93-.54.62-.82,1.42-.82,2.4s.27,1.78.82,2.4c.54.62,1.26.93,2.15.93.57,0,1.09-.14,1.54-.42Z"/>
      <path class="st2" d="M2.53,6.99L.38,12.67c-.03.08-.04.17-.02.24.05.23.29.39.54.31,2.91-1.01,12.4-4.7,12.67-9.64,0,0,.55-4.56-7.75-3.01-.08.02-.11.08-.11.14s.04.12.12.13c1.28.14,3.31.2,3.31,1.6,0,2.56-5.41,3.86-6.4,4.31-.1.05-.18.13-.22.23h0Z"/>
      <path class="st1" d="M3.99,16.91l-2.43,7.28c-.04.12-.02.25.03.34.09.16.29.26.5.19,3.02-1.01,13.72-5,15.09-11.36.25-1.17.07-2.4-.59-3.4-.67-1.02-1.97-2.04-4.42-2.06-.05,0-.09.02-.13.05l-1.6,1.36c-.06.05-.08.12-.07.18.01.07.05.12.12.16,1.1.48,4.27,2.48-6.25,7-.06.02-.1.06-.14.1-.04.04-.07.1-.09.16h0Z"/>
    </g>
  </g>
</svg>