<svg width="445" height="357" viewBox="0 0 445 357" fill="none" xmlns="http://www.w3.org/2000/svg">
<rect width="445" height="357" fill="#F4F4F4"/>
<g clip-path="url(#clip0_18_1745)">
<path d="M126.762 142.95V136.821L98.618 136.764L98.5617 181.533V182.465C99.1527 191.531 103.881 197.491 110.016 202.406C110.016 202.406 110.101 202.462 110.101 202.49L112.549 204.185L114.998 202.519C114.998 202.519 115.054 202.462 115.11 202.434C117.39 200.683 120.12 198.028 121.865 195.599C124.37 192.153 126.537 187.549 126.621 181.843L126.677 161.168H113.084L120.458 155.547C124.341 152.553 126.677 147.949 126.677 143.007H126.706L126.762 142.95ZM118.009 166.619V181.533C117.981 186.052 115.926 189.639 112.662 192.972C109.397 189.639 107.371 186.024 107.343 181.504V166.591H118.009V166.619ZM114.941 152.299L107.399 159.925V144.701H118.065C118.065 147.526 116.94 150.237 114.941 152.243V152.299Z" fill="#00F6FF"/>
<path d="M81.0562 181.504C81.0562 187.775 82.4634 193.847 85.2778 199.525C89.6401 209.071 100.504 218.138 106.667 221.047L112.521 223.985L118.375 221.047C124.595 218.11 135.458 209.1 139.821 199.581C142.635 193.904 144.098 187.86 144.098 181.561L144.155 161.112H135.43L135.374 181.533C135.458 197.463 123.385 208.761 112.493 214.156C107.117 211.472 97.3796 204.891 93.0455 195.57C90.8503 191.108 89.7245 186.363 89.7245 181.448L89.8089 127.952L135.458 128.009V144.108L140.327 140.408C142.748 138.572 144.183 135.691 144.183 132.641L144.239 120.185L81.1125 120.072L80.9999 181.476H81.0562V181.504Z" fill="#00F6FF"/>
<path d="M192.084 141.82C195.574 139.871 197.881 136.454 197.881 131.906C197.881 124.506 191.859 120.044 184.344 120.044H166.276V128.517H175.31L168.837 133.432C167.205 134.646 166.248 136.595 166.248 138.657L166.191 165.49H187.665C194.673 165.546 200.555 159.869 200.527 152.808C200.527 146.961 197.516 143.176 192.056 141.82H192.084ZM175.62 128.489H184.344C187.131 128.489 189.382 130.664 189.382 133.432C189.382 136.2 187.131 138.318 184.316 138.318H175.592V128.489H175.62ZM187.018 156.96H175.563V146.82H187.018C189.804 146.82 192.056 149.108 192.056 151.904C192.056 154.7 189.804 156.96 186.99 156.96H187.018Z" fill="black"/>
<path d="M215.049 157.044V146.933H232.555V138.459H215.077V128.602H234.975V120.1L205.79 120.044V128.545H214.824L208.351 133.46C206.719 134.674 205.762 136.623 205.762 138.685L205.705 165.518L235.144 165.574V157.073L215.049 157.016V157.044Z" fill="black"/>
<path d="M257.04 128.63H259.348L252.875 133.545C251.242 134.759 250.285 136.708 250.285 138.77L250.229 165.603H259.545L259.601 128.63H270.971V120.185L238.887 120.128V128.63H250.257H257.012H257.04Z" fill="black"/>
<path d="M184.569 209.382C178.547 209.382 173.903 203.846 173.931 194.78V194.582C173.931 185.769 177.618 180.092 185.611 180.12C196.277 180.12 199.345 190.43 199.345 190.43V177.381C195.883 173.794 191.549 171.336 184.795 171.336C172.833 171.336 164.25 180.657 164.221 194.441V195.005C164.221 208.93 172.214 218.082 184.119 218.11C191.043 218.11 195.377 215.201 199.486 210.992V198.395C199.486 198.395 195.067 209.326 184.569 209.297V209.382Z" fill="black"/>
<path d="M205.693 172.027L205.629 217.53L215.001 217.543L215.064 172.04L205.693 172.027Z" fill="black"/>
<path d="M283.889 172.155L274.883 190.034L265.933 172.127L255.323 172.099L270.071 199.666L270.042 217.63H279.442V199.581L294.246 172.184L283.889 172.155Z" fill="black"/>
<path d="M221.072 180.572H241.505L235.031 185.515C233.399 186.73 232.442 188.679 232.442 190.74L232.386 217.573H241.702L241.758 180.601H253.128V172.127L221.044 172.071V180.572H221.072Z" fill="black"/>
<path d="M294.584 207.461H284.537V217.601H294.584V207.461Z" fill="black"/>
<path d="M323.178 199.101H322.897L308.881 172.212H299.762V217.63H308.656V189.018H308.965L324.473 217.63H332.043V172.212H323.178V199.101Z" fill="black"/>
<path d="M347.776 209.608H338.094L345.018 204.355C346.763 203.027 347.776 200.993 347.776 198.79V172.268H338.094V217.686H365.028V209.693H347.776V209.636V209.608Z" fill="black"/>
</g>
<defs>
<clipPath id="clip0_18_1745">
<rect width="284" height="104" fill="white" transform="translate(80.9999 120)"/>
</clipPath>
</defs>
</svg>
