<svg width="445" height="357" viewBox="0 0 445 357" fill="none" xmlns="http://www.w3.org/2000/svg">
<rect width="445" height="357" fill="#F4F4F4"/>
<path d="M195.029 179.777C195.029 185.262 191.007 188.37 182.902 188.37H168.093V156.193H181.988C189.179 156.193 193.323 159.24 193.323 164.481C193.323 168.137 191.372 170.575 188.386 171.794C192.53 172.708 195.029 175.389 195.029 179.777ZM171.506 158.996V170.697H181.744C186.924 170.697 189.91 168.747 189.91 164.847C189.91 161.007 186.924 158.996 181.744 158.996H171.506ZM191.616 179.472C191.616 175.268 188.508 173.439 182.902 173.439H171.567V185.506H182.902C188.508 185.566 191.616 183.738 191.616 179.472Z" fill="black"/>
<path d="M222.941 185.445V188.37H200.149V156.193H222.209V159.118H203.562V170.575H220.198V173.5H203.562V185.445H222.941Z" fill="black"/>
<path d="M237.2 159.118H225.865V156.193H251.887V159.118H240.552V188.37H237.139V159.118H237.2Z" fill="black"/>
<path d="M284.366 188.37L284.305 171.307L276.017 185.201H271.995L263.768 171.794V188.37H255.358V156.193H262.854L274.189 174.78L285.219 156.193H292.715L292.776 188.37H284.366Z" fill="black"/>
<path d="M320.747 171.612H328.791V184.958C325.074 187.639 319.955 189.041 315.263 189.041C305.025 189.041 297.529 182.093 297.529 172.282C297.529 162.47 305.025 155.523 315.445 155.523C321.479 155.523 326.354 157.595 329.523 161.434L323.733 166.675C321.54 164.238 318.98 163.08 315.933 163.08C310.387 163.08 306.731 166.736 306.731 172.282C306.731 177.706 310.387 181.484 315.811 181.484C317.517 181.484 319.102 181.179 320.747 180.448V171.612Z" fill="black"/>
<path d="M363.65 188.37L363.589 171.307L355.301 185.201H351.218L342.991 171.794V188.37H334.581V156.193H342.077L353.412 174.78L364.442 156.193H371.938L371.999 188.37H363.65Z" fill="black"/>
<path d="M78.1444 165.09C78.1444 172.159 79.3023 178.741 82.9587 184.226V179.411C82.9587 173.5 87.773 169.356 92.5264 166.675C87.4683 168.503 82.0446 167.345 78.1444 165.09Z" fill="#BFA871"/>
<path d="M82.2274 160.093H80.6429C80.3992 159.179 82.8978 157.595 83.629 158.753L82.2274 160.093ZM77.2303 159.423C78.571 160.337 80.3992 160.764 82.4712 160.581C84.0556 161.739 86.3714 158.509 88.6262 158.509C92.0389 158.082 96.3657 157.595 98.6814 160.581L97.5235 158.326C94.3546 158.082 91.6123 156.985 89.1137 155.584C84.0556 153.268 81.5571 160.52 77.2303 159.423Z" fill="#BFA871"/>
<path d="M74.2428 147.783C75.8272 148.21 77.4117 148.697 79.0571 148.697C82.4697 147.357 83.3839 144.614 82.0432 140.958C79.9712 137.972 77.2288 136.387 74.3037 135.717L74.2428 147.783Z" fill="#BFA871"/>
<path d="M97.0346 212.502C97.4612 212.076 98.1925 211.345 98.619 210.674C107.76 198.791 89.9655 191.965 90.392 180.57C90.8186 175.999 93.3781 172.586 96.3033 168.93L96.0595 168.686C93.3172 171.428 92.1593 173.257 90.3311 175.999C84.8464 187.151 92.5859 202.691 84.6027 212.259L97.0346 212.502Z" fill="#BFA871"/>
<path d="M134.026 172.404C134.026 188.797 126.286 203.179 114.22 212.503H154.319V132.244H114.159C126.225 141.385 134.026 155.95 134.026 172.404Z" fill="#BFA871"/>
<path d="M74.2437 212.502H81.0691L82.6535 210.918C91.9774 198.181 80.8253 189.284 73.9999 179.229L74.2437 212.502Z" fill="#BFA871"/>
<path d="M93.1953 132.244H74.2428V133.584C76.071 133.828 78.143 134.498 79.7274 135.169C83.6276 137.424 86.5528 141.08 86.1262 145.651L94.536 144.737C95.6939 141.994 96.1205 137.667 94.9626 135.413C94.536 134.072 93.8657 132.975 93.1953 132.244Z" fill="#BFA871"/>
<path d="M97.036 132.243C98.8642 134.742 98.8642 137.972 99.108 140.47C102.521 137.972 106.665 136.387 110.991 137.484C108.005 135.23 105.994 133.401 102.338 132L97.036 132.243Z" fill="#BFA871"/>
<path d="M113.916 173.074L113.245 174.902L112.331 172.647C110.259 173.074 108.248 173.805 107.09 176.06C106.847 176.73 107.334 177.888 106.664 178.315C105.323 178.071 105.993 175.816 105.993 174.415C107.578 172.83 111.905 169.417 113.55 170.758C113.916 171.002 114.159 172.16 113.916 173.074ZM104.835 189.467C103.678 188.553 104.165 186.968 104.165 185.811L104.835 185.14C105.993 188.797 108.918 184.47 111.234 184.896C112.392 184.47 111.905 182.824 113.062 183.068C114.83 188.797 108.004 187.639 104.835 189.467ZM121.229 190.198C122.143 182.642 121.472 174.719 115.988 169.478C114.83 169.235 113.245 169.905 112.331 168.808C109.833 171.063 106.603 171.977 104.348 174.537C101.849 175.207 99.3508 173.622 96.7913 173.196C96.7913 172.769 96.7913 172.525 96.7913 172.282C93.3786 174.537 94.2927 179.107 93.6224 182.52C94.5365 186.42 98.8633 188.004 101.606 190.259C105.932 190.93 109.833 189.101 113.489 187.761C114.159 188.431 115.074 188.919 114.647 189.833C111.661 193.916 107.334 195.744 102.337 195.317C105.323 201.046 103.251 207.627 100.082 212.624H103.068C112.087 208.42 120.558 202.021 121.229 190.198Z" fill="#BFA871"/>
<path d="M127.871 159.423C125.372 150.77 117.633 139.13 107.334 139.8C103.434 140.044 99.5946 142.969 98.1929 145.285C100.935 146.869 103.921 149.185 106.42 151.44C106.176 152.354 106.846 153.512 105.75 153.939C104.409 152.781 103.251 150.038 101.423 150.952C102.763 153.939 106.42 154.121 109.162 154.853C110.32 156.01 109.833 157.839 112.148 156.925C113.306 157.168 113.733 158.509 113.977 159.423C112.148 162.836 107.151 160.581 104.409 161.251C106.664 162.166 109.223 162.409 111.234 163.75C113.306 165.091 113.977 161.922 114.891 160.764C118.547 161.678 116.475 165.578 118.06 167.589C125.799 175.572 124.215 189.711 120.314 198.852C131.04 189.467 130.126 168.077 127.871 159.423Z" fill="#BFA871"/>
</svg>
