<svg width="169" height="48" viewBox="0 0 169 48" fill="none" xmlns="http://www.w3.org/2000/svg">
<path d="M47.2144 0.724609H0.801758V47.2753H47.2144V0.724609Z" fill="#C0A971"/>
<path d="M46.4898 1.44931V46.5507H1.52647V1.44931H46.4898ZM47.9736 0H0.0771484V48H47.9736V0Z" fill="#C0A971"/>
<path d="M69.4029 28.1581C69.4029 31.2293 67.1254 32.9892 62.6049 32.9892H54.2886V14.9072H62.0873C66.1247 14.9072 68.4367 16.5981 68.4367 19.5657C68.4367 21.6362 67.3324 23.0165 65.6761 23.6722C67.9881 24.1553 69.4029 25.6736 69.4029 28.1581ZM56.1865 16.4601V23.0165H61.9492C64.8479 23.0165 66.5388 21.9123 66.5388 19.7383C66.5388 17.5643 64.8479 16.4601 61.9492 16.4601H56.1865ZM67.4705 27.9856C67.4705 25.6391 65.7451 24.6038 62.5704 24.6038H56.1865V31.4018H62.5704C65.7451 31.4018 67.4705 30.3666 67.4705 27.9856Z" fill="white"/>
<path d="M85.1036 31.3328V32.9892H72.3013V14.9072H84.6895V16.5636H74.1992V22.982H83.5507V24.6038H74.1992V31.3328H85.1036Z" fill="white"/>
<path d="M93.1096 16.5289H86.7603V14.8726H101.391V16.5289H95.0421V32.9545H93.1441V16.5289H93.1096Z" fill="white"/>
<path d="M119.611 32.989L119.577 23.3959L114.918 31.1946H112.641L108.017 23.6375V32.9545H103.289V14.8726H107.499L113.848 25.3283L120.06 14.8726H124.27L124.304 32.9545H119.611V32.989Z" fill="white"/>
<path d="M140.074 23.5341H144.595V31.0223C142.49 32.5061 139.626 33.3343 137.003 33.3343C131.24 33.3343 127.03 29.4349 127.03 23.9137C127.03 18.3925 131.24 14.4932 137.106 14.4932C140.488 14.4932 143.249 15.6664 145.009 17.8059L141.765 20.739C140.523 19.3587 139.108 18.7376 137.383 18.7376C134.277 18.7376 132.206 20.7735 132.206 23.9137C132.206 26.9504 134.277 29.0899 137.314 29.0899C138.28 29.0899 139.211 28.8828 140.074 28.5032V23.5341Z" fill="white"/>
<path d="M164.195 32.989L164.161 23.3959L159.502 31.1946H157.225L152.601 23.6375V32.9545H147.873V14.8726H152.083L158.432 25.3283L164.644 14.8726H168.854L168.923 32.9545L164.195 32.989Z" fill="white"/>
<path d="M3.7002 19.9106C3.7002 23.879 4.35584 27.6058 6.39179 30.677V27.9854C6.39179 24.6727 9.08337 22.3607 11.775 20.8078C8.97985 21.8086 5.90868 21.1874 3.7002 19.9106Z" fill="#232323"/>
<path d="M6.01224 17.0811H5.11504C4.97701 16.5635 6.39182 15.6663 6.7714 16.322L6.01224 17.0811ZM3.18262 16.7015C4.04531 17.2537 5.11504 17.4607 6.11576 17.3227C7.01295 17.9438 8.28973 16.1839 9.56651 16.1839C11.4989 15.9424 13.9145 15.6663 15.1912 17.3227L14.5701 16.0459C12.7757 15.9079 11.2229 15.2867 9.84257 14.4931C7.04746 13.2508 5.63265 17.3227 3.18262 16.7015Z" fill="#232323"/>
<path d="M1.52637 10.1453C2.42356 10.3869 3.32076 10.6629 4.21795 10.6629C6.15038 9.90376 6.66799 8.35092 5.87432 6.31498C4.83909 4.79665 3.28625 3.76142 1.52637 3.38184V10.1453Z" fill="#232323"/>
<path d="M14.3631 46.5505C14.7082 46.2399 14.9842 45.8949 15.2603 45.5153C20.4019 38.8553 10.3947 34.9905 10.6363 28.6066C10.8778 26.053 12.2927 24.1206 13.949 22.0501L13.811 21.9121C12.2581 23.4649 11.637 24.4657 10.6018 26.0185C7.53061 32.2989 11.8786 40.9948 7.39258 46.378L14.3631 46.5505Z" fill="#232323"/>
<path d="M35.1025 23.9827C35.1025 33.1962 30.7545 41.2709 23.9565 46.5161H46.49V1.44922H23.9565C30.9961 6.79789 35.137 15.1487 35.1025 23.9827Z" fill="#232323"/>
<path d="M1.5267 46.5508H5.35704L6.25424 45.6536C11.4994 38.476 5.21901 33.4724 1.38867 27.8477L1.5267 46.5508Z" fill="#232323"/>
<path d="M12.1547 1.44922H1.52637V2.20839C2.5961 2.38093 3.63133 2.65699 4.59754 3.10559C6.77152 4.38237 8.42788 6.45282 8.18632 9.00638L12.9139 8.48877C13.5695 6.93593 13.8111 4.52039 13.1554 3.24362C12.9829 2.55346 12.6378 1.96683 12.1547 1.44922Z" fill="#232323"/>
<path d="M14.3633 1.44922C15.3985 2.86403 15.3985 4.65843 15.502 6.07324C17.4345 4.65843 19.7465 3.76123 22.162 4.41687C20.5056 3.14009 19.3324 2.10487 17.2964 1.3457L14.3633 1.44922Z" fill="#232323"/>
<path d="M23.8527 24.3968L23.4731 25.432L22.9555 24.1553C21.8167 24.3968 20.6435 24.7764 20.0223 26.0877C19.8843 26.4673 20.1604 27.1229 19.7808 27.3645C19.0216 27.2264 19.4012 25.9497 19.4012 25.1905C20.2984 24.2933 22.7139 22.3609 23.6456 23.1545C23.8527 23.2236 23.9562 23.8792 23.8527 24.3968ZM18.711 33.6103C18.0899 33.0927 18.3315 32.1955 18.3315 31.5744L18.711 31.1948C19.3322 33.2307 21.023 30.8152 22.2998 31.0568C22.921 30.8152 22.6794 29.918 23.3351 30.0215C24.3358 33.2307 20.5054 32.5751 18.711 33.6103ZM27.9246 33.9899C28.4422 29.7455 28.0626 25.2595 24.9914 22.3264C24.3703 22.1883 23.4386 22.5679 22.9555 21.9468C21.5407 23.2236 19.7463 23.7412 18.4695 25.156C17.0547 25.5356 15.6399 24.6384 14.2251 24.3968V23.8792C12.2926 25.156 12.8102 27.7095 12.4307 29.642C12.9483 31.8159 15.3638 32.7131 16.9166 33.9899C19.3667 34.3695 21.5407 33.3343 23.5766 32.5751C23.9562 32.9547 24.4738 33.2307 24.2322 33.7138C22.5759 36.0258 20.1258 37.0611 17.3307 36.785C18.9871 39.9942 17.8483 43.6865 16.054 46.5161H17.7103C22.8174 44.2386 27.545 40.6499 27.9246 33.9899Z" fill="#232323"/>
<path d="M31.6517 16.7015C30.2369 11.8359 25.8889 5.31399 20.1262 5.69357C17.9522 5.83161 15.7782 7.48796 15.019 8.76474C16.6754 9.76546 18.2282 10.9387 19.6431 12.2155C19.505 12.7331 19.8846 13.3542 19.2635 13.6303C18.5043 12.9747 17.8487 11.4563 16.8134 11.9739C17.5726 13.6303 19.6431 13.7683 21.1614 14.1479C21.7825 14.7691 21.541 15.8043 22.8177 15.2867C23.4389 15.4247 23.7149 16.1839 23.853 16.7015C22.8178 18.6339 20.0226 17.3226 18.4698 17.7367C19.7466 18.2543 21.1614 18.3578 22.3001 19.1515C23.4389 19.9452 23.853 18.1163 24.3361 17.4951C26.372 18.0128 25.2333 20.1867 26.1305 21.3255C30.4784 25.8115 29.5812 33.7482 27.4073 38.8898C33.4461 33.6102 32.9285 21.567 31.6517 16.7015Z" fill="#232323"/>
</svg>
