<svg width="139" height="32" viewBox="0 0 139 32" fill="none" xmlns="http://www.w3.org/2000/svg">
<g clip-path="url(#clip0_3245_213)">
<path d="M127.332 7.59601C125.622 9.23601 122.852 9.23601 121.141 7.59401C119.433 5.95401 119.433 3.29101 121.141 1.64901C122.852 0.00701094 125.623 0.00701094 127.332 1.64901C129.041 3.29101 129.042 5.95401 127.332 7.59601Z" fill="#D60000"/>
<path d="M139.044 3.56799V3.56299L118.583 14.723L122.724 10.817L109.424 3.56299L117.83 17.791L109.424 32.02L124.233 23.943L139.043 32.019L130.639 17.792L139.043 3.56699L139.044 3.56799Z" fill="#D60000"/>
<path d="M8.66202 21.681C11.193 21.681 13.002 19.97 13.002 17.719C13.002 15.557 11.162 13.73 8.81602 13.73C6.50802 13.73 4.75702 15.468 4.75702 17.779C4.75702 20.001 6.53802 21.681 8.66202 21.681ZM4.78802 24.083L0.00701904 25.883V4.548H4.97602V11.57C6.00802 10.277 7.53802 9.53 9.66202 9.53C11.786 9.53 13.692 10.277 15.255 11.751C17.003 13.37 17.941 15.439 17.941 17.749C17.941 20.273 16.941 22.432 15.003 24.083C13.535 25.342 11.787 25.971 9.75502 25.971C7.75502 25.971 6.25302 25.462 4.78802 24.083Z" fill="white"/>
<path d="M31.942 16.129C31.347 14.478 29.942 13.579 27.974 13.579C25.912 13.579 24.442 14.599 24.099 16.129H31.942ZM36.128 21.2C34.501 24.562 31.72 26.272 27.973 26.272C25.411 26.272 23.349 25.43 21.631 23.69C20.009 22.041 19.163 20 19.163 17.719C19.163 15.468 20.069 13.398 21.725 11.809C23.411 10.187 25.63 9.28799 27.911 9.28799C33.251 9.28799 36.906 12.977 36.906 18.978V19.489H24.255C24.691 21.2 25.973 22.101 28.127 22.101C29.127 22.101 29.941 21.828 30.689 21.2H36.128Z" fill="white"/>
<path d="M52.382 21.081V21.232C52.382 22.13 53.133 22.763 54.196 22.763C55.258 22.763 55.882 22.252 55.882 21.348C55.882 20.032 54.536 20.09 52.443 19.46C49.541 18.589 48.133 17.088 48.133 14.658C48.133 11.509 50.538 9.28799 54.536 9.28799C58.006 9.28799 60.222 11.176 60.413 14.239H55.944C55.755 13.187 55.352 12.736 54.474 12.736C53.506 12.736 52.944 13.278 52.944 14.058C52.944 15.167 53.974 15.437 55.693 15.888C59.13 16.786 60.849 18.049 60.849 20.722C60.849 23.96 58.192 26.302 54.132 26.302C50.381 26.302 48.071 24.35 47.727 21.081H52.382Z" fill="white"/>
<path d="M71.125 21.681C73.249 21.681 75.027 20.002 75.027 17.78C75.027 15.468 73.249 13.731 70.934 13.731C68.594 13.731 66.78 15.557 66.78 17.72C66.78 19.971 68.594 21.681 71.125 21.681ZM74.997 24.083C73.53 25.462 72.03 25.971 70.033 25.971C67.999 25.971 66.252 25.343 64.782 24.083C62.847 22.431 61.847 20.272 61.847 17.749C61.847 15.439 62.782 13.369 64.533 11.751C66.095 10.277 68 9.53 70.126 9.53C72.158 9.53 73.72 10.188 74.844 11.57V9.767H79.779V25.883L74.997 24.083Z" fill="white"/>
<path d="M82.265 9.167C82.265 5.716 84.203 4.155 88.328 4.155C88.575 4.155 90.375 4.251 90.653 4.251V7.495C90.623 7.495 89.014 7.426 88.984 7.426C87.484 7.426 87.138 7.907 87.138 9.377V9.765H89.581V13.367H87.138V25.88H82.266V9.165L82.265 9.167Z" fill="white"/>
<path d="M38.427 4.557H43.272V9.746H45.716V13.346H43.272V21.06C43.272 22.53 43.618 23.012 45.118 23.012C45.15 23.012 46.757 22.945 46.789 22.945V26.186C46.51 26.186 44.712 26.283 44.464 26.283C40.34 26.283 38.402 24.721 38.402 21.271C38.402 21.091 38.428 4.556 38.428 4.556L38.427 4.557Z" fill="white"/>
<path d="M103.011 16.129C102.416 14.478 101.014 13.579 99.046 13.579C96.984 13.579 95.514 14.599 95.168 16.129H103.011ZM107.197 21.2C105.573 24.562 102.792 26.272 99.045 26.272C96.483 26.272 94.421 25.43 92.703 23.69C91.077 22.041 90.234 20 90.234 17.719C90.234 15.468 91.139 13.398 92.796 11.809C94.482 10.187 96.698 9.28799 98.982 9.28799C104.322 9.28799 107.977 12.977 107.977 18.978V19.489H95.325C95.763 21.2 97.044 22.101 99.199 22.101C100.199 22.101 101.013 21.828 101.761 21.2H107.197Z" fill="white"/>
</g>
<defs>
<clipPath id="clip0_3245_213">
<rect width="139" height="32" fill="white"/>
</clipPath>
</defs>
</svg>
