<svg width="120" height="32" viewBox="0 0 120 32" fill="none" xmlns="http://www.w3.org/2000/svg">
<path d="M65.5448 15.3226C65.4687 14.3646 65.1181 13.52 64.5019 12.8118C63.8981 12.1177 63.0447 11.5794 61.9628 11.2146C60.911 10.8587 59.266 10.6781 57.7875 10.6781C56.3993 10.6781 55.1811 10.864 54.1648 11.2306C53.1201 11.6077 52.3038 12.1566 51.7336 12.8649C51.1511 13.5909 50.8554 14.4603 50.8554 15.4501V15.4642C50.8554 16.2787 51.0555 16.8595 51.4503 17.4615C51.8416 18.0565 52.4224 18.5434 53.1803 18.9099C53.908 19.2623 54.827 19.512 55.9124 19.6519L59.6946 20.0573C60.8597 20.2025 61.3891 20.431 61.6281 20.5956C61.9167 20.7939 62.0513 21.2083 62.0513 21.6067V21.6208C62.0513 21.9608 61.9415 22.2335 61.7078 22.4743C61.4511 22.7381 61.0509 22.9453 60.5144 23.0923C59.9407 23.2481 59.2236 23.3278 58.3843 23.3278C56.9766 23.3278 56.2471 23.1525 55.5034 22.8054C54.8199 22.4867 54.4233 22.0458 54.2887 21.4544L54.2126 21.1339H50.3897L50.4464 21.6067C50.5703 22.6071 50.9687 23.2286 51.6345 23.9386C52.2861 24.6345 53.1909 25.1675 54.3259 25.5269C55.2944 25.8333 56.4507 26.0068 57.7681 26.0457C57.954 26.0511 58.1417 26.0546 58.3329 26.0546C58.5135 26.0546 59.0518 26.0511 59.2253 26.0457C60.4683 26.005 61.5644 25.8209 62.4869 25.4968C63.5688 25.1161 64.4205 24.5566 65.0154 23.8306C65.6263 23.087 65.9362 22.4477 65.9362 21.4473V21.4332C65.9362 20.1777 65.5183 19.342 64.6967 18.6461C63.9123 17.9839 62.6374 17.5324 60.9057 17.3057L56.8544 16.8861C56.2471 16.8188 55.753 16.7108 55.3883 16.5674C55.0607 16.4381 54.827 16.2823 54.6889 16.1034C54.5596 15.9335 54.4994 15.5882 54.4994 15.3474V15.3332C54.4994 15.0003 54.6021 14.5824 54.8217 14.3487C55.0607 14.0937 55.4361 13.8919 55.9337 13.7467C56.4666 13.5909 57.0208 13.5129 57.8141 13.5129C59.0536 13.5129 60.0452 13.6953 60.7587 14.0565C61.4192 14.3894 61.7662 14.9596 61.8495 15.5209L61.9008 15.8467H65.582L65.5431 15.3261L65.5448 15.3226Z" fill="white"/>
<path d="M82.5486 15.3226C82.4724 14.3646 82.1218 13.52 81.5057 12.8118C80.9019 12.1177 80.0484 11.5794 78.9665 11.2146C77.9147 10.8587 76.2698 10.6781 74.7913 10.6781C73.4031 10.6781 72.1848 10.864 71.1685 11.2306C70.1238 11.6077 69.3075 12.1566 68.7374 12.8649C68.1548 13.5909 67.8591 14.4603 67.8591 15.4501V15.4642C67.8591 16.2787 68.0592 16.8595 68.4541 17.4615C68.8454 18.0565 69.4261 18.5434 70.184 18.9099C70.9117 19.2623 71.8307 19.512 72.9161 19.6519L76.6983 20.0573C77.8634 20.2025 78.3928 20.431 78.6319 20.5956C78.9205 20.7939 79.055 21.2083 79.055 21.6067V21.6208C79.055 21.9608 78.9453 22.2335 78.7115 22.4743C78.4548 22.7381 78.0546 22.9453 77.5181 23.0923C76.9444 23.2481 76.2273 23.3278 75.388 23.3278C73.9803 23.3278 73.2508 23.1525 72.5071 22.8054C71.8236 22.4867 71.427 22.0458 71.2924 21.4544L71.2163 21.1339H67.3934L67.4501 21.6067C67.574 22.6071 67.9724 23.2286 68.6382 23.9386C69.2898 24.6345 70.1946 25.1675 71.3296 25.5269C72.2982 25.8333 73.4544 26.0068 74.7718 26.0457C74.9577 26.0511 75.1454 26.0546 75.3366 26.0546C75.5173 26.0546 76.0555 26.0511 76.2291 26.0457C77.4721 26.005 78.5681 25.8209 79.4906 25.4968C80.5725 25.1161 81.4242 24.5566 82.0191 23.8306C82.63 23.087 82.9399 22.4477 82.9399 21.4473V21.4332C82.9399 20.1777 82.522 19.342 81.7004 18.6461C80.916 17.9839 79.6411 17.5324 77.9094 17.3057L73.8581 16.8861C73.2508 16.8188 72.7568 16.7108 72.392 16.5674C72.0644 16.4381 71.8307 16.2823 71.6926 16.1034C71.5634 15.9335 71.5032 15.5882 71.5032 15.3474V15.3332C71.5032 15.0003 71.6058 14.5824 71.8254 14.3487C72.0644 14.0937 72.4398 13.8919 72.9374 13.7467C73.4704 13.5909 74.0246 13.5129 74.8178 13.5129C76.0573 13.5129 77.0489 13.6953 77.7625 14.0565C78.4229 14.3894 78.77 14.9596 78.8532 15.5209L78.9045 15.8467H82.5858L82.5468 15.3261L82.5486 15.3226Z" fill="white"/>
<path d="M17.1755 17.9927H17.1666C17.0816 15.9494 16.3822 14.1982 15.1374 12.9162C13.6873 11.4218 11.4066 10.6321 8.77012 10.6321C6.48242 10.6321 4.52937 11.5865 3.55904 12.6595V6H0V25.6615H3.55904V24.2556C4.84455 25.4225 6.76041 26.0139 8.89053 26.0139C11.1818 26.0139 13.6784 25.4579 15.1392 23.9404C16.3805 22.6514 17.0799 20.9108 17.1666 18.8993H17.1737V18.6532L17.1755 18.4549V17.9927ZM8.52931 23.2321C7.48462 23.2321 6.69844 23.0391 5.88216 22.6425C4.32574 21.8864 3.56081 20.2326 3.56081 18.4266C3.56081 16.2486 4.80205 14.161 6.8454 13.69C7.40317 13.5625 7.8901 13.497 8.53108 13.497C10.0291 13.497 11.2916 13.9468 12.1804 14.8002C13.0658 15.6484 13.5368 17.0171 13.5403 18.4478C13.5315 21.3092 11.5182 23.2321 8.53108 23.2321H8.52931Z" fill="white"/>
<path d="M101.709 18.4407V18.0051H101.697C101.594 16.0663 100.854 14.2938 99.6001 12.9959C98.0897 11.4324 95.6692 10.6073 93.054 10.6073C90.4387 10.6073 88.1457 11.4306 86.6406 12.9871C85.3799 14.2903 84.6362 16.0645 84.5335 18.0051H84.5229L84.5193 18.2513V18.9117H84.5317C84.638 20.8223 85.3817 22.3291 86.6406 23.6235C87.9367 24.955 89.8508 25.7536 91.9916 25.9643C92.0146 25.9661 92.0376 25.9696 92.0624 25.9714C92.1916 25.9838 92.3227 25.9926 92.4537 25.9997C92.4874 26.0015 92.5192 26.005 92.5529 26.0068C92.7175 26.0156 92.884 26.021 93.0522 26.021C93.0717 26.021 93.0894 26.021 93.1071 26.021C93.2541 26.0192 93.5214 26.0156 93.6666 26.0086C93.725 26.005 93.7817 25.9997 93.8384 25.9962C93.9446 25.9891 94.0508 25.982 94.1553 25.9731C94.1996 25.9696 94.2403 25.9643 94.2846 25.959C94.405 25.9466 94.5236 25.9342 94.6423 25.9165C94.6546 25.9165 94.6653 25.9129 94.6777 25.9112C96.6236 25.6367 98.3784 24.8612 99.5824 23.6235C100.894 22.276 101.647 20.6753 101.702 18.6727L101.705 18.4868V18.4443L101.709 18.4407ZM98.1623 19.0144V19.0233C97.9074 21.5022 95.8569 23.1967 93.0557 23.2392C90.2528 23.1967 88.3192 21.5004 88.0642 19.0197C87.9934 18.4513 88.0182 17.5182 88.2377 16.7975V16.7922L88.2413 16.7869L88.2537 16.7462C88.8026 14.7329 90.4759 13.435 93.054 13.435C95.6321 13.435 97.4541 14.7524 97.9888 16.7958V16.8011L97.9924 16.8064C98.2102 17.5217 98.2349 18.4531 98.1641 19.0162L98.1623 19.0144Z" fill="white"/>
<path d="M118.369 12.3992C117.287 11.289 115.405 10.7277 113.491 10.7277C112.2 10.7277 110.883 10.8375 109.117 11.7529C108.531 12.0575 107.91 12.5692 107.488 13.0189V11.0021H103.878V25.6792H107.488V18.0937C107.488 17.265 107.664 16.4292 108.011 15.8237C108.356 15.2234 109.063 14.6108 109.691 14.2867C110.853 13.6847 111.951 13.5413 112.809 13.5413C114.006 13.5413 114.791 13.8565 115.379 14.4762C115.97 15.1012 116.39 16.0485 116.39 17.2933V25.681H120V17.0065C120 15.0605 119.451 13.5094 118.369 12.401V12.3992Z" fill="white"/>
<path d="M47.7425 22.8532C46.6978 23.1259 45.809 23.1418 45.5947 23.1418H45.4672C43.6488 23.1418 43.6576 22.4176 43.6576 21.7873V13.9857H48.4136V11.0181H43.6576V6H40.0986V11.0163H36.281V13.9839H40.0986V22.0848C40.0986 23.4287 40.5696 24.2326 41.4992 24.955C42.4093 25.6633 43.7214 26.021 45.3999 26.021C45.4035 26.021 45.407 26.021 45.4141 26.021C45.6301 26.0174 48.125 25.9714 49.3822 25.3693L49.6761 25.2206L48.0666 22.7682L47.7425 22.8532Z" fill="white"/>
<path d="M22.8788 18.9277H35.8525V18.6691C35.8525 18.5771 35.849 18.4903 35.8472 18.4425C35.7923 16.6276 35.4417 14.6072 33.7383 12.9127C32.2616 11.4466 29.7065 10.6055 27.3568 10.6055C25.8482 10.6055 24.499 10.8782 23.3463 11.4165C22.9018 11.6236 22.4786 11.8786 22.0873 12.1708C21.935 12.2841 21.8005 12.3939 21.6765 12.5037C21.3578 12.7834 21.0621 13.0986 20.7947 13.4421C20.7292 13.5253 20.6655 13.6121 20.6053 13.6971C20.3521 14.0565 20.1307 14.439 19.9484 14.8339C19.511 15.7794 19.2525 16.8701 19.1958 18.0016H19.187L19.1834 18.2477V18.9082H19.1958C19.1958 18.9294 19.1994 18.9489 19.1994 18.9701L19.2064 19.0764C19.21 19.126 19.2118 19.1773 19.2171 19.2269C19.2206 19.2765 19.2259 19.3243 19.233 19.3739L19.2454 19.4836C19.2489 19.5208 19.2525 19.558 19.2578 19.5952C19.2649 19.6536 19.2737 19.7121 19.2844 19.7705L19.2985 19.8679C19.3021 19.898 19.3074 19.9299 19.3127 19.96C19.3251 20.0343 19.3392 20.1069 19.3552 20.1777L19.3693 20.2486C19.3729 20.2716 19.3782 20.2964 19.3835 20.3212C19.403 20.4132 19.426 20.5053 19.4473 20.5868L19.4543 20.6186C19.4596 20.6381 19.4632 20.6594 19.4685 20.6788C19.4933 20.7745 19.5216 20.8701 19.5482 20.9586L19.5553 20.9834C19.5588 20.9976 19.5641 21.0135 19.5694 21.0294C19.6031 21.1374 19.6403 21.2419 19.6668 21.3198L19.6845 21.3694C19.7199 21.465 19.7571 21.5642 19.8032 21.6757L19.8173 21.7094C19.8598 21.8121 19.9059 21.913 19.9607 22.0299L19.9661 22.0423C20.0156 22.1485 20.0688 22.253 20.1272 22.3592L20.1307 22.3663C21.48 24.8806 24.0864 26.0174 27.4702 26.0174C30.8539 26.0174 33.8162 24.9851 35.4842 22.5681L35.656 22.3185L33.0371 20.6682L32.8654 20.8524C31.5232 22.2919 30.4219 23.2375 27.4702 23.2375C27.456 23.2375 27.4401 23.2375 27.4259 23.2375H27.3675C26.1528 23.2198 25.4374 22.8851 24.6123 22.2689C24.5521 22.2229 24.499 22.1821 24.4441 22.1361C24.3874 22.0883 24.3361 22.044 24.2847 21.9962C24.2334 21.9484 24.1873 21.9041 24.1431 21.8599L24.1342 21.851C24.0829 21.7979 24.0404 21.7536 23.9979 21.7076L23.9872 21.697C23.9377 21.6403 23.8987 21.596 23.8598 21.5482L23.8509 21.5376C23.812 21.4898 23.7748 21.442 23.7394 21.3942L23.7216 21.3694C23.6862 21.3216 23.6544 21.2756 23.6207 21.226L23.6012 21.1941C23.5694 21.1463 23.5393 21.1003 23.5109 21.0525L23.4897 21.0135C23.4614 20.9657 23.4348 20.9197 23.41 20.8718L23.3852 20.824C23.3604 20.778 23.3374 20.732 23.3144 20.6859L23.2843 20.6222L23.279 20.6116C23.2613 20.5726 23.2436 20.5354 23.2259 20.4965L23.1922 20.4132C23.1763 20.3743 23.1603 20.3371 23.1462 20.2999C23.1409 20.2858 23.1373 20.2734 23.132 20.261L23.1108 20.199L23.109 20.1937C23.0984 20.1618 23.086 20.1299 23.0754 20.0981C23.07 20.0839 23.0665 20.0697 23.063 20.0573V20.0503L23.0382 19.9777L23.0346 19.967C23.0275 19.9422 23.0187 19.9175 23.0116 19.8927C23.0063 19.8732 23.001 19.8537 22.9974 19.8342L22.978 19.7581C22.9709 19.7315 22.9638 19.7067 22.9585 19.6802C22.9532 19.6589 22.9496 19.6359 22.9443 19.6129L22.9266 19.5297C22.9213 19.5049 22.916 19.4836 22.9125 19.4642C22.9071 19.4341 22.9018 19.4022 22.8965 19.3721C22.8965 19.3721 22.8753 19.2163 22.8753 19.0427V18.9241L22.8788 18.9277ZM23.3268 15.806C23.4313 15.5829 23.5552 15.3704 23.6951 15.1756C23.7323 15.1243 23.773 15.0694 23.8173 15.0145C23.8899 14.9242 23.966 14.8356 24.0475 14.7506C24.1271 14.6674 24.2121 14.586 24.3007 14.5116C24.3573 14.4638 24.4122 14.4178 24.4671 14.377C24.4919 14.3593 24.5167 14.3399 24.5415 14.3221C24.7416 14.1769 24.9611 14.0477 25.1948 13.9379C25.2604 13.9078 25.3276 13.8777 25.3949 13.8494C26.0536 13.5802 26.475 13.4421 27.3586 13.4421C29.0567 13.4421 30.4644 14.115 31.3214 15.3367C31.5498 15.6625 31.7569 16.2132 31.9004 16.6152C31.9163 16.6577 31.9305 16.7002 31.9446 16.7391H23.063C23.07 16.7037 23.0789 16.6612 23.0877 16.6152C23.1426 16.362 23.2471 15.9866 23.3303 15.8095L23.3268 15.806Z" fill="white"/>
</svg>
