<svg xmlns="http://www.w3.org/2000/svg" viewBox="0 0 451.21 73.11"><defs><style>.cls-1{fill:#fff;}.cls-2{fill:#ffb703;}</style></defs><title>newlogo_cb_white</title><g id="Layer_2" data-name="Layer 2"><g id="Layer_1-2" data-name="Layer 1"><path class="cls-1" d="M38.05,48.35c-.27-.84-.51-1.72-.71-2.64-.09-.48-.28-1.59-.28-1.62H31.53a2,2,0,0,0-1.38.42,3.23,3.23,0,0,0-.8,1.34,9.63,9.63,0,0,1-3.27,4.65,9.16,9.16,0,0,1-5.28,1.39q-8.73,0-9.23-10.91l-.08-2.76.08-3.11c.11-3.68,1-6.42,2.56-8.21a8.46,8.46,0,0,1,6.67-2.69A9,9,0,0,1,26,25.64a9.79,9.79,0,0,1,3.31,4.61,3.92,3.92,0,0,0,.84,1.38,1.92,1.92,0,0,0,1.34.38H37a28.72,28.72,0,0,1,.93-4.4,21.28,21.28,0,0,1,1.22-3.17c-.18-.31-.37-.63-.58-.94a17.25,17.25,0,0,0-6.79-5.74,24.24,24.24,0,0,0-11.19-2.35q-9.22,0-14.72,5.11T.08,34.7L0,38.05.08,41.4q.35,9.06,5.83,14.18t14.72,5.11A23.74,23.74,0,0,0,32,58.26a17.7,17.7,0,0,0,6.71-5.83c.23-.36.43-.71.63-1.06A22.71,22.71,0,0,1,38.05,48.35Z"/><path class="cls-1" d="M82.72,16.74a2.06,2.06,0,0,0-1.51-.59H74.47A2.09,2.09,0,0,0,73,16.7a1.82,1.82,0,0,0-.57,1.47V21a15.85,15.85,0,0,0-5.35-4.16,18.62,18.62,0,0,0-8-1.48q-8.69,0-12.92,5.44a20.59,20.59,0,0,0-3.45,6.86,28.56,28.56,0,0,0-1,4.62c-.13,1-.22,2-.27,3a46.61,46.61,0,0,0,0,5.56c.07,1.22.18,2.34.34,3.36.08.54.17,1,.27,1.52a25.43,25.43,0,0,0,.7,2.64,18.67,18.67,0,0,0,5.33,8.39q4.57,4,11.81,4a15.3,15.3,0,0,0,7.38-1.52,16.87,16.87,0,0,0,5.08-4.47v0l.14-.18a16.53,16.53,0,0,0,2.49-4.83,17.15,17.15,0,0,1-1,5.52A19.46,19.46,0,0,1,72.93,58c-.12.23-.24.45-.37.67a2,2,0,0,0,2,1.31h6.73a2,2,0,0,0,1.44-.55,1.77,1.77,0,0,0,.58-1.47l0-39.75A2,2,0,0,0,82.72,16.74ZM72,41a12.34,12.34,0,0,1-2.7,7.58,8.93,8.93,0,0,1-7.34,3.11,7.58,7.58,0,0,1-5.63-1.94,10.6,10.6,0,0,1-2.67-5.47,30.51,30.51,0,0,1-.45-3.7,35.22,35.22,0,0,1,0-5.06q.93-11.12,9.44-11.11a8.55,8.55,0,0,1,6.08,2.06,10,10,0,0,1,2.9,5.34,16.38,16.38,0,0,1,.31,2.7C72,36.53,72.05,38.7,72,41Z"/><path class="cls-2" d="M280.61.13h-6a1.6,1.6,0,0,0-1.11.41,2.64,2.64,0,0,0-.69,1l-3,8.21a.62.62,0,0,0,0,.66.63.63,0,0,0,.53.29h3.95a2,2,0,0,0,1.76-1.16l5-8.28a1.14,1.14,0,0,0,.12-.49A.59.59,0,0,0,280.61.13Z"/><path class="cls-1" d="M149.63,20.07a14.72,14.72,0,0,0-11.29-4.71,16.07,16.07,0,0,0-8,2.06,14.86,14.86,0,0,0-5.73,5.43q-3.7-7.5-13.06-7.49a14.78,14.78,0,0,0-12.21,5.72V18.22a1.88,1.88,0,0,0-2-2H90.68a2,2,0,0,0-1.43.55,1.94,1.94,0,0,0-.59,1.48V58a2,2,0,0,0,2,2h7.16a1.92,1.92,0,0,0,1.47-.59A2,2,0,0,0,99.86,58V34.47q0-5.22,2.32-7.62a7.49,7.49,0,0,1,5.6-2.4,7.67,7.67,0,0,1,5.81,2.4q2.26,2.4,2.27,7.62V58a2,2,0,0,0,2,2H125a1.94,1.94,0,0,0,1.48-.59A2.06,2.06,0,0,0,127,58V34.47q0-5.22,2.31-7.62a7.49,7.49,0,0,1,5.6-2.4,7.7,7.7,0,0,1,5.86,2.36Q143,29.17,143,34.47V58a2,2,0,0,0,2,2h7a1.94,1.94,0,0,0,1.48-.59A2,2,0,0,0,154,58V33.8Q154,24.79,149.63,20.07Z"/><path class="cls-1" d="M201.59,35.06q-.34-9-4.89-14.37t-13-5.33A16.51,16.51,0,0,0,173,18.69c-.21.19-.42.38-.62.58a15.87,15.87,0,0,0-3.76,5.17,13.58,13.58,0,0,1,1.51-6c.05-.1.1-.21.16-.31h0a2,2,0,0,0-.58-1.38,2.09,2.09,0,0,0-1.52-.58h-6.74a2,2,0,0,0-1.43.54,1.91,1.91,0,0,0-.6,1.47V72.28a.83.83,0,0,0,1.07.8l9.23-4.24a1.52,1.52,0,0,0,1.08-1.44V54.85q4.46,6,12.88,6c5.68,0,10-1.8,13.1-5.42s4.67-8.38,4.84-14.27c0-.68.08-1.69.08-3S201.63,35.73,201.59,35.06Zm-11.54,5.56q-.6,11.12-9.6,11.11a8.67,8.67,0,0,1-7.08-2.94,11.51,11.51,0,0,1-2.6-7.16c-.07-.73-.08-1.82-.08-3.29s0-2.52.08-3.19a13,13,0,0,1,2.52-7.59q2.36-3.11,7.16-3.11,9,0,9.6,11.11c.06.57.09,1.42.09,2.53S190.11,40.05,190.05,40.62Z"/><path class="cls-1" d="M241.55,21.42q-5.43-6.08-15.46-6.06-9.76,0-15.28,6.06T205.29,38l.08,2.1q.34,9.95,5.86,15.33t15,5.39a25,25,0,0,0,10.36-2,20,20,0,0,0,6.86-4.76q2.4-2.73,2.4-4.76a1.39,1.39,0,0,0-.55-1.18,2.09,2.09,0,0,0-1.3-.42h-7.41a3.5,3.5,0,0,0-1.44.21A4.63,4.63,0,0,0,233.92,49a9.5,9.5,0,0,1-7.83,3.87,7.93,7.93,0,0,1-6.61-3.07,13.13,13.13,0,0,1-2.57-7.79v-.67h28a2.08,2.08,0,0,0,1.52-.59,2,2,0,0,0,.59-1.44V37.58Q247,27.49,241.55,21.42Zm-6.19,12.8H216.91v-.17a12.21,12.21,0,0,1,2.45-8,8.21,8.21,0,0,1,6.73-3,8.37,8.37,0,0,1,6.78,3,12.06,12.06,0,0,1,2.49,8Z"/><path class="cls-1" d="M292.81,34.39q-.44-8.85-5.9-13.94t-15.16-5.09q-9.76,0-15.24,5.09t-5.9,13.94l-.08,3.7.08,3.71q.44,8.93,5.81,14t15.33,5q9.86,0,15.24-5t5.82-14c.05-.68.08-1.91.08-3.71S292.86,35.06,292.81,34.39Zm-11.63,7c-.11,3.59-1,6.31-2.57,8.16a8.54,8.54,0,0,1-6.86,2.78,8.65,8.65,0,0,1-6.9-2.78q-2.44-2.77-2.62-8.16l-.08-3.29.08-3.28q.18-5.39,2.62-8.22a8.64,8.64,0,0,1,6.9-2.81,8.55,8.55,0,0,1,6.82,2.81q2.44,2.84,2.61,8.22c.06.56.09,1.65.09,3.28S281.24,40.82,281.18,41.38Z"/><path class="cls-1" d="M334.24,20.41q-4.56-5.06-12.3-5.05-8.55,0-13.61,5.78l0,0a14.64,14.64,0,0,0-2,3.28,13.56,13.56,0,0,1,1.5-6,.91.91,0,0,1,.07-.14v-.11a2,2,0,0,0-.55-1.48,2,2,0,0,0-1.47-.55h-7a2,2,0,0,0-1.43.55,1.91,1.91,0,0,0-.59,1.48V58a1.93,1.93,0,0,0,.59,1.43,2,2,0,0,0,1.43.59h7.49a1.91,1.91,0,0,0,1.47-.59,2,2,0,0,0,.55-1.43V34.81A10.63,10.63,0,0,1,311,27.23a9,9,0,0,1,6.91-2.78,8.65,8.65,0,0,1,6.86,2.73q2.4,2.75,2.4,7.63V58a2,2,0,0,0,2,2h7.58a1.94,1.94,0,0,0,1.48-.59,2.05,2.05,0,0,0,.54-1.43V34.3Q338.78,25.47,334.24,20.41Z"/><path class="cls-2" d="M418,21.12q-4.94-5.82-13.7-5.82-8.1,0-13,5.32t-5.52,14.07l-.08,3.38.08,3.37q.68,8.85,5.56,14.12t12.91,5.27A21.2,21.2,0,0,0,413.22,59a18.63,18.63,0,0,0,6.2-4.31q2.24-2.48,2.24-4.25a1.34,1.34,0,0,0-.51-1.09,1.87,1.87,0,0,0-1.27-.42h-1.35a2.5,2.5,0,0,0-1.38.25A5.78,5.78,0,0,0,416,50.46a13.59,13.59,0,0,1-4.17,3.67,14.05,14.05,0,0,1-7.54,1.81,11.74,11.74,0,0,1-6.92-2.07,13.76,13.76,0,0,1-4.59-5.48A18.66,18.66,0,0,1,391,41v-.85h30a2,2,0,0,0,1.39-.5,1.73,1.73,0,0,0,.55-1.35V37.05Q422.92,26.94,418,21.12Zm-.21,14.33H391v-.34a16,16,0,0,1,3.59-10.7,12.11,12.11,0,0,1,9.74-4.22,12.38,12.38,0,0,1,9.82,4.22,15.74,15.74,0,0,1,3.67,10.7Z"/><path class="cls-2" d="M450.69,56.37a1.82,1.82,0,0,0-1.36-.51H444.7c-2.45,0-4.21-.81-5.26-2.44s-1.59-4-1.59-7.24V21.25h10.62a1.77,1.77,0,0,0,1.89-1.89v-1.2a1.82,1.82,0,0,0-.52-1.37,1.86,1.86,0,0,0-1.37-.51H437.85V1.89a1.86,1.86,0,0,0-.52-1.38A1.86,1.86,0,0,0,436,0H434.5a1.83,1.83,0,0,0-1.36.51,1.86,1.86,0,0,0-.52,1.38V16.28h-6.68a1.86,1.86,0,0,0-1.37.51,1.82,1.82,0,0,0-.52,1.37v1.2a1.77,1.77,0,0,0,1.89,1.89h6.68V46.52q0,6.69,2.66,10.5c1.77,2.54,4.76,3.81,9,3.81h5.05a1.82,1.82,0,0,0,1.36-.51,1.84,1.84,0,0,0,.52-1.37V57.74A1.84,1.84,0,0,0,450.69,56.37Z"/><path class="cls-2" d="M381.91,34.51a24,24,0,0,0-1.41-7.75,18.63,18.63,0,0,0-3.66-6.07q-4.83-5.34-13.56-5.34t-13.55,5.34l0,0V2a1.82,1.82,0,0,0-.5-1.34,1.79,1.79,0,0,0-1.35-.51h-1.44a1.75,1.75,0,0,0-1.34.51A1.79,1.79,0,0,0,344.56,2V38l.09,3.52q.25,8.49,5.08,13.82t13.55,5.33q8.73,0,13.56-5.33t5.07-13.82C382,41,382,39.82,382,38S382,35.07,381.91,34.51Zm-5.12,6.63q-.24,7.05-3.9,10.88a14,14,0,0,1-19.22,0q-3.65-3.83-3.9-10.88l-.08-3.1.08-3.11q.25-7.07,3.9-10.88a14,14,0,0,1,19.22,0q3.66,3.82,3.9,10.88c.06.55.09,1.59.09,3.11S376.85,40.58,376.79,41.14Z"/></g></g></svg>