<svg width="445" height="357" viewBox="0 0 445 357" fill="none" xmlns="http://www.w3.org/2000/svg">
<rect width="445" height="357" fill="#F4F4F4"/>
<path d="M111.703 155.855H124.097C121.596 150.073 115.453 144.564 102.624 144.945C98.5474 145.055 76.9119 147.345 73.4329 167.2C72.3456 173.636 75.5529 188.309 96.2099 187.709C99.2541 187.6 113.551 187.164 118.661 177.127H105.56C102.733 182.691 97.5145 183.564 95.0683 183.4C87.4579 182.964 85.8814 176.8 87.8927 167.473C91.5349 150.836 101.32 150.127 105.125 150.345C109.528 150.673 110.67 152.582 111.703 155.855ZM168.074 165.4C162.965 183.018 152.799 185.145 148.885 184.982C140.894 184.655 137.578 178.273 140.459 168.345C145.624 150.727 155.735 148.6 159.649 148.764C167.64 149.145 170.956 155.473 168.074 165.4ZM181.012 163.982C183.676 151.436 175.359 144.945 159.322 145.109C151.44 145.218 131.599 147.564 126.869 169.818C124.206 182.364 132.523 188.855 148.559 188.691C156.441 188.582 176.283 186.291 181.012 163.982ZM231.459 154.055C233.742 144.618 220.315 145.109 215.803 145.055C210.095 145.055 202.213 145.055 194.167 145.055L193.298 147.673C196.614 148.273 195.961 150.182 194.548 154.273C190.797 165.182 188.84 169.982 185.905 177.345C182.969 184.709 182.154 187.055 182.154 187.055H194.276C194.276 187.055 204.17 158.745 206.833 152.964C209.443 147.127 209.551 147.127 213.683 147.182C218.358 147.236 220.641 150.4 218.901 154.218C217.325 157.764 214.607 163 202.919 166.709L202.648 168.673L210.856 187.109H225.316C225.316 187.109 223.359 184 220.804 179.473C217.488 173.527 216.51 171.018 214.553 166.655C221.511 164.636 229.665 161.745 231.459 154.055ZM268.098 169.382C268.152 169.655 267.935 169.764 267.663 169.764C262.825 169.764 260.65 169.764 255.703 169.764C255.54 169.764 255.377 169.491 255.486 169.327C255.758 168.836 262.335 159.673 265.38 155.691C265.325 155.691 266.304 162.782 268.098 169.382ZM272.447 187.327H284.895C284.895 187.327 275.817 150.673 274.838 147.291C273.86 143.964 264.401 144.127 260.161 148.982C258.367 151 231.785 187.327 231.785 187.327H243.418L253.42 173.745H268.859L272.447 187.327ZM306.313 179.745C309.194 172.436 318.49 144.836 318.49 144.836H301.366L300.497 147.4C302.671 148 303.704 149.582 302.508 153.891C300.768 160.055 289.951 187.382 289.951 187.382C289.951 187.382 324.469 187.382 324.796 187.327L327.296 179.745H306.313Z" fill="#104878"/>
<path d="M329.688 173.255C333.602 170.2 339.853 166.109 346.812 167.364C352.085 168.291 354.585 168.564 358.499 167.2C354.748 166.109 352.954 164.309 350.943 161.473C354.422 160.273 355.564 160.109 360.076 157.327C359.315 156.673 356.433 154.327 351.269 154.273C343.822 154.218 339.69 156.782 333.928 160.545L329.688 173.255Z" fill="#EF404A"/>
<path d="M370.73 146.745C368.882 148.545 365.62 151.6 358.553 148.764C351.432 145.927 345.779 149.527 344.257 150.345L340.343 162.073C344.692 159.4 349.584 157.109 354.803 159.073C360.021 161.091 362.413 160.818 366.925 158.364L370.73 146.745Z" fill="#FFCB05"/>
<path d="M335.287 156.455C341.049 152.745 345.181 150.182 352.628 150.182C359.043 150.236 363.12 149.527 368.61 141.945C363.174 144.836 359.804 145.273 353.987 143.473C348.116 141.673 343.822 142.709 338.984 145.273L335.287 156.455Z" fill="#72BF44"/>
<path d="M75.0637 212.691C74.0852 211.818 73.5959 210.564 73.5416 208.982C73.5416 208.6 73.5416 208.055 73.5416 207.236C73.5416 206.418 73.5416 205.873 73.5416 205.491C73.5959 203.909 74.1395 202.709 75.0637 201.836C76.0422 200.964 77.3468 200.527 79.032 200.527C80.1736 200.527 81.152 200.745 82.0218 201.127C82.8372 201.509 83.4895 202 83.9244 202.6C84.3593 203.2 84.5768 203.745 84.5768 204.345V204.4C84.5768 204.509 84.5224 204.564 84.468 204.673C84.4137 204.727 84.305 204.782 84.1962 204.782H82.2393C82.1305 204.782 82.0218 204.782 81.9675 204.727C81.9131 204.673 81.8587 204.618 81.8044 204.509C81.6413 204.018 81.3151 203.636 80.8802 203.309C80.4454 202.982 79.8474 202.818 79.032 202.818C78.1622 202.818 77.4555 203.036 76.9663 203.527C76.477 204.018 76.2052 204.727 76.1509 205.709C76.1509 206.091 76.1509 206.636 76.1509 207.345C76.1509 208.055 76.1509 208.6 76.1509 208.982C76.2052 211 77.1837 211.982 79.032 211.982C79.9018 211.982 80.6084 211.764 81.152 211.273C81.6956 210.782 81.9675 210.073 81.9675 209.091V208.491H79.6843C79.5212 208.491 79.4125 208.436 79.3581 208.382C79.3038 208.273 79.2494 208.164 79.2494 208.055V206.909C79.2494 206.745 79.3038 206.636 79.3581 206.582C79.4125 206.473 79.5756 206.473 79.6843 206.473H84.1962C84.3593 206.473 84.468 206.527 84.5224 206.582C84.5768 206.691 84.6311 206.8 84.6311 206.909V208.873C84.6311 209.909 84.4137 210.836 83.9244 211.6C83.4895 212.364 82.8372 212.964 81.9675 213.4C81.0977 213.836 80.1192 214 78.9776 214C77.3468 214 75.9878 213.564 75.0637 212.691Z" fill="#104878"/>
<path d="M87.2404 213.673C87.1317 213.564 87.1317 213.455 87.1317 213.345V201.073C87.1317 200.909 87.1861 200.8 87.2404 200.745C87.2948 200.636 87.4579 200.636 87.5666 200.636H95.8294C95.9925 200.636 96.1012 200.691 96.1555 200.745C96.2643 200.855 96.2643 200.964 96.2643 201.073V202.327C96.2643 202.491 96.2099 202.6 96.1555 202.655C96.0468 202.764 95.9381 202.764 95.8294 202.764H89.6323V206.091H95.3945C95.5576 206.091 95.6663 206.145 95.7206 206.2C95.8294 206.309 95.8294 206.418 95.8294 206.527V207.673C95.8294 207.836 95.775 207.945 95.7206 208C95.6119 208.055 95.5032 208.109 95.3945 208.109H89.6323V211.545H95.9381C96.1012 211.545 96.2099 211.6 96.2643 211.655C96.373 211.764 96.373 211.873 96.373 211.982V213.236C96.373 213.4 96.3186 213.509 96.2643 213.564C96.1555 213.618 96.0468 213.673 95.9381 213.673H87.5666C87.4035 213.836 87.2948 213.782 87.2404 213.673Z" fill="#104878"/>
<path d="M101.809 213.673C101.7 213.564 101.7 213.455 101.7 213.345V202.927H98.2212C98.1125 202.927 98.0038 202.873 97.8951 202.818C97.7863 202.709 97.7863 202.6 97.7863 202.491V201.073C97.7863 200.909 97.8407 200.8 97.8951 200.745C97.9494 200.636 98.1125 200.636 98.2212 200.636H107.789C107.952 200.636 108.06 200.691 108.115 200.745C108.224 200.855 108.224 200.964 108.224 201.073V202.491C108.224 202.6 108.169 202.709 108.115 202.818C108.006 202.927 107.897 202.927 107.789 202.927H104.31V213.345C104.31 213.455 104.255 213.564 104.201 213.673C104.092 213.782 103.983 213.782 103.875 213.782H102.135C101.972 213.836 101.863 213.782 101.809 213.673Z" fill="#104878"/>
<path d="M115.019 212.691C114.094 211.818 113.551 210.564 113.497 208.927C113.497 208.6 113.497 208.055 113.497 207.291C113.497 206.527 113.497 205.927 113.497 205.6C113.551 204.018 114.094 202.764 115.019 201.836C115.997 200.964 117.302 200.473 118.987 200.473C120.074 200.473 121.053 200.691 121.922 201.073C122.738 201.455 123.39 202 123.825 202.655C124.26 203.309 124.532 204.073 124.532 204.891V204.945C124.532 205.055 124.477 205.109 124.423 205.218C124.314 205.273 124.26 205.327 124.151 205.327H122.357C122.194 205.327 122.085 205.273 122.031 205.218C121.977 205.164 121.868 205.055 121.868 204.836C121.651 204.018 121.324 203.473 120.89 203.145C120.4 202.818 119.802 202.655 119.041 202.655C117.247 202.655 116.323 203.691 116.215 205.709C116.215 206.036 116.215 206.582 116.215 207.291C116.215 208 116.215 208.545 116.215 208.873C116.269 210.891 117.247 211.927 119.041 211.927C119.802 211.927 120.455 211.764 120.89 211.436C121.379 211.109 121.705 210.564 121.868 209.8C121.922 209.636 121.977 209.527 122.031 209.418C122.085 209.364 122.249 209.309 122.357 209.309H124.151C124.26 209.309 124.369 209.364 124.423 209.418C124.477 209.473 124.532 209.582 124.532 209.691C124.532 210.509 124.26 211.273 123.825 211.927C123.39 212.582 122.738 213.127 121.922 213.509C121.107 213.891 120.128 214.109 118.987 214.109C117.302 214 115.997 213.564 115.019 212.691Z" fill="#104878"/>
<path d="M126.978 213.673C126.869 213.564 126.869 213.455 126.869 213.345V201.073C126.869 200.909 126.924 200.8 126.978 200.745C127.087 200.691 127.195 200.636 127.304 200.636H129.044C129.207 200.636 129.315 200.691 129.37 200.745C129.424 200.8 129.479 200.964 129.479 201.073V211.545H135.404C135.567 211.545 135.676 211.6 135.73 211.655C135.839 211.764 135.839 211.873 135.839 211.982V213.291C135.839 213.455 135.784 213.564 135.73 213.618C135.621 213.673 135.513 213.727 135.404 213.727H127.25C127.141 213.836 127.032 213.782 126.978 213.673Z" fill="#104878"/>
<path d="M138.611 212.691C137.687 211.818 137.143 210.564 137.089 208.818C137.089 208.436 137.089 207.945 137.089 207.236C137.089 206.527 137.089 205.982 137.089 205.6C137.143 203.909 137.633 202.655 138.611 201.782C139.59 200.909 140.894 200.418 142.579 200.418C144.21 200.418 145.569 200.855 146.548 201.782C147.526 202.655 148.07 203.964 148.07 205.6C148.07 206.309 148.124 206.855 148.124 207.236C148.124 207.564 148.124 208.109 148.07 208.818C148.015 210.509 147.526 211.818 146.548 212.691C145.624 213.564 144.265 214 142.579 214C140.894 214 139.535 213.564 138.611 212.691ZM144.591 211.055C145.08 210.564 145.352 209.745 145.406 208.709C145.406 207.945 145.46 207.455 145.46 207.182C145.46 206.909 145.46 206.364 145.406 205.655C145.352 204.618 145.08 203.855 144.591 203.309C144.101 202.818 143.395 202.545 142.579 202.545C141.764 202.545 141.112 202.818 140.568 203.309C140.079 203.8 139.807 204.618 139.753 205.655C139.753 206.036 139.753 206.527 139.753 207.182C139.753 207.836 139.753 208.327 139.753 208.709C139.807 209.745 140.079 210.509 140.568 211.055C141.057 211.545 141.71 211.818 142.579 211.818C143.449 211.818 144.101 211.6 144.591 211.055Z" fill="#104878"/>
<path d="M152.256 213.509C151.44 213.182 150.842 212.745 150.462 212.145C150.027 211.6 149.809 211 149.809 210.345C149.809 210.236 149.864 210.127 149.918 210.073C149.972 210.018 150.081 209.964 150.19 209.964H151.875C152.038 209.964 152.147 210.018 152.201 210.073C152.256 210.127 152.364 210.236 152.419 210.345C152.527 210.782 152.853 211.109 153.288 211.436C153.723 211.709 154.376 211.873 155.137 211.873C156.006 211.873 156.713 211.709 157.148 211.436C157.583 211.164 157.8 210.727 157.8 210.182C157.8 209.855 157.692 209.527 157.474 209.309C157.257 209.091 156.876 208.873 156.441 208.709C156.006 208.545 155.3 208.327 154.43 208.109C152.962 207.782 151.875 207.291 151.168 206.691C150.462 206.091 150.135 205.273 150.135 204.182C150.135 203.473 150.353 202.818 150.733 202.218C151.114 201.673 151.712 201.182 152.419 200.855C153.18 200.527 154.049 200.364 155.028 200.364C156.061 200.364 156.931 200.527 157.692 200.909C158.453 201.291 158.996 201.727 159.431 202.273C159.812 202.818 160.029 203.364 160.083 203.909C160.083 204.018 160.029 204.127 159.975 204.182C159.92 204.236 159.812 204.291 159.703 204.291H157.963C157.692 204.291 157.528 204.182 157.42 203.909C157.365 203.527 157.094 203.145 156.659 202.927C156.224 202.655 155.68 202.545 155.082 202.545C154.376 202.545 153.832 202.655 153.451 202.927C153.071 203.2 152.853 203.582 152.853 204.073C152.853 204.4 152.962 204.727 153.18 204.945C153.397 205.164 153.669 205.382 154.104 205.545C154.539 205.709 155.137 205.927 155.952 206.145C157.039 206.418 157.909 206.691 158.616 207.018C159.268 207.345 159.757 207.727 160.083 208.218C160.41 208.709 160.573 209.309 160.573 210.073C160.573 210.891 160.355 211.6 159.92 212.2C159.485 212.8 158.833 213.236 158.018 213.564C157.202 213.891 156.278 214.055 155.245 214.055C154.049 214 153.071 213.836 152.256 213.509Z" fill="#104878"/>
<path d="M162.747 213.673C162.638 213.564 162.638 213.455 162.638 213.345V201.073C162.638 200.909 162.693 200.8 162.747 200.745C162.801 200.636 162.965 200.636 163.073 200.636H171.336C171.499 200.636 171.608 200.691 171.662 200.745C171.771 200.855 171.771 200.964 171.771 201.073V202.327C171.771 202.491 171.717 202.6 171.662 202.655C171.554 202.764 171.445 202.764 171.336 202.764H165.139V206.091H170.901C171.064 206.091 171.173 206.145 171.227 206.2C171.336 206.309 171.336 206.418 171.336 206.527V207.673C171.336 207.836 171.282 207.945 171.227 208C171.119 208.055 171.01 208.109 170.901 208.109H165.139V211.545H171.445C171.608 211.545 171.717 211.6 171.771 211.655C171.88 211.764 171.88 211.873 171.88 211.982V213.236C171.88 213.4 171.825 213.509 171.771 213.564C171.662 213.618 171.554 213.673 171.445 213.673H163.019C162.965 213.836 162.856 213.782 162.747 213.673Z" fill="#104878"/>
<path d="M174.435 213.673C174.326 213.564 174.326 213.455 174.326 213.345V201.073C174.326 200.909 174.38 200.8 174.435 200.745C174.489 200.636 174.652 200.636 174.761 200.636H179.599C181.121 200.636 182.317 201.018 183.187 201.727C184.056 202.436 184.491 203.473 184.491 204.782C184.491 205.709 184.274 206.473 183.839 207.073C183.404 207.673 182.752 208.164 181.991 208.436L184.709 213.236C184.763 213.291 184.763 213.4 184.763 213.455C184.763 213.564 184.709 213.673 184.654 213.727C184.6 213.782 184.491 213.836 184.383 213.836H182.697C182.48 213.836 182.317 213.782 182.263 213.727C182.154 213.618 182.045 213.509 181.991 213.345L179.544 208.873H176.935V213.4C176.935 213.509 176.881 213.618 176.826 213.727C176.718 213.836 176.609 213.836 176.5 213.836H174.815C174.652 213.836 174.543 213.782 174.435 213.673ZM179.599 206.745C180.36 206.745 180.904 206.582 181.284 206.255C181.665 205.927 181.882 205.436 181.882 204.782C181.882 204.127 181.665 203.636 181.284 203.309C180.904 202.982 180.36 202.764 179.599 202.764H176.935V206.745H179.599Z" fill="#104878"/>
<path d="M193.841 213.673C193.733 213.564 193.733 213.455 193.733 213.345V202.927H190.253C190.145 202.927 190.036 202.873 189.927 202.818C189.819 202.709 189.819 202.6 189.819 202.491V201.073C189.819 200.909 189.873 200.8 189.927 200.745C189.982 200.636 190.145 200.636 190.253 200.636H199.821C199.984 200.636 200.093 200.691 200.147 200.745C200.256 200.855 200.256 200.964 200.256 201.073V202.491C200.256 202.6 200.201 202.709 200.147 202.818C200.038 202.927 199.93 202.927 199.821 202.927H196.342V213.345C196.342 213.455 196.288 213.564 196.233 213.673C196.124 213.782 196.016 213.782 195.907 213.782H194.167C194.004 213.836 193.896 213.782 193.841 213.673Z" fill="#104878"/>
<path d="M202.974 212.691C202.05 211.818 201.506 210.564 201.452 208.818C201.452 208.436 201.452 207.945 201.452 207.236C201.452 206.527 201.452 205.982 201.452 205.6C201.506 203.909 201.995 202.655 202.974 201.782C203.952 200.909 205.257 200.418 206.942 200.418C208.573 200.418 209.932 200.855 210.91 201.782C211.889 202.655 212.433 203.964 212.433 205.6C212.433 206.309 212.487 206.855 212.487 207.236C212.487 207.564 212.487 208.109 212.433 208.818C212.378 210.509 211.889 211.818 210.91 212.691C209.986 213.564 208.627 214 206.942 214C205.257 214 203.952 213.564 202.974 212.691ZM208.954 211.055C209.443 210.564 209.715 209.745 209.769 208.709C209.769 207.945 209.823 207.455 209.823 207.182C209.823 206.909 209.823 206.364 209.769 205.655C209.715 204.618 209.443 203.855 208.954 203.309C208.464 202.818 207.758 202.545 206.942 202.545C206.127 202.545 205.474 202.818 204.931 203.309C204.442 203.8 204.17 204.618 204.115 205.655C204.115 206.036 204.115 206.527 204.115 207.182C204.115 207.836 204.115 208.327 204.115 208.709C204.17 209.745 204.442 210.509 204.931 211.055C205.42 211.545 206.072 211.818 206.942 211.818C207.812 211.818 208.464 211.6 208.954 211.055Z" fill="#104878"/>
<path d="M221.837 213.673C221.728 213.564 221.728 213.455 221.728 213.345V202.927H218.249C218.14 202.927 218.032 202.873 217.923 202.818C217.814 202.709 217.814 202.6 217.814 202.491V201.073C217.814 200.909 217.869 200.8 217.923 200.745C217.977 200.636 218.14 200.636 218.249 200.636H227.817C227.98 200.636 228.088 200.691 228.143 200.745C228.251 200.855 228.251 200.964 228.251 201.073V202.491C228.251 202.6 228.197 202.709 228.143 202.818C228.034 202.927 227.925 202.927 227.817 202.927H224.338V213.345C224.338 213.455 224.283 213.564 224.229 213.673C224.12 213.782 224.011 213.782 223.903 213.782H222.163C222 213.836 221.891 213.782 221.837 213.673Z" fill="#104878"/>
<path d="M230.317 213.673C230.208 213.564 230.208 213.455 230.208 213.345V201.073C230.208 200.909 230.263 200.8 230.317 200.745C230.372 200.636 230.535 200.636 230.643 200.636H232.329C232.492 200.636 232.6 200.691 232.655 200.745C232.709 200.855 232.763 200.964 232.763 201.073V205.927H238.308V201.073C238.308 200.909 238.363 200.8 238.417 200.745C238.471 200.636 238.634 200.636 238.743 200.636H240.428C240.591 200.636 240.7 200.691 240.754 200.745C240.863 200.855 240.863 200.964 240.863 201.073V213.345C240.863 213.509 240.809 213.618 240.754 213.673C240.646 213.727 240.537 213.782 240.428 213.782H238.743C238.634 213.782 238.526 213.727 238.417 213.673C238.308 213.564 238.308 213.455 238.308 213.345V208.273H232.763V213.345C232.763 213.455 232.709 213.564 232.655 213.673C232.6 213.782 232.437 213.782 232.329 213.782H230.643C230.48 213.836 230.372 213.782 230.317 213.673Z" fill="#104878"/>
<path d="M243.962 213.673C243.853 213.564 243.853 213.455 243.853 213.345V201.073C243.853 200.909 243.907 200.8 243.962 200.745C244.016 200.636 244.179 200.636 244.288 200.636H252.551C252.714 200.636 252.822 200.691 252.877 200.745C252.985 200.855 252.985 200.964 252.985 201.073V202.327C252.985 202.491 252.931 202.6 252.877 202.655C252.768 202.764 252.659 202.764 252.551 202.764H246.354V206.091H252.116C252.279 206.091 252.388 206.145 252.442 206.2C252.551 206.309 252.551 206.418 252.551 206.527V207.673C252.551 207.836 252.496 207.945 252.442 208C252.333 208.055 252.224 208.109 252.116 208.109H246.354V211.545H252.659C252.822 211.545 252.931 211.6 252.985 211.655C253.094 211.764 253.094 211.873 253.094 211.982V213.236C253.094 213.4 253.04 213.509 252.985 213.564C252.877 213.618 252.768 213.673 252.659 213.673H244.288C244.179 213.836 244.07 213.782 243.962 213.673Z" fill="#104878"/>
<path d="M258.258 213.727C258.15 213.673 258.15 213.564 258.15 213.455L258.204 213.291L262.716 201.127C262.825 200.8 263.042 200.636 263.368 200.636H265.434C265.76 200.636 265.978 200.8 266.086 201.127L270.598 213.291C270.598 213.345 270.598 213.4 270.598 213.455C270.598 213.564 270.544 213.673 270.49 213.727C270.435 213.782 270.326 213.836 270.218 213.836H268.587C268.424 213.836 268.315 213.782 268.206 213.727C268.098 213.673 268.043 213.564 268.043 213.509L267.174 211.218H261.574L260.705 213.509C260.596 213.727 260.433 213.891 260.161 213.891H258.53C258.422 213.836 258.313 213.782 258.258 213.727ZM266.521 208.982L264.401 203.145L262.281 208.982H266.521Z" fill="#104878"/>
<path d="M273.153 212.691C272.229 211.818 271.685 210.564 271.631 208.927C271.631 208.6 271.631 208.055 271.631 207.291C271.631 206.527 271.631 205.927 271.631 205.6C271.685 204.018 272.229 202.764 273.153 201.836C274.132 200.964 275.436 200.473 277.122 200.473C278.209 200.473 279.187 200.691 280.057 201.073C280.872 201.455 281.525 202 281.96 202.655C282.394 203.309 282.666 204.073 282.666 204.891V204.945C282.666 205.055 282.612 205.109 282.558 205.218C282.503 205.273 282.394 205.327 282.286 205.327H280.492C280.329 205.327 280.22 205.273 280.166 205.218C280.111 205.164 280.003 205.055 280.003 204.836C279.785 204.018 279.459 203.473 279.024 203.145C278.535 202.818 277.937 202.655 277.176 202.655C275.382 202.655 274.458 203.691 274.349 205.709C274.349 206.036 274.349 206.582 274.349 207.291C274.349 208 274.349 208.545 274.349 208.873C274.404 210.891 275.382 211.927 277.176 211.927C277.937 211.927 278.589 211.764 279.024 211.436C279.513 211.109 279.84 210.564 280.003 209.8C280.057 209.636 280.111 209.527 280.166 209.418C280.22 209.364 280.383 209.309 280.492 209.309H282.286C282.394 209.309 282.503 209.364 282.558 209.418C282.612 209.473 282.666 209.582 282.666 209.691C282.666 210.509 282.394 211.273 281.96 211.927C281.525 212.582 280.872 213.127 280.057 213.509C279.242 213.891 278.263 214.109 277.122 214.109C275.436 214 274.077 213.564 273.153 212.691Z" fill="#104878"/>
<path d="M287.939 213.673C287.831 213.564 287.831 213.455 287.831 213.345V202.927H284.351C284.243 202.927 284.134 202.873 284.025 202.818C283.917 202.709 283.917 202.6 283.917 202.491V201.073C283.917 200.909 283.971 200.8 284.025 200.745C284.08 200.636 284.243 200.636 284.351 200.636H293.919C294.082 200.636 294.191 200.691 294.245 200.745C294.354 200.855 294.354 200.964 294.354 201.073V202.491C294.354 202.6 294.299 202.709 294.245 202.818C294.136 202.927 294.028 202.927 293.919 202.927H290.44V213.345C290.44 213.455 290.385 213.564 290.331 213.673C290.222 213.782 290.114 213.782 290.005 213.782H288.265C288.157 213.836 288.048 213.782 287.939 213.673Z" fill="#104878"/>
<path d="M296.419 213.673C296.311 213.564 296.311 213.455 296.311 213.345V201.073C296.311 200.909 296.365 200.8 296.419 200.745C296.528 200.691 296.637 200.636 296.746 200.636H298.485C298.648 200.636 298.757 200.691 298.811 200.745C298.866 200.8 298.92 200.964 298.92 201.073V213.345C298.92 213.455 298.866 213.564 298.811 213.673C298.757 213.782 298.594 213.782 298.485 213.782H296.746C296.583 213.836 296.474 213.782 296.419 213.673Z" fill="#104878"/>
<path d="M302.943 212.691C302.019 211.818 301.475 210.564 301.421 208.818C301.421 208.436 301.421 207.945 301.421 207.236C301.421 206.527 301.421 205.982 301.421 205.6C301.475 203.909 301.964 202.655 302.943 201.782C303.921 200.909 305.226 200.418 306.911 200.418C308.542 200.418 309.901 200.855 310.879 201.782C311.858 202.655 312.401 203.964 312.401 205.6C312.401 206.309 312.456 206.855 312.456 207.236C312.456 207.564 312.456 208.109 312.401 208.818C312.347 210.509 311.858 211.818 310.879 212.691C309.955 213.564 308.596 214 306.911 214C305.226 214 303.921 213.564 302.943 212.691ZM308.977 211.055C309.466 210.564 309.738 209.745 309.792 208.709C309.792 207.945 309.847 207.455 309.847 207.182C309.847 206.909 309.847 206.364 309.792 205.655C309.738 204.618 309.466 203.855 308.977 203.309C308.488 202.818 307.781 202.545 306.965 202.545C306.15 202.545 305.498 202.818 304.954 203.309C304.465 203.8 304.193 204.618 304.139 205.655C304.139 206.036 304.139 206.527 304.139 207.182C304.139 207.836 304.139 208.327 304.139 208.709C304.193 209.745 304.465 210.509 304.954 211.055C305.443 211.545 306.096 211.818 306.965 211.818C307.781 211.818 308.433 211.6 308.977 211.055Z" fill="#104878"/>
<path d="M315.065 213.673C314.956 213.564 314.956 213.455 314.956 213.345V201.073C314.956 200.909 315.011 200.8 315.065 200.745C315.12 200.636 315.283 200.636 315.391 200.636H316.859C317.022 200.636 317.131 200.691 317.185 200.745C317.24 200.8 317.348 200.855 317.403 200.964L322.784 209.418V201.127C322.784 200.964 322.839 200.855 322.893 200.8C322.947 200.691 323.11 200.691 323.219 200.691H324.796C324.959 200.691 325.067 200.745 325.122 200.8C325.231 200.909 325.231 201.018 325.231 201.127V213.345C325.231 213.509 325.176 213.618 325.122 213.673C325.013 213.782 324.904 213.782 324.796 213.782H323.328C323.111 213.782 322.947 213.673 322.784 213.455L317.403 205.218V213.291C317.403 213.455 317.348 213.564 317.294 213.618C317.185 213.673 317.076 213.727 316.968 213.727H315.391C315.283 213.836 315.174 213.782 315.065 213.673Z" fill="#104878"/>
</svg>
