<svg width="445" height="357" viewBox="0 0 445 357" fill="none" xmlns="http://www.w3.org/2000/svg">
<rect width="445" height="357" fill="#F4F4F4"/>
<g clip-path="url(#clip0_18_4774)">
<path d="M136.922 178.52C136.922 189.806 129.814 196.629 120.28 196.629C110.605 196.629 104.035 189.806 104.035 178.52V161.913H112.258V178.52C112.258 185.09 115.065 189.002 120.28 189.002C125.394 189.002 128.601 185.09 128.601 178.52V161.913H136.922V178.52Z" fill="#18233D"/>
<path d="M171.466 174.706C171.466 179.622 169.058 183.787 165.402 185.743L172.421 196.025H162.203L157.077 187.548H151.062V196.025H142.839V161.913H159.333C166.255 161.913 171.466 167.283 171.466 174.706ZM151.062 169.541V179.925H158.13C159.469 179.877 160.738 179.312 161.671 178.349C162.604 177.386 163.129 176.1 163.136 174.758C163.143 173.417 162.631 172.125 161.708 171.153C160.785 170.181 159.522 169.603 158.183 169.541H151.062Z" fill="#18233D"/>
<path d="M210.27 178.969C210.26 182.449 209.22 185.849 207.281 188.738C205.341 191.627 202.59 193.876 199.374 195.201C196.157 196.526 192.621 196.868 189.211 196.183C185.801 195.498 182.67 193.817 180.214 191.353C177.758 188.889 176.087 185.751 175.412 182.337C174.737 178.923 175.088 175.385 176.421 172.171C177.755 168.957 180.01 166.21 182.903 164.277C185.795 162.345 189.195 161.313 192.674 161.313C197.343 161.331 201.816 163.198 205.114 166.507C208.411 169.816 210.265 174.296 210.27 178.969ZM182.598 178.969C182.589 180.953 183.167 182.896 184.261 184.551C185.355 186.206 186.914 187.5 188.743 188.268C190.571 189.036 192.586 189.245 194.533 188.867C196.48 188.489 198.271 187.543 199.68 186.146C201.089 184.75 202.052 182.967 202.449 181.023C202.845 179.079 202.656 177.061 201.906 175.224C201.157 173.387 199.879 171.814 198.236 170.703C196.592 169.593 194.657 168.995 192.674 168.985C190.015 168.974 187.46 170.019 185.571 171.891C183.682 173.763 182.612 176.309 182.598 178.969Z" fill="#18233D"/>
<path d="M245.365 186.094C245.365 191.66 241.811 196.025 232.482 196.025H215.685V161.913H230.465C240.34 161.913 243.45 165.825 243.45 171.297C243.45 174.804 240.993 177.262 240.243 177.818C241.807 178.551 243.123 179.724 244.031 181.194C244.939 182.664 245.4 184.367 245.356 186.094M235.636 172.341C235.636 170.03 234.134 168.928 230.976 168.928H223.908V176.04H230.976C234.53 176.04 235.636 174.986 235.636 172.328M231.527 182.307H223.908V188.93H231.527C234.835 188.93 236.489 187.827 236.489 185.619C236.489 183.112 234.787 182.307 231.527 182.307Z" fill="#18233D"/>
<path d="M277.248 161.913V169.541H259.349V175.409H274.294V182.534H259.349V188.401H277.248V196.025H251.131V161.913H277.248Z" fill="#18233D"/>
<path d="M314.399 169.541H302.316V196.025H293.996V169.541H281.912V161.913H314.399V169.541Z" fill="#18233D"/>
<path d="M72.9513 161.913V196.025H99.0725V188.401H81.1742V182.53H96.1139V175.409H81.1742V169.541H99.0725V161.913H72.9513Z" fill="#18233D"/>
<path d="M326.865 180.671L321.889 195.914L352.373 191.842L344.732 188.313L352.351 180.685L326.865 180.671Z" fill="#E52931"/>
<path opacity="0.15" d="M321.889 195.914L352.373 191.842L344.732 188.313L352.351 180.685" fill="white"/>
<path d="M335.443 161.904L330.925 174.582L349.636 174.52L354.141 169.514L362.968 159.375L335.443 161.904Z" fill="#007952"/>
<path opacity="0.15" d="M349.636 174.52L354.141 169.514L362.968 159.375L335.443 161.904" fill="white"/>
<path opacity="0.15" d="M330.925 174.582L349.636 174.52L354.141 169.514L362.968 159.375" fill="white"/>
<path opacity="0.15" d="M352.373 191.842L344.732 188.313L352.351 180.685L326.865 180.671" fill="white"/>
<path d="M371.049 169.697L354.141 169.519L342.378 182.583L370.813 178.871L371.049 169.697Z" fill="#FFCB00"/>
<path opacity="0.15" d="M370.813 178.871L371.049 169.697L354.141 169.519" fill="white"/>
<path opacity="0.15" d="M342.378 182.583L370.813 178.871L371.049 169.697" fill="white"/>
</g>
<defs>
<clipPath id="clip0_18_4774">
<rect width="374" height="108" fill="white" transform="translate(35 124)"/>
</clipPath>
</defs>
</svg>
