<svg id="Livello_1" data-name="Livello 1" xmlns="http://www.w3.org/2000/svg" xmlns:xlink="http://www.w3.org/1999/xlink" viewBox="0 0 124 40"><defs><clipPath id="clip-path"><circle cx="15.912" cy="20.253" r="12.21" style="fill:none"/></clipPath><clipPath id="clip-path-2"><path d="M23.073,24.439A1.416,1.416,0,0,1,21.525,25.7h0a1.412,1.412,0,0,1-1.262-1.545l.063-.623a1.415,1.415,0,0,1,1.548-1.263h0a1.413,1.413,0,0,1,1.262,1.546Z" style="fill:none"/></clipPath><clipPath id="clip-path-3"><path d="M21.788,23.393l-7.544-.762.074-.73c1.86-.709,2.638-6.432,2.638-6.432.389-3.871,4.716-4.4,4.716-4.4.216-2.156,1.572-2.115,1.572-2.115M21.788,23.393l7.545.761.074-.731c-1.684-1.067-1.3-6.829-1.3-6.829.39-3.872-3.746-5.251-3.746-5.251.219-2.157-1.118-2.388-1.118-2.388" style="fill:none"/></clipPath><clipPath id="clip-path-4"><path d="M21.786,23.379l-7.542-.76.074-.731c1.86-.709,2.638-6.432,2.638-6.432.389-3.871,4.716-4.4,4.716-4.4.22-2.159,1.574-2.118,1.574-2.118M21.786,23.379l7.545.763.076-.732c-1.684-1.067-1.3-6.828-1.3-6.828.39-3.873-3.744-5.252-3.744-5.252.217-2.158-1.118-2.389-1.118-2.389" style="fill:none"/></clipPath></defs><title>gioco_responsabile_positive</title><g style="clip-path:url(#clip-path)"><rect x="3.702" y="8.043" width="24.42" height="24.421" style="fill:#d9d9d9"/><circle cx="15.912" cy="20.254" r="12.21" style="fill:#d9d9d9"/><circle cx="15.912" cy="20.254" r="11.889" style="fill:#dadada"/><circle cx="15.912" cy="20.254" r="11.567" style="fill:#dbdbdb"/><circle cx="15.912" cy="20.254" r="11.246" style="fill:#dcdcdc"/><circle cx="15.912" cy="20.254" r="10.925" style="fill:#ddd"/><circle cx="15.912" cy="20.254" r="10.603" style="fill:#dedede"/><circle cx="15.912" cy="20.254" r="10.282" style="fill:#dfdfdf"/><circle cx="15.912" cy="20.254" r="9.961" style="fill:#e0e0e0"/><circle cx="15.912" cy="20.254" r="9.64" style="fill:#e1e1e1"/><circle cx="15.912" cy="20.254" r="9.318" style="fill:#e2e2e2"/><circle cx="15.912" cy="20.254" r="8.997" style="fill:#e3e3e3"/><circle cx="15.912" cy="20.254" r="8.676" style="fill:#e4e4e4"/><circle cx="15.912" cy="20.254" r="8.354" style="fill:#e5e5e5"/><circle cx="15.912" cy="20.254" r="8.033" style="fill:#e6e6e6"/><circle cx="15.912" cy="20.254" r="7.712" style="fill:#e7e7e7"/><circle cx="15.912" cy="20.254" r="7.39" style="fill:#e8e8e8"/><circle cx="15.912" cy="20.254" r="7.069" style="fill:#e9e9e9"/><circle cx="15.912" cy="20.254" r="6.748" style="fill:#eaeaea"/><circle cx="15.912" cy="20.254" r="6.426" style="fill:#ebebeb"/><circle cx="15.912" cy="20.254" r="6.105" style="fill:#ededed"/><circle cx="15.912" cy="20.254" r="5.784" style="fill:#eee"/><circle cx="15.912" cy="20.254" r="5.462" style="fill:#efefef"/><circle cx="15.912" cy="20.254" r="5.141" style="fill:#f0f0f0"/><circle cx="15.912" cy="20.254" r="4.82" style="fill:#f1f1f1"/><circle cx="15.912" cy="20.254" r="4.498" style="fill:#f2f2f2"/><circle cx="15.912" cy="20.254" r="4.177" style="fill:#f3f3f3"/><circle cx="15.912" cy="20.254" r="3.856" style="fill:#f4f4f4"/><circle cx="15.912" cy="20.254" r="3.534" style="fill:#f5f5f5"/><circle cx="15.912" cy="20.254" r="3.213" style="fill:#f6f6f6"/><circle cx="15.912" cy="20.254" r="2.892" style="fill:#f7f7f7"/><circle cx="15.912" cy="20.254" r="2.571" style="fill:#f8f8f8"/><circle cx="15.912" cy="20.254" r="2.249" style="fill:#f9f9f9"/><circle cx="15.912" cy="20.254" r="1.928" style="fill:#fafafa"/><circle cx="15.912" cy="20.254" r="1.607" style="fill:#fbfbfb"/><circle cx="15.912" cy="20.254" r="1.285" style="fill:#fcfcfc"/><circle cx="15.912" cy="20.254" r="0.964" style="fill:#fdfdfd"/><circle cx="15.912" cy="20.254" r="0.643" style="fill:#fefefe"/><circle cx="15.912" cy="20.254" r="0.321" style="fill:#fff"/></g><path d="M39.963,19.049a5.466,5.466,0,0,1-2.246.491,5.16,5.16,0,0,1-3.019-.967,6.227,6.227,0,0,1-2.127-2.632,6.48,6.48,0,0,1-.58-2.647A5.286,5.286,0,0,1,35.2,8.371a6.672,6.672,0,0,1,2.766-.625q1.844,0,2.32,1.056a1.718,1.718,0,0,1,.134.654,1.2,1.2,0,0,1-.744,1.175,3.013,3.013,0,0,1-1.472.052,3.293,3.293,0,0,0-1.859.245A2.148,2.148,0,0,0,35,13.07a3.962,3.962,0,0,0,.372,1.621q.892,2.023,2.5,2.022a2.349,2.349,0,0,0,1.562-.595,1.82,1.82,0,0,0,.758-1.457,1.894,1.894,0,0,0-.074-.506l-1.026.472a1.406,1.406,0,0,1-.595.137,1.289,1.289,0,0,1-1.264-.851,1.448,1.448,0,0,1-.134-.6,1.3,1.3,0,0,1,.862-1.254l2.305-1.03a2.1,2.1,0,0,1,.833-.194,1.609,1.609,0,0,1,1.442,1.145,6.127,6.127,0,0,1,.535,2.454A4.878,4.878,0,0,1,42.3,17.13,5.357,5.357,0,0,1,39.963,19.049Z" style="fill:#fff"/><path d="M44.737,17.993a1.521,1.521,0,0,1,.03-.3l1.324-8.343a1.527,1.527,0,0,1,.483-.959,1.375,1.375,0,0,1,.944-.35,1.543,1.543,0,0,1,1.093.409,1.388,1.388,0,0,1,.439,1.063,1.515,1.515,0,0,1-.03.3L47.7,18.156a1.526,1.526,0,0,1-.483.959,1.375,1.375,0,0,1-.944.35,1.54,1.54,0,0,1-1.093-.409A1.387,1.387,0,0,1,44.737,17.993Z" style="fill:#fff"/><path d="M55.475,19.525a5.179,5.179,0,0,1-3.376-1.9,5.693,5.693,0,0,1-1.219-3.658,6.688,6.688,0,0,1,.089-1.071A6,6,0,0,1,52.8,9.3a5.05,5.05,0,0,1,3.562-1.39,5.791,5.791,0,0,1,.922.074,5.1,5.1,0,0,1,3.346,1.911,5.773,5.773,0,0,1,1.249,3.681,6.149,6.149,0,0,1-.089,1.041A6.046,6.046,0,0,1,59.966,18.2,5.029,5.029,0,0,1,56.4,19.6,5.786,5.786,0,0,1,55.475,19.525Zm1.383-8.774a1.7,1.7,0,0,0-.387-.045,2.089,2.089,0,0,0-1.636.743,3.768,3.768,0,0,0-.848,1.933,4.694,4.694,0,0,0-.059.743,2.985,2.985,0,0,0,.506,1.77,2.107,2.107,0,0,0,1.472.862,1.9,1.9,0,0,0,.4.045,2.115,2.115,0,0,0,1.651-.758,3.748,3.748,0,0,0,.818-1.918,4.35,4.35,0,0,0,.059-.714,3.052,3.052,0,0,0-.491-1.769A2.166,2.166,0,0,0,56.858,10.75Z" style="fill:#fff"/><path d="M68.576,19.658a5.169,5.169,0,0,1-3.361-1.9,5.626,5.626,0,0,1-1.234-3.644,6.5,6.5,0,0,1,.089-1.071,6.015,6.015,0,0,1,1.837-3.606,5.068,5.068,0,0,1,3.577-1.391,5.98,5.98,0,0,1,.922.074,5.667,5.667,0,0,1,2.038.743,1.987,1.987,0,0,1,1.189,1.621,1.365,1.365,0,0,1-.379.959,1.219,1.219,0,0,1-.929.409,2.724,2.724,0,0,1-1.175-.461,3.294,3.294,0,0,0-1.2-.416,2.67,2.67,0,0,0-.4-.03,2.111,2.111,0,0,0-1.621.714,3.511,3.511,0,0,0-.833,1.9,3.916,3.916,0,0,0-.059.669,2.8,2.8,0,0,0,.506,1.71,2.184,2.184,0,0,0,1.487.877,3.241,3.241,0,0,0,.431.03,3.97,3.97,0,0,0,.974-.149,3.789,3.789,0,0,1,.811-.149,1.282,1.282,0,0,1,1.034.5,1.3,1.3,0,0,1,.3,1.093,1.651,1.651,0,0,1-1.115,1.264,5.007,5.007,0,0,1-1.918.327A5.9,5.9,0,0,1,68.576,19.658Z" style="fill:#fff"/><path d="M79.7,19.525a5.178,5.178,0,0,1-3.376-1.9,5.693,5.693,0,0,1-1.219-3.658,6.687,6.687,0,0,1,.089-1.071A6,6,0,0,1,77.031,9.3a5.05,5.05,0,0,1,3.562-1.39,5.791,5.791,0,0,1,.922.074,5.1,5.1,0,0,1,3.346,1.911,5.773,5.773,0,0,1,1.249,3.681,6.149,6.149,0,0,1-.089,1.041A6.044,6.044,0,0,1,84.191,18.2a5.029,5.029,0,0,1-3.569,1.4A5.788,5.788,0,0,1,79.7,19.525Zm1.383-8.774a1.705,1.705,0,0,0-.387-.045,2.089,2.089,0,0,0-1.636.743,3.768,3.768,0,0,0-.848,1.933,4.671,4.671,0,0,0-.059.743,2.985,2.985,0,0,0,.506,1.77,2.107,2.107,0,0,0,1.472.862,1.9,1.9,0,0,0,.4.045,2.115,2.115,0,0,0,1.651-.758A3.748,3.748,0,0,0,83,14.126a4.35,4.35,0,0,0,.059-.714,3.052,3.052,0,0,0-.491-1.769A2.166,2.166,0,0,0,81.084,10.75Z" style="fill:#fff"/><path d="M35.627,28.324a15.192,15.192,0,0,1-.074,1.947,1.145,1.145,0,0,1-.41.888,1.237,1.237,0,0,1-.925.263A1.212,1.212,0,0,1,33.374,31a1.184,1.184,0,0,1-.257-.937l.6-6.859a1.26,1.26,0,0,1,.41-.888,1.215,1.215,0,0,1,.937-.263l2.143.184a3.828,3.828,0,0,1,2.253.845,2.687,2.687,0,0,1,.845,2.106q0,.2-.012.4a2.394,2.394,0,0,1-.723,1.568,2.882,2.882,0,0,1-1.482.747l1.555,1.984a1.079,1.079,0,0,1,.257.772,1.233,1.233,0,0,1-.416.839,1.128,1.128,0,0,1-.906.3,1.158,1.158,0,0,1-.906-.514Zm1.384-3.785-.955-.086L35.921,26l.955.086q.833.073.894-.71Q37.844,24.613,37.011,24.54Z" style="fill:#fff"/><path d="M38.706,31.907c-.045,0-.09,0-.136-.007a1.257,1.257,0,0,1-.978-.557l-1.857-2.691c0,.411-.026.956-.083,1.627a1.242,1.242,0,0,1-.446.957,1.332,1.332,0,0,1-1,.285,1.313,1.313,0,0,1-.911-.457,1.284,1.284,0,0,1-.28-1.011l.6-6.856a1.359,1.359,0,0,1,.444-.954,1.321,1.321,0,0,1,1.009-.287l2.144.184a3.939,3.939,0,0,1,2.31.869,2.793,2.793,0,0,1,.878,2.18q0,.2-.012.41a2.5,2.5,0,0,1-.753,1.633,2.93,2.93,0,0,1-1.377.738l1.459,1.862a1.179,1.179,0,0,1,.278.841,1.332,1.332,0,0,1-.448.9A1.215,1.215,0,0,1,38.706,31.907Zm-3.2-3.927,2.244,3.253a1.056,1.056,0,0,0,.833.472,1.027,1.027,0,0,0,.832-.275,1.127,1.127,0,0,0,.385-.774.977.977,0,0,0-.237-.7l-1.653-2.109.156-.031a2.8,2.8,0,0,0,1.433-.721,2.31,2.31,0,0,0,.693-1.507c.008-.134.012-.266.012-.4a2.6,2.6,0,0,0-.812-2.034,3.753,3.753,0,0,0-2.2-.82l-2.143-.184a1.116,1.116,0,0,0-.864.24,1.17,1.17,0,0,0-.377.822l-.6,6.859a1.083,1.083,0,0,0,.234.865,1.107,1.107,0,0,0,.779.388,1.127,1.127,0,0,0,.854-.242,1.043,1.043,0,0,0,.374-.816,15.2,15.2,0,0,0,.074-1.937Zm1.5-1.792c-.046,0-.094,0-.144-.007l-1.053-.095.152-1.739,1.053.094a.969.969,0,0,1,.69.3.841.841,0,0,1,.159.641.78.78,0,0,1-.857.805Zm-.984-.279.858.077a.777.777,0,0,0,.581-.129.687.687,0,0,0,.206-.491.658.658,0,0,0-.114-.5.785.785,0,0,0-.556-.23h0l-.857-.077Z" style="fill:#adc8df"/><path d="M44.8,31.778l-3.1-.6a1.276,1.276,0,0,1-.741-.41,1.132,1.132,0,0,1-.288-.778.986.986,0,0,1,.037-.257L42,23.119q.221-1.127,1.2-1.127a1.809,1.809,0,0,1,.294.025l2.976.576a1.179,1.179,0,0,1,.723.41A1.177,1.177,0,0,1,47.1,24.54a1.079,1.079,0,0,1-.808.343,1.3,1.3,0,0,1-.257-.025L44.213,24.5l-.221,1.151,1.666.331a1.236,1.236,0,0,1,.735.41,1.1,1.1,0,0,1,.257.717,1.15,1.15,0,0,1-1.163,1.163,1.454,1.454,0,0,1-.257-.024l-1.678-.331-.233,1.225,1.923.38a1.1,1.1,0,0,1,.955,1.115,1.152,1.152,0,0,1-.325.82,1.075,1.075,0,0,1-.814.343A1.458,1.458,0,0,1,44.8,31.778Z" style="fill:#fff"/><path d="M45.058,31.9a1.569,1.569,0,0,1-.274-.026h0l-3.1-.6a1.377,1.377,0,0,1-.8-.441,1.234,1.234,0,0,1-.313-.843,1.087,1.087,0,0,1,.04-.283L41.9,23.1c.157-.8.593-1.206,1.3-1.206a1.948,1.948,0,0,1,.31.026l2.979.577a1.279,1.279,0,0,1,.781.446,1.276,1.276,0,0,1-.093,1.666,1.178,1.178,0,0,1-.879.373,1.4,1.4,0,0,1-.277-.026l-1.727-.336-.183.958,1.57.312a1.337,1.337,0,0,1,.791.444,1.2,1.2,0,0,1,.28.779,1.224,1.224,0,0,1-.366.9,1.255,1.255,0,0,1-1.171.34l-1.582-.312-.2,1.032,1.827.361a1.2,1.2,0,0,1,1.035,1.211,1.251,1.251,0,0,1-.351.888A1.174,1.174,0,0,1,45.058,31.9Zm-.239-.22a.994.994,0,0,0,.982-.289,1.088,1.088,0,0,0,.074-1.409,1.019,1.019,0,0,0-.651-.362l-2.02-.4.269-1.418,1.775.35a1.057,1.057,0,0,0,1-.286,1.02,1.02,0,0,0,.308-.757.992.992,0,0,0-.235-.654,1.146,1.146,0,0,0-.679-.376l-1.761-.35.258-1.344,1.921.374a1.219,1.219,0,0,0,.239.023.976.976,0,0,0,.737-.313,1.079,1.079,0,0,0,.079-1.408,1.089,1.089,0,0,0-.665-.375l-2.975-.576a1.714,1.714,0,0,0-.275-.023c-.6,0-.966.343-1.1,1.047l-1.286,6.613a.915.915,0,0,0-.035.238,1.029,1.029,0,0,0,.263.713,1.183,1.183,0,0,0,.686.379Z" style="fill:#adc8df"/><path d="M50.961,31.7a5.721,5.721,0,0,1-2.033-.355q-1.249-.465-1.249-1.323a1.2,1.2,0,0,1,.312-.827,1.042,1.042,0,0,1,.814-.349,3.335,3.335,0,0,1,1.023.239,3.341,3.341,0,0,0,1.035.239q.943,0,.943-.747,0-.367-1.066-.674a7.969,7.969,0,0,1-1.96-.747,2.229,2.229,0,0,1-1.066-2A2.839,2.839,0,0,1,48.732,22.9a3.449,3.449,0,0,1,2.327-.821,4.321,4.321,0,0,1,1.653.343q1.053.453,1.053,1.188a1.283,1.283,0,0,1-.306.845,1.014,1.014,0,0,1-.821.367,2.686,2.686,0,0,1-.808-.183,2.7,2.7,0,0,0-.821-.184q-.7,0-.7.49,0,.257,1.066.563a6.291,6.291,0,0,1,1.96.833A2.59,2.59,0,0,1,54.4,28.557a2.91,2.91,0,0,1-1.041,2.315A3.582,3.582,0,0,1,50.961,31.7Z" style="fill:#fff"/><path d="M50.961,31.8a5.847,5.847,0,0,1-2.068-.362c-.871-.325-1.313-.8-1.313-1.415a1.3,1.3,0,0,1,.337-.892,1.142,1.142,0,0,1,.888-.382A3.384,3.384,0,0,1,49.861,29a3.267,3.267,0,0,0,1,.233c.757,0,.845-.37.845-.649,0-.109-.129-.33-.994-.579a7.964,7.964,0,0,1-1.986-.759,2.331,2.331,0,0,1-1.11-2.079,2.946,2.946,0,0,1,1.051-2.341,3.561,3.561,0,0,1,2.391-.844,4.44,4.44,0,0,1,1.691.35c.74.318,1.114.748,1.114,1.279a1.384,1.384,0,0,1-.329.908,1.112,1.112,0,0,1-.9.4,2.748,2.748,0,0,1-.841-.189,2.623,2.623,0,0,0-.788-.178c-.538,0-.6.223-.6.392,0,.019.028.192.994.469a6.414,6.414,0,0,1,1.991.848,2.694,2.694,0,0,1,1.105,2.3,3.017,3.017,0,0,1-1.075,2.389A3.694,3.694,0,0,1,50.961,31.8Zm-2.156-2.854a.939.939,0,0,0-.741.316,1.1,1.1,0,0,0-.287.761c0,.531.388.933,1.185,1.231a5.649,5.649,0,0,0,2,.349A3.5,3.5,0,0,0,53.3,30.8a2.828,2.828,0,0,0,1.006-2.24,2.507,2.507,0,0,0-1.025-2.138A6.237,6.237,0,0,0,51.35,25.6c-.8-.229-1.137-.425-1.137-.658,0-.268.138-.588.8-.588a2.765,2.765,0,0,1,.853.189,2.609,2.609,0,0,0,.776.178.913.913,0,0,0,.745-.332,1.177,1.177,0,0,0,.283-.782c0-.444-.335-.814-.994-1.1a4.243,4.243,0,0,0-1.615-.335,3.37,3.37,0,0,0-2.263.8,2.757,2.757,0,0,0-.982,2.191,2.119,2.119,0,0,0,1.02,1.914,7.942,7.942,0,0,0,1.933.735c.776.223,1.137.467,1.137.768,0,.386-.181.845-1.041.845a3.392,3.392,0,0,1-1.068-.245A3.262,3.262,0,0,0,48.805,28.949Z" style="fill:#adc8df"/><path d="M58.811,28.631l-1.041.183.294,1.678a1.505,1.505,0,0,1,.025.269,1.122,1.122,0,0,1-.361.869,1.284,1.284,0,0,1-.9.331,1.146,1.146,0,0,1-.766-.276,1.256,1.256,0,0,1-.41-.778l-1.2-6.773a1.516,1.516,0,0,1-.024-.269,1.112,1.112,0,0,1,1.053-1.188l2.131-.38a4.4,4.4,0,0,1,.723-.061,3.3,3.3,0,0,1,2.125.71,3.083,3.083,0,0,1,1.109,1.935,4.057,4.057,0,0,1,.049.612,2.925,2.925,0,0,1-.79,2.064A3.517,3.517,0,0,1,58.811,28.631ZM57.966,24.5l-.931.159.343,1.96.931-.172a.844.844,0,0,0,.784-.919,1.148,1.148,0,0,0-.233-.735.873.873,0,0,0-.7-.318A.8.8,0,0,0,57.966,24.5Z" style="fill:#fff"/><path d="M56.827,32.06a1.246,1.246,0,0,1-.829-.3,1.357,1.357,0,0,1-.444-.836l-1.2-6.772a1.612,1.612,0,0,1-.026-.287,1.2,1.2,0,0,1,1.135-1.285l2.131-.38a4.541,4.541,0,0,1,.74-.063,3.408,3.408,0,0,1,2.186.732,3.191,3.191,0,0,1,1.144,1.995,4.184,4.184,0,0,1,.05.629,3.033,3.033,0,0,1-.816,2.131,3.627,3.627,0,0,1-2.069,1.1h0l-.944.167.277,1.581a1.605,1.605,0,0,1,.026.286,1.223,1.223,0,0,1-.393.942A1.385,1.385,0,0,1,56.827,32.06Zm1.506-9.724a4.292,4.292,0,0,0-.706.06l-2.13.379a1.017,1.017,0,0,0-.972,1.091,1.425,1.425,0,0,0,.023.252l1.2,6.773a1.168,1.168,0,0,0,.377.72,1.042,1.042,0,0,0,.7.252,1.192,1.192,0,0,0,.834-.305,1.019,1.019,0,0,0,.33-.8,1.4,1.4,0,0,0-.023-.252l-.311-1.776,1.137-.2a3.435,3.435,0,0,0,1.96-1.042,2.843,2.843,0,0,0,.764-2,3.983,3.983,0,0,0-.048-.6A3,3,0,0,0,60.4,23.024,3.217,3.217,0,0,0,58.334,22.336Zm-1.035,4.4-.377-2.155,1.024-.175a.9.9,0,0,1,.216-.026.971.971,0,0,1,.773.353,1.252,1.252,0,0,1,.256.8.944.944,0,0,1-.865,1.015Zm-.149-1.994.309,1.765.833-.154a.751.751,0,0,0,.7-.822,1.057,1.057,0,0,0-.212-.674.771.771,0,0,0-.621-.281.706.706,0,0,0-.172.021l-.008,0Z" style="fill:#adc8df"/><path d="M65.89,31.643a4.264,4.264,0,0,1-2.78-1.568,4.688,4.688,0,0,1-1-3.013,5.512,5.512,0,0,1,.074-.882,4.945,4.945,0,0,1,1.513-2.958,4.158,4.158,0,0,1,2.933-1.145,4.779,4.779,0,0,1,.759.061,4.2,4.2,0,0,1,2.756,1.574,4.752,4.752,0,0,1,1.029,3.031,5.045,5.045,0,0,1-.073.857,4.979,4.979,0,0,1-1.507,2.952A4.141,4.141,0,0,1,66.649,31.7,4.774,4.774,0,0,1,65.89,31.643Zm1.139-7.226a1.411,1.411,0,0,0-.319-.036,1.72,1.72,0,0,0-1.347.612,3.1,3.1,0,0,0-.7,1.592,3.876,3.876,0,0,0-.049.612,2.457,2.457,0,0,0,.416,1.457,1.733,1.733,0,0,0,1.212.71,1.574,1.574,0,0,0,.331.037,1.743,1.743,0,0,0,1.36-.624,3.091,3.091,0,0,0,.674-1.58,3.613,3.613,0,0,0,.049-.588,2.512,2.512,0,0,0-.4-1.457A1.783,1.783,0,0,0,67.029,24.417Z" style="fill:#fff"/><path d="M66.649,31.8a4.9,4.9,0,0,1-.774-.063h0a4.378,4.378,0,0,1-2.842-1.6,4.8,4.8,0,0,1-1.026-3.074,5.623,5.623,0,0,1,.075-.9,5.061,5.061,0,0,1,1.543-3.014,4.271,4.271,0,0,1,3-1.171,4.936,4.936,0,0,1,.775.062,4.316,4.316,0,0,1,2.817,1.61,4.87,4.87,0,0,1,1.05,3.092,5.173,5.173,0,0,1-.075.874,5.1,5.1,0,0,1-1.536,3.007A4.255,4.255,0,0,1,66.649,31.8Zm-.024-9.626a4.082,4.082,0,0,0-2.866,1.118,4.873,4.873,0,0,0-1.483,2.9,5.451,5.451,0,0,0-.072.867,4.614,4.614,0,0,0,.983,2.952,4.188,4.188,0,0,0,2.718,1.531h0a4.7,4.7,0,0,0,.743.06,4.063,4.063,0,0,0,2.872-1.125A4.9,4.9,0,0,0,71,27.586a4.969,4.969,0,0,0,.072-.842,4.676,4.676,0,0,0-1.008-2.97,4.125,4.125,0,0,0-2.694-1.538A4.68,4.68,0,0,0,66.625,22.176ZM66.576,29.5a1.669,1.669,0,0,1-.351-.039,1.829,1.829,0,0,1-1.272-.75,2.564,2.564,0,0,1-.434-1.514,4,4,0,0,1,.05-.628,3.212,3.212,0,0,1,.722-1.642,1.822,1.822,0,0,1,1.421-.646,1.512,1.512,0,0,1,.337.038,1.886,1.886,0,0,1,1.286.775,2.619,2.619,0,0,1,.423,1.515,3.754,3.754,0,0,1-.05.6,3.2,3.2,0,0,1-.7,1.629A1.846,1.846,0,0,1,66.576,29.5Zm.135-5.021a1.613,1.613,0,0,0-1.273.579,3.022,3.022,0,0,0-.675,1.543,3.814,3.814,0,0,0-.048.6,2.372,2.372,0,0,0,.4,1.4,1.646,1.646,0,0,0,1.147.67,1.5,1.5,0,0,0,.316.036,1.636,1.636,0,0,0,1.286-.591,3.009,3.009,0,0,0,.65-1.531,3.538,3.538,0,0,0,.048-.572,2.427,2.427,0,0,0-.387-1.4,1.694,1.694,0,0,0-1.159-.694l-.007,0A1.332,1.332,0,0,0,66.711,24.479Z" style="fill:#adc8df"/><path d="M77.868,27.124q-.245-.98-.613-3.882a2.018,2.018,0,0,1-.012-.22,1.116,1.116,0,0,1,.3-.8,1.249,1.249,0,0,1,.778-.38,1.214,1.214,0,0,1,.912.233,1.234,1.234,0,0,1,.459.869l.845,6.907a1.606,1.606,0,0,1,.012.2,1.168,1.168,0,0,1-.294.814,1.221,1.221,0,0,1-.784.386,1.126,1.126,0,0,1-.557-.079,1.393,1.393,0,0,1-.508-.312l-4.029-4.152q.245.98.612,3.833a2.025,2.025,0,0,1,.012.221,1.117,1.117,0,0,1-.3.8,1.25,1.25,0,0,1-.778.38,1.218,1.218,0,0,1-.912-.233,1.235,1.235,0,0,1-.459-.87l-.845-6.907a1.6,1.6,0,0,1-.012-.2,1.166,1.166,0,0,1,.294-.814,1.222,1.222,0,0,1,.784-.386,1.161,1.161,0,0,1,.563.08,1.276,1.276,0,0,1,.5.312Z" style="fill:#fff"/><path d="M73.748,32.046a1.283,1.283,0,0,1-.8-.263,1.335,1.335,0,0,1-.5-.936l-.845-6.908a1.71,1.71,0,0,1-.013-.208,1.267,1.267,0,0,1,.319-.88,1.323,1.323,0,0,1,.844-.418,1.276,1.276,0,0,1,.61.085,1.382,1.382,0,0,1,.54.337L77.694,26.8c-.15-.724-.33-1.913-.537-3.547a2.169,2.169,0,0,1-.013-.233,1.216,1.216,0,0,1,.327-.864,1.349,1.349,0,0,1,.837-.41,1.309,1.309,0,0,1,.984.252,1.336,1.336,0,0,1,.5.935l.845,6.908a1.724,1.724,0,0,1,.013.208,1.269,1.269,0,0,1-.319.881,1.321,1.321,0,0,1-.844.417,1.213,1.213,0,0,1-.6-.085,1.493,1.493,0,0,1-.544-.335l-3.787-3.9c.15.719.33,1.894.537,3.5a2.093,2.093,0,0,1,.013.233,1.215,1.215,0,0,1-.327.863,1.351,1.351,0,0,1-.836.41A1.669,1.669,0,0,1,73.748,32.046Zm-.855-9.425a.724.724,0,0,0-.106.007,1.135,1.135,0,0,0-.725.355,1.074,1.074,0,0,0-.269.748,1.479,1.479,0,0,0,.012.184l.845,6.907a1.131,1.131,0,0,0,.421.8,1.113,1.113,0,0,0,.842.213,1.145,1.145,0,0,0,.717-.35,1.013,1.013,0,0,0,.273-.729,2.025,2.025,0,0,0-.012-.21c-.243-1.887-.448-3.173-.61-3.82l-.089-.354,4.284,4.414a1.3,1.3,0,0,0,.472.289,1.046,1.046,0,0,0,.509.074,1.133,1.133,0,0,0,.725-.355,1.077,1.077,0,0,0,.268-.748,1.488,1.488,0,0,0-.011-.184L79.6,22.959a1.144,1.144,0,0,0-.421-.8,1.119,1.119,0,0,0-.841-.213,1.158,1.158,0,0,0-.718.35,1.012,1.012,0,0,0-.273.729,1.917,1.917,0,0,0,.012.21c.243,1.92.449,3.223.61,3.869l.09.359-4.285-4.468A1.188,1.188,0,0,0,73.3,22.7,1.219,1.219,0,0,0,72.893,22.621Z" style="fill:#adc8df"/><path d="M84.555,31.7a5.72,5.72,0,0,1-2.033-.355q-1.249-.465-1.249-1.323a1.2,1.2,0,0,1,.312-.827,1.041,1.041,0,0,1,.814-.349,3.336,3.336,0,0,1,1.023.239,3.341,3.341,0,0,0,1.035.239q.943,0,.943-.747,0-.367-1.066-.674a7.964,7.964,0,0,1-1.959-.747,2.228,2.228,0,0,1-1.066-2A2.839,2.839,0,0,1,82.326,22.9a3.45,3.45,0,0,1,2.327-.821,4.319,4.319,0,0,1,1.653.343q1.054.453,1.054,1.188a1.284,1.284,0,0,1-.306.845,1.014,1.014,0,0,1-.821.367,2.686,2.686,0,0,1-.808-.183,2.7,2.7,0,0,0-.821-.184q-.7,0-.7.49,0,.257,1.066.563a6.292,6.292,0,0,1,1.96.833A2.59,2.59,0,0,1,88,28.557a2.91,2.91,0,0,1-1.041,2.315A3.582,3.582,0,0,1,84.555,31.7Z" style="fill:#fff"/><path d="M84.555,31.8a5.847,5.847,0,0,1-2.068-.362c-.871-.324-1.313-.8-1.313-1.415a1.3,1.3,0,0,1,.337-.892,1.141,1.141,0,0,1,.888-.382A3.383,3.383,0,0,1,83.455,29a3.267,3.267,0,0,0,1,.233c.757,0,.845-.37.845-.649,0-.109-.129-.33-.995-.579a7.965,7.965,0,0,1-1.986-.759,2.331,2.331,0,0,1-1.11-2.079,2.946,2.946,0,0,1,1.051-2.341,3.562,3.562,0,0,1,2.391-.844,4.438,4.438,0,0,1,1.69.35c.74.318,1.115.748,1.115,1.279a1.385,1.385,0,0,1-.329.908,1.113,1.113,0,0,1-.9.4,2.746,2.746,0,0,1-.841-.189,2.625,2.625,0,0,0-.788-.178c-.538,0-.6.223-.6.392,0,.019.028.192.995.469a6.411,6.411,0,0,1,1.991.848,2.694,2.694,0,0,1,1.105,2.3,3.016,3.016,0,0,1-1.075,2.389A3.7,3.7,0,0,1,84.555,31.8ZM82.4,28.949a.938.938,0,0,0-.741.316,1.094,1.094,0,0,0-.287.761c0,.531.388.933,1.185,1.231a5.65,5.65,0,0,0,2,.349,3.5,3.5,0,0,0,2.337-.81,2.828,2.828,0,0,0,1.006-2.24,2.507,2.507,0,0,0-1.026-2.138,6.245,6.245,0,0,0-1.928-.818c-.8-.229-1.137-.425-1.137-.658,0-.268.138-.588.8-.588a2.764,2.764,0,0,1,.853.189,2.611,2.611,0,0,0,.776.178.912.912,0,0,0,.745-.332,1.194,1.194,0,0,0,.284-.782c0-.445-.334-.814-.994-1.1a4.241,4.241,0,0,0-1.614-.335,3.371,3.371,0,0,0-2.263.8,2.758,2.758,0,0,0-.982,2.191,2.119,2.119,0,0,0,1.021,1.914,7.925,7.925,0,0,0,1.933.735c.776.223,1.137.467,1.137.768,0,.386-.181.845-1.041.845a3.39,3.39,0,0,1-1.068-.245A3.263,3.263,0,0,0,82.4,28.949Z" style="fill:#adc8df"/><path d="M95.247,31.876a1.126,1.126,0,0,1-1-.674,11.117,11.117,0,0,1-.319-1.237l-2.952-.257a8.953,8.953,0,0,1-.527,1.151,1.109,1.109,0,0,1-1.09.5,1.244,1.244,0,0,1-.821-.41,1.071,1.071,0,0,1-.282-.863,1.287,1.287,0,0,1,.147-.49l3.025-6.43a2.05,2.05,0,0,1,.692-.808,1.5,1.5,0,0,1,1.011-.257A1.6,1.6,0,0,1,94.61,23.45L96.422,30.3a1.908,1.908,0,0,1,.074.563,1.062,1.062,0,0,1-.416.772A1.173,1.173,0,0,1,95.247,31.876Zm-2.425-6.724q-.257.772-.919,2.327l1.482.122Z" style="fill:#fff"/><path d="M95.352,31.978c-.037,0-.075,0-.113,0h0a1.223,1.223,0,0,1-1.085-.73,7.828,7.828,0,0,1-.309-1.186l-2.809-.245a6.319,6.319,0,0,1-.511,1.106,1.2,1.2,0,0,1-1.177.541,1.345,1.345,0,0,1-.885-.442,1.17,1.17,0,0,1-.307-.939,1.386,1.386,0,0,1,.157-.524l3.024-6.428a2.157,2.157,0,0,1,.725-.848A1.605,1.605,0,0,1,93.136,22a1.7,1.7,0,0,1,1.568,1.42l1.812,6.846a2.01,2.01,0,0,1,.077.594,1.165,1.165,0,0,1-.455.844A1.265,1.265,0,0,1,95.352,31.978Zm-.1-.2a1.068,1.068,0,0,0,.765-.225.96.96,0,0,0,.378-.7,1.819,1.819,0,0,0-.071-.529l-1.812-6.845a1.5,1.5,0,0,0-1.4-1.275,1.4,1.4,0,0,0-.947.24,1.964,1.964,0,0,0-.659.77L88.489,29.64a1.191,1.191,0,0,0-.138.454.971.971,0,0,0,.256.791,1.138,1.138,0,0,0,.758.379,1.007,1.007,0,0,0,1-.459,8.156,8.156,0,0,0,.517-1.134l.027-.066L94,29.874l.016.07a10.193,10.193,0,0,0,.312,1.217,1.027,1.027,0,0,0,.923.617ZM93.511,27.71l-1.751-.145.053-.125c.437-1.026.745-1.807.916-2.319l.111-.332Zm-1.464-.318,1.213.1L92.8,25.506C92.629,25.982,92.376,26.614,92.047,27.392Z" style="fill:#adc8df"/><path d="M102.142,26.254a1.631,1.631,0,0,1,1.17.551,2.255,2.255,0,0,1,.643,1.347,4.757,4.757,0,0,1,.025.478,2.611,2.611,0,0,1-.759,1.947,3.4,3.4,0,0,1-2.033.906l-2.5.306a1.338,1.338,0,0,1-.955-.226,1.166,1.166,0,0,1-.477-.839L96.422,23.9a1.149,1.149,0,0,1,.245-.937,1.281,1.281,0,0,1,.869-.435l2.327-.294q.2-.012.38-.012a2.586,2.586,0,0,1,1.678.575,2.3,2.3,0,0,1,.833,1.568,2.746,2.746,0,0,1,.025.367A2,2,0,0,1,102.142,26.254Zm-2.523-1.739-.649.086.159,1.213.637-.074a.6.6,0,0,0,.6-.747Q100.3,24.43,99.619,24.515Zm.759,3.392-.98.122.172,1.409,1.127-.147q.845-.1.747-.857-.062-.551-.8-.551A1.671,1.671,0,0,0,100.378,27.908Z" style="fill:#fff"/><path d="M98.5,31.9a1.392,1.392,0,0,1-.825-.255,1.266,1.266,0,0,1-.518-.906l-.833-6.823a1.247,1.247,0,0,1,.268-1.013,1.382,1.382,0,0,1,.933-.469l2.326-.294c.139-.009.268-.013.392-.013a2.693,2.693,0,0,1,1.74.6,2.4,2.4,0,0,1,.868,1.632,2.826,2.826,0,0,1,.025.379,2.105,2.105,0,0,1-.519,1.436,1.824,1.824,0,0,1,1.023.565,2.362,2.362,0,0,1,.671,1.4,4.876,4.876,0,0,1,.025.49,2.716,2.716,0,0,1-.788,2.017,3.512,3.512,0,0,1-2.09.934l-2.5.306A1.76,1.76,0,0,1,98.5,31.9Zm1.742-9.575c-.121,0-.245,0-.373.012l-2.321.293a1.179,1.179,0,0,0-.807.4,1.047,1.047,0,0,0-.222.861l.833,6.823a1.062,1.062,0,0,0,.437.771,1.25,1.25,0,0,0,.887.209l2.5-.306a3.323,3.323,0,0,0,1.976-.879,2.528,2.528,0,0,0,.73-1.877,4.633,4.633,0,0,0-.024-.468,2.165,2.165,0,0,0-.615-1.288,1.545,1.545,0,0,0-1.1-.522h-.248l.18-.17a1.91,1.91,0,0,0,.606-1.447,2.658,2.658,0,0,0-.024-.354,2.212,2.212,0,0,0-.8-1.5A2.5,2.5,0,0,0,100.243,22.323Zm-.759,7.226-.2-1.6,1.075-.134a1.746,1.746,0,0,1,.284-.026c.68,0,.861.347.894.639a.837.837,0,0,1-.139.643.985.985,0,0,1-.694.323Zm.023-1.434.148,1.213,1.029-.134a.8.8,0,0,0,.563-.249.65.65,0,0,0,.1-.5c-.022-.2-.119-.466-.7-.466a1.549,1.549,0,0,0-.253.023h0Zm-.464-2.193-.184-1.406.747-.1a.834.834,0,0,1,.638.122.622.622,0,0,1,.219.442.761.761,0,0,1-.122.582.805.805,0,0,1-.563.273Zm.036-1.237.134,1.019.541-.063a.621.621,0,0,0,.431-.2.578.578,0,0,0,.082-.438.431.431,0,0,0-.145-.311.658.658,0,0,0-.491-.081Z" style="fill:#adc8df"/><path d="M104.493,30.382a1.266,1.266,0,0,1,.025-.245l1.09-6.871a1.258,1.258,0,0,1,.4-.79,1.132,1.132,0,0,1,.778-.288,1.272,1.272,0,0,1,.9.337,1.144,1.144,0,0,1,.361.876,1.259,1.259,0,0,1-.025.245l-1.09,6.871a1.256,1.256,0,0,1-.4.79,1.134,1.134,0,0,1-.778.287,1.269,1.269,0,0,1-.9-.337A1.143,1.143,0,0,1,104.493,30.382Z" style="fill:#fff"/><path d="M105.755,31.692a1.369,1.369,0,0,1-.967-.363,1.242,1.242,0,0,1-.393-.947,1.364,1.364,0,0,1,.026-.264l1.089-6.867a1.36,1.36,0,0,1,.43-.848,1.232,1.232,0,0,1,.843-.312,1.371,1.371,0,0,1,.967.363,1.243,1.243,0,0,1,.393.948,1.354,1.354,0,0,1-.026.264l-1.089,6.867a1.358,1.358,0,0,1-.43.848A1.236,1.236,0,0,1,105.755,31.692Zm1.029-9.406a1.027,1.027,0,0,0-.712.263,1.171,1.171,0,0,0-.366.731l-1.09,6.872a1.189,1.189,0,0,0-.023.23,1.04,1.04,0,0,0,.33.8,1.163,1.163,0,0,0,.833.31,1.029,1.029,0,0,0,.712-.263,1.167,1.167,0,0,0,.366-.73l1.09-6.872a1.182,1.182,0,0,0,.023-.23,1.041,1.041,0,0,0-.33-.8A1.166,1.166,0,0,0,106.783,22.287Z" style="fill:#adc8df"/><path d="M112.7,31.68l-3.05-.269a1.188,1.188,0,0,1-.882-.441,1.35,1.35,0,0,1-.257-.98l.588-6.809a1.215,1.215,0,0,1,.428-.876,1.2,1.2,0,0,1,.907-.263,1.169,1.169,0,0,1,.845.41,1.24,1.24,0,0,1,.269.949l-.514,5.817,1.862.159a1.166,1.166,0,0,1,.808.373,1.115,1.115,0,0,1,.282.753,1.169,1.169,0,0,1-.331.845A1.129,1.129,0,0,1,112.7,31.68Z" style="fill:#fff"/><path d="M112.83,31.784c-.045,0-.091,0-.139-.006h0l-3.05-.269a1.288,1.288,0,0,1-.95-.478,1.452,1.452,0,0,1-.278-1.049l.588-6.81a1.283,1.283,0,0,1,1.442-1.229,1.267,1.267,0,0,1,.91.444,1.34,1.34,0,0,1,.292,1.021l-.506,5.719,1.763.151a1.266,1.266,0,0,1,.874.407,1.216,1.216,0,0,1,.306.818,1.269,1.269,0,0,1-.358.913A1.2,1.2,0,0,1,112.83,31.784Zm-.122-.2a1.025,1.025,0,0,0,.876-.3,1.064,1.064,0,0,0,.3-.776,1.012,1.012,0,0,0-.258-.689,1.076,1.076,0,0,0-.743-.34l-1.959-.168.523-5.916a1.135,1.135,0,0,0-.246-.877,1.065,1.065,0,0,0-.777-.376,1.1,1.1,0,0,0-.838.241,1.113,1.113,0,0,0-.393.808L108.608,30a1.26,1.26,0,0,0,.237.911,1.084,1.084,0,0,0,.813.4Z" style="fill:#adc8df"/><path d="M118.6,31.778l-3.1-.6a1.275,1.275,0,0,1-.741-.41,1.132,1.132,0,0,1-.288-.778.994.994,0,0,1,.036-.257l1.286-6.613q.221-1.127,1.2-1.127a1.813,1.813,0,0,1,.294.025l2.976.576a1.179,1.179,0,0,1,.723.41,1.177,1.177,0,0,1-.086,1.537,1.079,1.079,0,0,1-.808.343,1.3,1.3,0,0,1-.258-.025l-1.825-.355-.22,1.151,1.665.331a1.236,1.236,0,0,1,.735.41,1.1,1.1,0,0,1,.257.717,1.15,1.15,0,0,1-1.163,1.163,1.452,1.452,0,0,1-.257-.024l-1.678-.331-.233,1.225,1.923.38A1.1,1.1,0,0,1,120,30.639a1.152,1.152,0,0,1-.324.82,1.075,1.075,0,0,1-.814.343A1.458,1.458,0,0,1,118.6,31.778Z" style="fill:#fff"/><path d="M118.859,31.9a1.567,1.567,0,0,1-.274-.026h0l-3.1-.6a1.377,1.377,0,0,1-.8-.441,1.235,1.235,0,0,1-.312-.843,1.092,1.092,0,0,1,.04-.283L115.7,23.1c.157-.8.593-1.206,1.3-1.206a1.949,1.949,0,0,1,.31.026l2.979.577a1.28,1.28,0,0,1,.781.446,1.275,1.275,0,0,1-.093,1.666,1.178,1.178,0,0,1-.879.373,1.4,1.4,0,0,1-.277-.026l-1.727-.336-.183.958,1.57.312a1.336,1.336,0,0,1,.791.444,1.2,1.2,0,0,1,.28.779,1.224,1.224,0,0,1-.366.9,1.256,1.256,0,0,1-1.17.34l-1.583-.312-.2,1.032,1.827.361a1.2,1.2,0,0,1,1.034,1.211,1.253,1.253,0,0,1-.351.888A1.174,1.174,0,0,1,118.859,31.9Zm-.239-.22a.993.993,0,0,0,.982-.289,1.088,1.088,0,0,0,.074-1.409,1.02,1.02,0,0,0-.651-.362l-2.02-.4.269-1.418,1.775.35a1.06,1.06,0,0,0,.995-.286,1.021,1.021,0,0,0,.308-.757.993.993,0,0,0-.235-.654,1.147,1.147,0,0,0-.679-.376l-1.761-.35.257-1.344,1.921.374a1.221,1.221,0,0,0,.239.023.976.976,0,0,0,.737-.313,1.079,1.079,0,0,0,.079-1.408,1.091,1.091,0,0,0-.665-.375l-2.975-.576A1.714,1.714,0,0,0,117,22.09c-.6,0-.966.343-1.1,1.047l-1.286,6.613a.932.932,0,0,0-.035.238,1.028,1.028,0,0,0,.263.713,1.18,1.18,0,0,0,.686.379Z" style="fill:#adc8df"/><path d="M21.733,25.986a1.553,1.553,0,0,1-1.81,1.243h0a1.549,1.549,0,0,1-1.239-1.809l.123-.679A1.553,1.553,0,0,1,20.616,23.5h0A1.556,1.556,0,0,1,21.86,25.31Z" style="fill:#fff"/><path d="M20.339,25.868l-8.35-1.552.155-1.71c2.15-.65,3.589-7.181,3.589-7.181.824-4.427,5.709-4.647,5.709-4.647.459-2.467,1.97-2.3,1.97-2.3M20.339,25.868l8.35,1.552.155-.834c-1.773-1.381-.765-8.868-.765-8.868.823-4.427-3.66-6.389-3.66-6.389.458-2.466-1.006-2.853-1.006-2.853" style="fill:#fff"/><path d="M22.2,23.643l7.683.775.079-.766c-1.712-1.118-1.3-7.184-1.3-7.184.414-4.074-3.794-5.511-3.794-5.511.226-2.269-1.132-2.508-1.132-2.508h-.466s-1.378-.039-1.608,2.231c0,0-4.412.568-4.821,4.641,0,0-.812,6.028-2.708,6.78l-.079.768,7.681.775" style="fill:#fff"/><path d="M30.056,24.634l-7.878-.8.04-.391,7.488.755.047-.458c-1.674-1.32-1.307-7.043-1.29-7.29.394-3.881-3.62-5.3-3.661-5.312l-.147-.05.015-.155c.2-2.043-.925-2.286-.973-2.3l-.43,0c-.061-.005-1.206.015-1.412,2.054l-.016.155-.155.02c-.174.022-4.262.6-4.65,4.465-.034.253-.82,5.936-2.719,6.893l-.047.459,7.485.755-.04.391-7.877-.795.111-1.082.111-.044c1.467-.582,2.364-4.978,2.585-6.623.374-3.734,4.037-4.631,4.837-4.783.291-2.276,1.732-2.257,1.792-2.259h.46c.095.014,1.508.29,1.341,2.575.753.308,4.161,1.92,3.781,5.661-.111,1.649-.112,6.134,1.213,7l.1.066Z" style="fill:#fff"/><g style="clip-path:url(#clip-path-2)"><polygon points="20.187 25.565 22.286 25.777 20.187 25.777 20.187 25.565" style="fill:#008bc6"/><polygon points="20.187 25.525 22.685 25.777 22.286 25.777 20.187 25.565 20.187 25.525" style="fill:#008bc6"/><polygon points="20.187 25.484 23.085 25.777 22.685 25.777 20.187 25.525 20.187 25.484" style="fill:#0189c4"/><polygon points="20.187 25.444 23.213 25.75 23.213 25.777 23.085 25.777 20.187 25.484 20.187 25.444" style="fill:#0287c2"/><polygon points="20.187 25.404 23.213 25.709 23.213 25.75 20.187 25.444 20.187 25.404" style="fill:#0385c1"/><polygon points="20.187 25.364 23.213 25.669 23.213 25.709 20.187 25.404 20.187 25.364" style="fill:#0482bf"/><polygon points="20.187 25.323 23.213 25.629 23.213 25.669 20.187 25.364 20.187 25.323" style="fill:#0580bd"/><polygon points="20.187 25.283 23.213 25.588 23.213 25.629 20.187 25.323 20.187 25.283" style="fill:#067ebc"/><polygon points="20.187 25.243 23.213 25.548 23.213 25.588 20.187 25.283 20.187 25.243" style="fill:#077cba"/><polygon points="20.187 25.202 23.213 25.508 23.213 25.548 20.187 25.243 20.187 25.202" style="fill:#087ab8"/><polygon points="20.187 25.162 23.213 25.467 23.213 25.508 20.187 25.202 20.187 25.162" style="fill:#0978b7"/><polygon points="20.187 25.122 23.213 25.427 23.213 25.467 20.187 25.162 20.187 25.122" style="fill:#0a76b5"/><polygon points="20.187 25.081 23.213 25.387 23.213 25.427 20.187 25.122 20.187 25.081" style="fill:#0b75b4"/><polygon points="20.187 25.041 23.213 25.347 23.213 25.387 20.187 25.081 20.187 25.041" style="fill:#0c73b2"/><polygon points="20.187 25.001 23.213 25.306 23.213 25.347 20.187 25.041 20.187 25.001" style="fill:#0d71b1"/><polygon points="20.187 24.96 23.213 25.266 23.213 25.306 20.187 25.001 20.187 24.96" style="fill:#0e6faf"/><polygon points="20.187 24.92 23.213 25.226 23.213 25.266 20.187 24.96 20.187 24.92" style="fill:#0e6dae"/><polygon points="20.187 24.88 23.213 25.185 23.213 25.226 20.187 24.92 20.187 24.88" style="fill:#0f6cac"/><polygon points="20.187 24.84 23.213 25.145 23.213 25.185 20.187 24.88 20.187 24.84" style="fill:#106aab"/><polygon points="20.187 24.799 23.213 25.105 23.213 25.145 20.187 24.84 20.187 24.799" style="fill:#1168aa"/><polygon points="20.187 24.759 23.213 25.064 23.213 25.105 20.187 24.799 20.187 24.759" style="fill:#1267a8"/><polygon points="20.187 24.719 23.213 25.024 23.213 25.064 20.187 24.759 20.187 24.719" style="fill:#1365a7"/><polygon points="20.187 24.678 23.213 24.984 23.213 25.024 20.187 24.719 20.187 24.678" style="fill:#1363a6"/><polygon points="20.187 24.638 23.213 24.944 23.213 24.984 20.187 24.678 20.187 24.638" style="fill:#1462a4"/><polygon points="20.187 24.598 23.213 24.903 23.213 24.944 20.187 24.638 20.187 24.598" style="fill:#1560a3"/><polygon points="20.187 24.557 23.213 24.863 23.213 24.903 20.187 24.598 20.187 24.557" style="fill:#165fa2"/><polygon points="20.187 24.517 23.213 24.823 23.213 24.863 20.187 24.557 20.187 24.517" style="fill:#165da1"/><polygon points="20.187 24.477 23.213 24.782 23.213 24.823 20.187 24.517 20.187 24.477" style="fill:#175ca0"/><polygon points="20.187 24.437 23.213 24.742 23.213 24.782 20.187 24.477 20.187 24.437" style="fill:#185a9e"/><polygon points="20.187 24.396 23.213 24.702 23.213 24.742 20.187 24.437 20.187 24.396" style="fill:#18599d"/><polygon points="20.187 24.356 23.213 24.661 23.213 24.702 20.187 24.396 20.187 24.356" style="fill:#19589c"/><polygon points="20.187 24.316 23.213 24.621 23.213 24.661 20.187 24.356 20.187 24.316" style="fill:#1a569b"/><polygon points="20.187 24.275 23.213 24.581 23.213 24.621 20.187 24.316 20.187 24.275" style="fill:#1a559a"/><polygon points="20.187 24.235 23.213 24.541 23.213 24.581 20.187 24.275 20.187 24.235" style="fill:#1b5499"/><polygon points="20.187 24.195 23.213 24.5 23.213 24.541 20.187 24.235 20.187 24.195" style="fill:#1c5398"/><polygon points="20.187 24.154 23.213 24.46 23.213 24.5 20.187 24.195 20.187 24.154" style="fill:#1c5197"/><polygon points="20.187 24.114 23.213 24.42 23.213 24.46 20.187 24.154 20.187 24.114" style="fill:#1d5096"/><polygon points="20.187 24.074 23.213 24.379 23.213 24.42 20.187 24.114 20.187 24.074" style="fill:#1d4f95"/><polygon points="20.187 24.034 23.213 24.339 23.213 24.379 20.187 24.074 20.187 24.034" style="fill:#1e4e94"/><polygon points="20.187 23.993 23.213 24.299 23.213 24.339 20.187 24.034 20.187 23.993" style="fill:#1e4d93"/><polygon points="20.187 23.953 23.213 24.258 23.213 24.299 20.187 23.993 20.187 23.953" style="fill:#1f4c92"/><polygon points="20.187 23.913 23.213 24.218 23.213 24.258 20.187 23.953 20.187 23.913" style="fill:#1f4b92"/><polygon points="20.187 23.872 23.213 24.178 23.213 24.218 20.187 23.913 20.187 23.872" style="fill:#204a91"/><polygon points="20.187 23.832 23.213 24.138 23.213 24.178 20.187 23.872 20.187 23.832" style="fill:#204990"/><polygon points="20.187 23.792 23.213 24.097 23.213 24.138 20.187 23.832 20.187 23.792" style="fill:#21488f"/><polygon points="20.187 23.751 23.213 24.057 23.213 24.097 20.187 23.792 20.187 23.751" style="fill:#21478e"/><polygon points="20.187 23.711 23.213 24.017 23.213 24.057 20.187 23.751 20.187 23.711" style="fill:#22468e"/><polygon points="20.187 23.671 23.213 23.976 23.213 24.017 20.187 23.711 20.187 23.671" style="fill:#22458d"/><polygon points="20.187 23.631 23.213 23.936 23.213 23.976 20.187 23.671 20.187 23.631" style="fill:#23448c"/><polygon points="20.187 23.59 23.213 23.896 23.213 23.936 20.187 23.631 20.187 23.59" style="fill:#23438b"/><polygon points="20.187 23.55 23.213 23.855 23.213 23.896 20.187 23.59 20.187 23.55" style="fill:#24428b"/><polygon points="20.187 23.51 23.213 23.815 23.213 23.855 20.187 23.55 20.187 23.51" style="fill:#24418a"/><polygon points="20.187 23.469 23.213 23.775 23.213 23.815 20.187 23.51 20.187 23.469" style="fill:#24418a"/><polygon points="20.187 23.429 23.213 23.734 23.213 23.775 20.187 23.469 20.187 23.429" style="fill:#254089"/><polygon points="20.187 23.389 23.213 23.694 23.213 23.734 20.187 23.429 20.187 23.389" style="fill:#253f88"/><polygon points="20.187 23.348 23.213 23.654 23.213 23.694 20.187 23.389 20.187 23.348" style="fill:#253f88"/><polygon points="20.187 23.308 23.213 23.614 23.213 23.654 20.187 23.348 20.187 23.308" style="fill:#263e87"/><polygon points="20.187 23.268 23.213 23.573 23.213 23.614 20.187 23.308 20.187 23.268" style="fill:#263d87"/><polygon points="20.187 23.228 23.213 23.533 23.213 23.573 20.187 23.268 20.187 23.228" style="fill:#263d86"/><polygon points="20.187 23.187 23.213 23.493 23.213 23.533 20.187 23.228 20.187 23.187" style="fill:#273c86"/><polygon points="20.187 23.147 23.213 23.452 23.213 23.493 20.187 23.187 20.187 23.147" style="fill:#273c85"/><polygon points="20.187 23.107 23.213 23.412 23.213 23.452 20.187 23.147 20.187 23.107" style="fill:#273b85"/><polygon points="20.187 23.066 23.213 23.372 23.213 23.412 20.187 23.107 20.187 23.066" style="fill:#273a84"/><polygon points="20.187 23.026 23.213 23.331 23.213 23.372 20.187 23.066 20.187 23.026" style="fill:#283a84"/><polygon points="20.187 22.986 23.213 23.291 23.213 23.331 20.187 23.026 20.187 22.986" style="fill:#283a84"/><polygon points="20.187 22.945 23.213 23.251 23.213 23.291 20.187 22.986 20.187 22.945" style="fill:#283983"/><polygon points="20.187 22.905 23.213 23.211 23.213 23.251 20.187 22.945 20.187 22.905" style="fill:#283983"/><polygon points="20.187 22.865 23.213 23.17 23.213 23.211 20.187 22.905 20.187 22.865" style="fill:#283883"/><polygon points="20.187 22.825 23.213 23.13 23.213 23.17 20.187 22.865 20.187 22.825" style="fill:#293882"/><polygon points="20.187 22.784 23.213 23.09 23.213 23.13 20.187 22.825 20.187 22.784" style="fill:#293882"/><polygon points="20.187 22.744 23.213 23.049 23.213 23.09 20.187 22.784 20.187 22.744" style="fill:#293782"/><polygon points="20.187 22.704 23.213 23.009 23.213 23.049 20.187 22.744 20.187 22.704" style="fill:#293782"/><polygon points="20.187 22.663 23.213 22.969 23.213 23.009 20.187 22.704 20.187 22.663" style="fill:#293781"/><polygon points="20.187 22.623 23.213 22.928 23.213 22.969 20.187 22.663 20.187 22.623" style="fill:#293681"/><polygon points="20.187 22.583 23.213 22.888 23.213 22.928 20.187 22.623 20.187 22.583" style="fill:#293681"/><polygon points="20.187 22.542 23.213 22.848 23.213 22.888 20.187 22.583 20.187 22.542" style="fill:#2a3681"/><polygon points="20.187 22.502 23.213 22.808 23.213 22.848 20.187 22.542 20.187 22.502" style="fill:#2a3681"/><polygon points="20.187 22.462 23.213 22.767 23.213 22.808 20.187 22.502 20.187 22.462" style="fill:#2a3681"/><polygon points="20.187 22.422 23.213 22.727 23.213 22.767 20.187 22.462 20.187 22.422" style="fill:#2a3680"/><polygon points="20.187 22.381 23.213 22.687 23.213 22.727 20.187 22.422 20.187 22.381" style="fill:#2a3580"/><polygon points="20.187 22.341 23.213 22.646 23.213 22.687 20.187 22.381 20.187 22.341" style="fill:#2a3580"/><polygon points="20.187 22.301 23.213 22.606 23.213 22.646 20.187 22.341 20.187 22.301" style="fill:#2a3580"/><polygon points="20.187 22.26 23.213 22.566 23.213 22.606 20.187 22.301 20.187 22.26" style="fill:#2a3580"/><polygon points="20.187 22.22 23.213 22.525 23.213 22.566 20.187 22.26 20.187 22.22" style="fill:#2a3580"/><polygon points="20.314 22.193 23.213 22.485 23.213 22.525 20.187 22.22 20.187 22.193 20.314 22.193" style="fill:#2a3580"/><polygon points="20.713 22.193 23.213 22.445 23.213 22.485 20.314 22.193 20.713 22.193" style="fill:#2a3580"/><polygon points="21.113 22.193 23.213 22.405 23.213 22.445 20.713 22.193 21.113 22.193" style="fill:#2a3580"/><polygon points="23.213 22.405 21.113 22.193 23.213 22.193 23.213 22.405" style="fill:#2a3580"/></g><g style="clip-path:url(#clip-path-3)"><rect x="21.788" y="8.955" width="7.619" height="15.199" style="fill:#2a3580"/><path d="M29.9,16.92a7.425,7.425,0,0,1-10.944,5.768h2.439V9.081H20.329A7.425,7.425,0,0,1,29.9,16.92Z" style="fill:#2a3580"/><path d="M29.838,16.913a7.362,7.362,0,0,1-10.852,5.719h2.409V9.141H20.348a7.362,7.362,0,0,1,9.49,7.772Z" style="fill:#293681"/><path d="M29.776,16.907a7.3,7.3,0,0,1-10.759,5.671h2.379V9.2H20.366a7.3,7.3,0,0,1,9.409,7.706Z" style="fill:#293782"/><path d="M29.713,16.9a7.237,7.237,0,0,1-10.667,5.622h2.349V9.261h-1.01a7.237,7.237,0,0,1,9.329,7.64Z" style="fill:#283882"/><path d="M29.651,16.894a7.174,7.174,0,0,1-10.575,5.573h2.319V9.321H20.4a7.174,7.174,0,0,1,9.248,7.574Z" style="fill:#283983"/><path d="M29.589,16.888a7.112,7.112,0,0,1-10.482,5.525h2.288V9.38h-.973a7.112,7.112,0,0,1,9.167,7.508Z" style="fill:#273a84"/><path d="M29.526,16.882a7.049,7.049,0,0,1-10.39,5.476h2.258V9.44H20.44a7.049,7.049,0,0,1,9.086,7.442Z" style="fill:#273b85"/><path d="M29.464,16.876a6.987,6.987,0,0,1-10.3,5.427h2.228V9.5h-.936a6.987,6.987,0,0,1,9.006,7.375Z" style="fill:#263c86"/><path d="M29.4,16.869A6.924,6.924,0,0,1,19.2,22.248h2.2V9.56h-.918A6.924,6.924,0,0,1,29.4,16.869Z" style="fill:#263d87"/><path d="M29.339,16.863a6.861,6.861,0,0,1-10.113,5.33h2.168V9.62h-.9a6.861,6.861,0,0,1,8.844,7.243Z" style="fill:#253e87"/><path d="M29.277,16.857a6.8,6.8,0,0,1-10.021,5.281h2.138V9.68h-.881a6.8,6.8,0,0,1,8.763,7.177Z" style="fill:#253f88"/><path d="M29.215,16.85a6.736,6.736,0,0,1-9.928,5.233h2.108V9.74h-.863a6.736,6.736,0,0,1,8.683,7.111Z" style="fill:#244089"/><path d="M29.152,16.844a6.673,6.673,0,0,1-9.836,5.184h2.078V9.8h-.844a6.673,6.673,0,0,1,8.6,7.045Z" style="fill:#24418a"/><path d="M29.09,16.838a6.611,6.611,0,0,1-9.743,5.135h2.048V9.859h-.826a6.611,6.611,0,0,1,8.521,6.979Z" style="fill:#23428b"/><path d="M29.028,16.832a6.548,6.548,0,0,1-9.651,5.087h2.018v-12h-.807a6.548,6.548,0,0,1,8.44,6.912Z" style="fill:#22438b"/><path d="M28.966,16.825a6.485,6.485,0,0,1-9.559,5.038h1.988V9.979h-.789a6.485,6.485,0,0,1,8.359,6.846Z" style="fill:#22448c"/><path d="M28.9,16.819a6.423,6.423,0,0,1-9.466,4.989h1.958V10.039h-.77a6.423,6.423,0,0,1,8.279,6.78Z" style="fill:#21458d"/><path d="M28.841,16.813a6.36,6.36,0,0,1-9.374,4.941h1.928V10.1h-.752a6.36,6.36,0,0,1,8.2,6.714Z" style="fill:#21468e"/><path d="M28.779,16.806A6.3,6.3,0,0,1,19.5,21.7h1.9V10.159h-.733a6.3,6.3,0,0,1,8.117,6.648Z" style="fill:#20478f"/><path d="M28.716,16.8a6.235,6.235,0,0,1-9.189,4.843h1.868V10.218H20.68A6.235,6.235,0,0,1,28.716,16.8Z" style="fill:#204890"/><path d="M28.654,16.794a6.172,6.172,0,0,1-9.1,4.795h1.838V10.278h-.7a6.172,6.172,0,0,1,7.956,6.515Z" style="fill:#1f4990"/><path d="M28.592,16.787a6.109,6.109,0,0,1-9,4.746h1.808V11.445h-2.74a6.106,6.106,0,0,1,9.937,5.342Z" style="fill:#1f4a91"/><path d="M28.529,16.781a6.047,6.047,0,0,1-8.912,4.7h1.778V11.494h-2.7a6.043,6.043,0,0,1,9.835,5.287Z" style="fill:#1e4b92"/><path d="M28.467,16.775a5.984,5.984,0,0,1-8.82,4.649h1.748V11.542H18.734a5.981,5.981,0,0,1,9.733,5.233Z" style="fill:#1e4c93"/><path d="M28.4,16.769a5.921,5.921,0,0,1-8.728,4.6h1.718V11.591H18.773A5.918,5.918,0,0,1,28.4,16.769Z" style="fill:#1d4d94"/><path d="M28.342,16.762a5.859,5.859,0,0,1-8.635,4.551h1.688V11.639H18.813a5.855,5.855,0,0,1,9.53,5.123Z" style="fill:#1d4e95"/><path d="M28.28,16.756a5.8,5.8,0,0,1-8.543,4.5h1.657V11.688H18.853a5.793,5.793,0,0,1,9.428,5.068Z" style="fill:#1c4f95"/><path d="M28.218,16.75a5.733,5.733,0,0,1-8.45,4.454h1.627V11.736h-2.5a5.73,5.73,0,0,1,9.326,5.014Z" style="fill:#1b5096"/><path d="M28.156,16.743A5.671,5.671,0,0,1,19.8,21.149h1.6V11.785H18.932a5.668,5.668,0,0,1,9.224,4.959Z" style="fill:#1b5197"/><path d="M28.093,16.737a5.608,5.608,0,0,1-8.266,4.357h1.567v-9.26H18.971a5.6,5.6,0,0,1,9.122,4.9Z" style="fill:#1a5298"/><path d="M28.031,16.731a5.545,5.545,0,0,1-8.173,4.308h1.537V11.882H19.011a5.542,5.542,0,0,1,9.02,4.849Z" style="fill:#1a5399"/><path d="M27.969,16.725a5.483,5.483,0,0,1-8.081,4.259h1.507V11.93H19.051a5.48,5.48,0,0,1,8.918,4.794Z" style="fill:#195499"/><path d="M27.906,16.718a5.42,5.42,0,0,1-7.989,4.211h1.477v-8.95h-2.3a5.417,5.417,0,0,1,8.816,4.74Z" style="fill:#19559a"/><path d="M27.844,16.712a5.357,5.357,0,0,1-7.9,4.162h1.447V12.027H19.13a5.354,5.354,0,0,1,8.714,4.685Z" style="fill:#18569b"/><path d="M27.782,16.706a5.295,5.295,0,0,1-7.8,4.113h1.417V12.076H19.169a5.292,5.292,0,0,1,8.612,4.63Z" style="fill:#18579c"/><path d="M27.719,16.7a5.232,5.232,0,0,1-7.712,4.064h1.387v-8.64H19.209a5.229,5.229,0,0,1,8.51,4.575Z" style="fill:#17589d"/><path d="M27.657,16.693a5.169,5.169,0,0,1-7.619,4.016h1.357V12.173H19.249a5.167,5.167,0,0,1,8.408,4.52Z" style="fill:#17599e"/><path d="M27.595,16.687a5.107,5.107,0,0,1-7.527,3.967h1.327V12.221H19.288a5.1,5.1,0,0,1,8.307,4.466Z" style="fill:#165a9e"/><path d="M27.532,16.681A5.044,5.044,0,0,1,20.1,20.6h1.3V12.27H19.328a5.041,5.041,0,0,1,8.2,4.411Z" style="fill:#165b9f"/><path d="M27.47,16.674a4.979,4.979,0,0,1-8.81,2.649h2.734V12.318H19.367a4.979,4.979,0,0,1,8.1,4.356Z" style="fill:#155da0"/><path d="M27.408,16.668a4.916,4.916,0,0,1-8.7,2.616h2.686V12.367H19.407a4.916,4.916,0,0,1,8,4.3Z" style="fill:#145ea1"/><path d="M27.346,16.662a4.853,4.853,0,0,1-8.588,2.583h2.637V12.415H19.447a4.853,4.853,0,0,1,7.9,4.246Z" style="fill:#145fa2"/><path d="M27.283,16.655A4.791,4.791,0,0,1,18.806,19.2h2.589V12.464H19.486a4.791,4.791,0,0,1,7.8,4.192Z" style="fill:#1360a2"/><path d="M27.221,16.649a4.728,4.728,0,0,1-8.366,2.516h2.54V12.512H19.526a4.728,4.728,0,0,1,7.7,4.137Z" style="fill:#1361a3"/><path d="M27.159,16.643A4.666,4.666,0,0,1,18.9,19.126h2.492V12.561H19.566a4.666,4.666,0,0,1,7.593,4.082Z" style="fill:#1262a4"/><path d="M27.1,16.637a4.6,4.6,0,0,1-8.145,2.449h2.443V12.609h-1.79A4.6,4.6,0,0,1,27.1,16.637Z" style="fill:#1263a5"/><path d="M27.034,16.63A4.54,4.54,0,0,1,19,19.046h2.395V12.658h-1.75a4.54,4.54,0,0,1,7.389,3.972Z" style="fill:#1164a6"/><path d="M26.972,16.624a4.478,4.478,0,0,1-7.923,2.383h2.346v-6.3h-1.71a4.478,4.478,0,0,1,7.287,3.918Z" style="fill:#1165a7"/><path d="M26.909,16.618A4.415,4.415,0,0,1,19.1,18.967h2.3V12.755H19.724a4.415,4.415,0,0,1,7.185,3.863Z" style="fill:#1066a7"/><path d="M26.847,16.611a4.352,4.352,0,0,1-7.7,2.316h2.249V12.8H19.764a4.352,4.352,0,0,1,7.083,3.808Z" style="fill:#1067a8"/><path d="M26.785,16.605a4.29,4.29,0,0,1-7.591,2.283h2.2V12.852H19.8a4.29,4.29,0,0,1,6.982,3.753Z" style="fill:#0f68a9"/><path d="M26.722,16.6a4.227,4.227,0,0,1-7.48,2.249h2.152V12.9H19.843a4.227,4.227,0,0,1,6.88,3.7Z" style="fill:#0f69aa"/><path d="M26.66,16.593a4.165,4.165,0,0,1-7.369,2.216h2.1v-5.86H19.882a4.165,4.165,0,0,1,6.778,3.644Z" style="fill:#0e6aab"/><path d="M26.6,16.586a4.1,4.1,0,0,1-7.258,2.183h2.055V13H19.922A4.1,4.1,0,0,1,26.6,16.586Z" style="fill:#0d6bab"/><path d="M26.536,16.58a4.039,4.039,0,0,1-7.147,2.149h2.007V13.046H19.962a4.039,4.039,0,0,1,6.574,3.534Z" style="fill:#0d6cac"/><path d="M26.473,16.574a3.977,3.977,0,0,1-7.037,2.116h1.958v-5.6H20a3.977,3.977,0,0,1,6.472,3.479Z" style="fill:#0c6dad"/><path d="M26.411,16.567a3.914,3.914,0,0,1-6.926,2.083h1.91V13.143H20.041a3.914,3.914,0,0,1,6.37,3.425Z" style="fill:#0c6eae"/><path d="M26.349,16.561a3.851,3.851,0,0,1-6.815,2.049h1.861V15.788h-2.71a3.851,3.851,0,1,1,7.664.773Z" style="fill:#0b6faf"/><path d="M26.286,16.555a3.789,3.789,0,0,1-6.7,2.016h1.813V15.794H18.747a3.789,3.789,0,0,1,7.539.761Z" style="fill:#0b70b0"/><path d="M26.224,16.549a3.726,3.726,0,0,1-6.593,1.983h1.764V15.8H18.809a3.726,3.726,0,1,1,7.415.748Z" style="fill:#0a71b0"/><circle cx="22.517" cy="16.174" r="3.664" transform="translate(4.163 36.953) rotate(-84.238)" style="fill:#0a72b1"/><circle cx="22.517" cy="16.174" r="3.601" transform="translate(4.163 36.953) rotate(-84.238)" style="fill:#0973b2"/><circle cx="22.517" cy="16.174" r="3.538" transform="translate(4.163 36.953) rotate(-84.238)" style="fill:#0974b3"/><circle cx="22.517" cy="16.174" r="3.476" transform="translate(4.163 36.953) rotate(-84.238)" style="fill:#0875b4"/><circle cx="22.517" cy="16.174" r="3.413" transform="translate(4.163 36.953) rotate(-84.238)" style="fill:#0876b5"/><circle cx="22.517" cy="16.174" r="3.35" transform="translate(4.163 36.953) rotate(-84.238)" style="fill:#0777b5"/><circle cx="22.517" cy="16.174" r="3.288" transform="translate(4.163 36.953) rotate(-84.238)" style="fill:#0678b6"/><circle cx="22.517" cy="16.174" r="3.225" transform="translate(4.163 36.953) rotate(-84.238)" style="fill:#0679b7"/><circle cx="22.517" cy="16.174" r="3.163" transform="translate(4.163 36.953) rotate(-84.238)" style="fill:#057ab8"/><circle cx="22.517" cy="16.174" r="3.1" transform="translate(4.163 36.953) rotate(-84.238)" style="fill:#057bb9"/><circle cx="22.517" cy="16.174" r="3.037" transform="translate(4.163 36.953) rotate(-84.238)" style="fill:#047cb9"/><circle cx="22.517" cy="16.174" r="2.975" transform="translate(4.163 36.953) rotate(-84.238)" style="fill:#047dba"/><circle cx="22.517" cy="16.174" r="2.912" transform="translate(4.163 36.953) rotate(-84.238)" style="fill:#037ebb"/><circle cx="22.517" cy="16.174" r="2.849" transform="translate(4.163 36.953) rotate(-84.238)" style="fill:#037fbc"/><circle cx="22.517" cy="16.174" r="2.787" transform="translate(4.163 36.953) rotate(-84.238)" style="fill:#0280bd"/><circle cx="22.517" cy="16.174" r="2.724" transform="translate(4.163 36.953) rotate(-84.238)" style="fill:#0281be"/><circle cx="22.517" cy="16.174" r="2.662" transform="translate(4.163 36.953) rotate(-84.238)" style="fill:#0182be"/><circle cx="22.517" cy="16.174" r="2.599" transform="translate(4.163 36.953) rotate(-84.238)" style="fill:#0183bf"/><circle cx="22.517" cy="16.174" r="2.536" transform="translate(4.163 36.953) rotate(-84.238)" style="fill:#0084c0"/><rect x="14.244" y="8.914" width="9" height="14.479" style="fill:#2a3580"/><path d="M23.637,16.92v6.348H24.7A7.421,7.421,0,1,1,26.077,9.661h-2.44Z" style="fill:#2a3580"/><path d="M23.637,16.913v6.295h1.049A7.358,7.358,0,1,1,26.047,9.716h-2.41Z" style="fill:#293681"/><path d="M23.637,16.907v6.241h1.03a7.3,7.3,0,1,1,1.35-13.377h-2.38Z" style="fill:#293782"/><path d="M23.637,16.9v6.188h1.012A7.233,7.233,0,1,1,25.987,9.826h-2.35Z" style="fill:#283882"/><path d="M23.637,16.894v6.134h.993A7.171,7.171,0,1,1,25.957,9.881h-2.32Z" style="fill:#283983"/><path d="M23.637,16.888v6.08h.975A7.108,7.108,0,1,1,25.927,9.936h-2.29Z" style="fill:#273a84"/><path d="M23.637,16.882v6.027h.957A7.045,7.045,0,1,1,25.9,9.991h-2.26Z" style="fill:#273b85"/><path d="M23.637,16.876v5.973h.938a6.983,6.983,0,1,1,1.292-12.8h-2.23Z" style="fill:#263c86"/><path d="M23.637,16.869v5.92h.92A6.92,6.92,0,1,1,25.837,10.1h-2.2Z" style="fill:#263d87"/><path d="M23.637,16.863v5.866h.9a6.857,6.857,0,1,1,1.269-12.573h-2.17Z" style="fill:#253e87"/><path d="M23.637,16.857v5.813h.883a6.795,6.795,0,1,1,1.257-12.458h-2.14Z" style="fill:#253f88"/><path d="M23.637,16.85v5.759H24.5a6.732,6.732,0,1,1,1.246-12.344h-2.11Z" style="fill:#244089"/><path d="M23.637,16.844v5.705h.846a6.67,6.67,0,1,1,1.234-12.229h-2.08Z" style="fill:#24418a"/><path d="M23.637,16.838V22.49h.827a6.607,6.607,0,1,1,1.222-12.114h-2.05Z" style="fill:#23428b"/><path d="M23.637,16.832v5.6h.809a6.544,6.544,0,1,1,1.211-12h-2.02Z" style="fill:#22438b"/><path d="M23.637,16.825V22.37h.79a6.482,6.482,0,1,1,1.2-11.884h-1.99Z" style="fill:#22448c"/><path d="M23.637,16.819V22.31h.772A6.419,6.419,0,1,1,25.6,10.541h-1.96Z" style="fill:#21458d"/><path d="M23.637,16.813V22.25h.754A6.356,6.356,0,1,1,25.566,10.6h-1.93Z" style="fill:#21468e"/><path d="M23.637,16.806V22.19h.735a6.294,6.294,0,1,1,1.165-11.54h-1.9Z" style="fill:#20478f"/><path d="M23.637,16.8v5.33h.717a6.231,6.231,0,1,1,1.153-11.425h-1.87Z" style="fill:#204890"/><path d="M23.637,16.794v5.277h.7a6.169,6.169,0,1,1,1.141-11.31h-1.84Z" style="fill:#1f4990"/><path d="M23.637,16.787V20.9h2.742a6.1,6.1,0,1,1-.933-10.088H23.637Z" style="fill:#1f4a91"/><path d="M23.637,16.781v4.074h2.7a6.041,6.041,0,1,1-.923-9.985H23.637Z" style="fill:#1e4b92"/><path d="M23.637,16.775v4.032H26.3a5.979,5.979,0,1,1-.914-9.881H23.637Z" style="fill:#1e4c93"/><path d="M23.637,16.769v3.989H26.26a5.916,5.916,0,1,1-.9-9.778H23.637Z" style="fill:#1d4d94"/><path d="M23.637,16.762V20.71H26.22a5.854,5.854,0,1,1-.894-9.674H23.637Z" style="fill:#1d4e95"/><path d="M23.637,16.756v3.905h2.544A5.791,5.791,0,1,1,25.3,11.09H23.637Z" style="fill:#1c4f95"/><path d="M23.637,16.75v3.863h2.5a5.728,5.728,0,1,1-.875-9.467H23.637Z" style="fill:#1b5096"/><path d="M23.637,16.743v3.821H26.1a5.666,5.666,0,1,1-.866-9.364h-1.6Z" style="fill:#1b5197"/><path d="M23.637,16.737v3.778h2.425a5.6,5.6,0,1,1-.856-9.26H23.637Z" style="fill:#1a5298"/><path d="M23.637,16.731v3.736h2.386a5.541,5.541,0,1,1-.847-9.157H23.637Z" style="fill:#1a5399"/><path d="M23.637,16.725v3.694h2.346a5.478,5.478,0,1,1-.837-9.054H23.637Z" style="fill:#195499"/><path d="M23.637,16.718V20.37h2.306a5.415,5.415,0,1,1-.827-8.95H23.637Z" style="fill:#19559a"/><path d="M23.637,16.712v3.61H25.9a5.353,5.353,0,1,1-.818-8.847H23.637Z" style="fill:#18569b"/><path d="M23.637,16.706v3.567h2.227a5.29,5.29,0,1,1-.808-8.743H23.637Z" style="fill:#18579c"/><path d="M23.637,16.7v3.525h2.188a5.228,5.228,0,1,1-.8-8.64H23.637Z" style="fill:#17589d"/><path d="M23.637,16.693v3.483h2.148A5.165,5.165,0,1,1,25,11.64H23.637Z" style="fill:#17599e"/><path d="M23.637,16.687v3.441h2.108a5.1,5.1,0,1,1-.78-8.433H23.637Z" style="fill:#165a9e"/><path d="M23.637,16.681v3.4h2.069a5.04,5.04,0,1,1-.77-8.329h-1.3Z" style="fill:#165b9f"/><path d="M23.637,16.674v3.356h2.029a4.979,4.979,0,1,1,.707-7.005H23.637Z" style="fill:#155da0"/><path d="M23.637,16.668v3.314h1.989a4.916,4.916,0,1,1,.7-6.917H23.637Z" style="fill:#145ea1"/><path d="M23.637,16.662v3.272h1.95a4.853,4.853,0,1,1,.689-6.829H23.637Z" style="fill:#145fa2"/><path d="M23.637,16.655v3.23h1.91a4.791,4.791,0,1,1,.68-6.741h-2.59Z" style="fill:#1360a2"/><path d="M23.637,16.649v3.187h1.871a4.728,4.728,0,1,1,.671-6.653H23.637Z" style="fill:#1361a3"/><path d="M23.637,16.643v3.145h1.831a4.666,4.666,0,1,1,.662-6.565H23.637Z" style="fill:#1262a4"/><path d="M23.637,16.637v3.1h1.791a4.6,4.6,0,1,1,.654-6.477H23.637Z" style="fill:#1263a5"/><path d="M23.637,16.63v3.061h1.752a4.54,4.54,0,1,1,.645-6.388h-2.4Z" style="fill:#1164a6"/><path d="M23.637,16.624v3.019h1.712a4.478,4.478,0,1,1,.636-6.3H23.637Z" style="fill:#1165a7"/><path d="M23.637,16.618v2.976h1.673a4.415,4.415,0,1,1,.627-6.212h-2.3Z" style="fill:#1066a7"/><path d="M23.637,16.611v2.934H25.27a4.352,4.352,0,1,1,.618-6.124H23.637Z" style="fill:#1067a8"/><path d="M23.637,16.605V19.5H25.23a4.29,4.29,0,1,1,.609-6.036h-2.2Z" style="fill:#0f68a9"/><path d="M23.637,16.6v2.85h1.554a4.227,4.227,0,1,1,.6-5.948H23.637Z" style="fill:#0f69aa"/><path d="M23.637,16.593V19.4h1.514a4.165,4.165,0,1,1,.591-5.86H23.637Z" style="fill:#0e6aab"/><path d="M23.637,16.586v2.765h1.475a4.1,4.1,0,1,1,.582-5.772H23.637Z" style="fill:#0d6bab"/><path d="M23.637,16.58V19.3h1.435a4.039,4.039,0,1,1,.574-5.684H23.637Z" style="fill:#0d6cac"/><path d="M23.637,16.574v2.681h1.4a3.977,3.977,0,1,1,.565-5.6h-1.96Z" style="fill:#0c6dad"/><path d="M23.637,16.567v2.639h1.356a3.914,3.914,0,1,1,.556-5.507H23.637Z" style="fill:#0c6eae"/><path d="M26.349,16.561a3.851,3.851,0,1,1-.849-2.823H23.637v2.823Z" style="fill:#0b6faf"/><path d="M26.286,16.555a3.789,3.789,0,1,1-.835-2.777H23.637v2.777Z" style="fill:#0b70b0"/><path d="M26.224,16.549a3.726,3.726,0,1,1-.821-2.731H23.637v2.731Z" style="fill:#0a71b0"/><circle cx="22.517" cy="16.174" r="3.664" transform="translate(4.163 36.953) rotate(-84.238)" style="fill:#0a72b1"/><circle cx="22.517" cy="16.174" r="3.601" transform="translate(4.163 36.953) rotate(-84.238)" style="fill:#0973b2"/><circle cx="22.517" cy="16.174" r="3.538" transform="translate(4.163 36.953) rotate(-84.238)" style="fill:#0974b3"/><circle cx="22.517" cy="16.174" r="3.476" transform="translate(4.163 36.953) rotate(-84.238)" style="fill:#0875b4"/><circle cx="22.517" cy="16.174" r="3.413" transform="translate(4.163 36.953) rotate(-84.238)" style="fill:#0876b5"/><circle cx="22.517" cy="16.174" r="3.35" transform="translate(4.163 36.953) rotate(-84.238)" style="fill:#0777b5"/><circle cx="22.517" cy="16.174" r="3.288" transform="translate(4.163 36.953) rotate(-84.238)" style="fill:#0678b6"/><circle cx="22.517" cy="16.174" r="3.225" transform="translate(4.163 36.953) rotate(-84.238)" style="fill:#0679b7"/><circle cx="22.517" cy="16.174" r="3.163" transform="translate(4.163 36.953) rotate(-84.238)" style="fill:#057ab8"/><circle cx="22.517" cy="16.174" r="3.1" transform="translate(4.163 36.953) rotate(-84.238)" style="fill:#057bb9"/><circle cx="22.517" cy="16.174" r="3.037" transform="translate(4.163 36.953) rotate(-84.238)" style="fill:#047cb9"/><circle cx="22.517" cy="16.174" r="2.975" transform="translate(4.163 36.953) rotate(-84.238)" style="fill:#047dba"/><circle cx="22.517" cy="16.174" r="2.912" transform="translate(4.163 36.953) rotate(-84.238)" style="fill:#037ebb"/><circle cx="22.517" cy="16.174" r="2.849" transform="translate(4.163 36.953) rotate(-84.238)" style="fill:#037fbc"/><circle cx="22.517" cy="16.174" r="2.787" transform="translate(4.163 36.953) rotate(-84.238)" style="fill:#0280bd"/><circle cx="22.517" cy="16.174" r="2.724" transform="translate(4.163 36.953) rotate(-84.238)" style="fill:#0281be"/><circle cx="22.517" cy="16.174" r="2.662" transform="translate(4.163 36.953) rotate(-84.238)" style="fill:#0182be"/><circle cx="22.517" cy="16.174" r="2.599" transform="translate(4.163 36.953) rotate(-84.238)" style="fill:#0183bf"/><circle cx="22.517" cy="16.174" r="2.536" transform="translate(4.163 36.953) rotate(-84.238)" style="fill:#0084c0"/></g><g style="clip-path:url(#clip-path-4)"><g style="opacity:0.64"><ellipse cx="22.604" cy="10.8" rx="5.221" ry="9.509" transform="translate(9.593 32.208) rotate(-84.248)" style="fill:#adc8df"/></g></g></svg>