<svg width="96" height="18" viewBox="0 0 96 18" fill="none" xmlns="http://www.w3.org/2000/svg">
<path d="M0.471064 17.422H3.91229C4.19206 17.422 4.35993 17.3938 4.44386 17.3372C4.52779 17.2806 4.58375 17.1392 4.61172 16.9412L6.03857 10.8322H12.4174C12.7252 10.8322 12.921 10.6342 13.005 10.2666L13.5925 7.72113C13.6484 7.43831 13.6764 7.26861 13.6205 7.21205C13.5645 7.09892 13.4246 7.07063 13.2568 7.07063H6.8779L7.2416 5.54338C7.26958 5.37368 7.32553 5.20399 7.40947 5.06257C7.4934 4.89288 7.57733 4.75147 7.71722 4.61005C7.82913 4.46864 8.02497 4.35551 8.22081 4.27066C8.44463 4.18582 8.69643 4.12925 9.03216 4.12925H15.0193C15.1872 4.12925 15.3271 4.10097 15.411 4.01612C15.4949 3.93127 15.5509 3.78986 15.6069 3.59188L16.2224 0.848476C16.2783 0.565651 16.3063 0.395956 16.2503 0.33939C16.1944 0.282825 16.0825 0.254543 15.8866 0.254543H8.52856C7.66126 0.254543 6.90587 0.395956 6.26239 0.650498C5.59093 0.933324 5.03138 1.27271 4.55577 1.69695C4.08015 2.12119 3.71645 2.63028 3.43667 3.19593C3.1569 3.76158 2.93308 4.32723 2.79319 4.92116L0.0234247 16.913C-0.0605076 17.2523 0.0793796 17.422 0.471064 17.422ZM24.6156 17.0827C25.7067 16.6867 26.63 16.0928 27.4413 15.3291C28.2527 14.5655 28.9241 13.6322 29.4557 12.5292C29.9873 11.4261 30.4349 10.21 30.7426 8.82415C31.0504 7.49487 31.1903 6.27872 31.1343 5.1757C31.0784 4.10097 30.8266 3.16764 30.351 2.40402C29.9033 1.64039 29.2319 1.04645 28.3646 0.622216C27.5252 0.197978 26.4341 0 25.1192 0C23.8602 0 22.7131 0.197978 21.65 0.622216C20.6148 1.04645 19.6636 1.64039 18.8522 2.40402C18.0409 3.16764 17.3415 4.12925 16.7539 5.20399C16.1664 6.30701 15.7188 7.52315 15.411 8.85243C15.1033 10.2383 14.9634 11.4544 14.9913 12.5574C15.0473 13.6605 15.2711 14.5655 15.7188 15.3291C16.1664 16.0928 16.8099 16.6584 17.6772 17.0544C18.5445 17.4503 19.6356 17.6483 20.9505 17.6483C22.3214 17.6766 23.5524 17.4786 24.6156 17.0827ZM20.1112 12.2181C19.9713 11.7938 19.9434 11.2847 19.9713 10.6908C20.0273 10.0969 20.1112 9.41809 20.3071 8.65446C20.4469 8.06052 20.6428 7.46659 20.8666 6.90094C21.1184 6.33529 21.3982 5.85449 21.7059 5.43025C22.0417 5.00601 22.4054 4.6949 22.7971 4.44036C23.2167 4.18582 23.6364 4.07268 24.112 4.07268C24.6715 4.07268 25.1192 4.2141 25.4269 4.44036C25.7347 4.6949 25.9585 5.03429 26.0704 5.45853C26.1823 5.88277 26.2103 6.39185 26.1823 6.9575C26.1264 7.52315 26.0424 8.14537 25.9305 8.76759C25.7906 9.3898 25.5948 9.98374 25.371 10.5494C25.1472 11.115 24.8954 11.6241 24.5876 12.0484C24.2799 12.4726 23.9161 12.812 23.4965 13.0665C23.0768 13.3211 22.6012 13.4342 22.0696 13.4342C21.5101 13.4342 21.0904 13.3211 20.7547 13.0948C20.4469 12.9817 20.2231 12.6423 20.1112 12.2181ZM63.728 6.53327C64.2037 5.93933 64.5114 5.31712 64.6513 4.6949C64.8471 3.90299 64.8471 3.25249 64.7072 2.68684C64.5674 2.12119 64.2876 1.66867 63.8959 1.32928C63.5042 0.961606 63.0286 0.707063 62.4411 0.537368C61.8535 0.367673 61.1821 0.282825 60.4547 0.282825H54.1598C53.4883 0.282825 53.0407 0.424238 52.7889 0.678781C52.5371 0.961606 52.3412 1.35756 52.2293 1.89493L49.0119 15.8099C48.872 16.3756 48.872 16.7998 49.0119 17.0544C49.1518 17.3089 49.5435 17.422 50.2149 17.422H56.5099C57.3492 17.422 58.1605 17.3089 58.9439 17.0544C59.7273 16.7998 60.4267 16.4322 61.0702 15.9796C61.7137 15.5271 62.2452 14.9615 62.6929 14.311C63.1405 13.6605 63.4483 12.9534 63.6441 12.1615C63.728 11.7655 63.784 11.3696 63.784 10.9736C63.784 10.5777 63.728 10.1817 63.6161 9.81404C63.5042 9.44637 63.3084 9.10698 63.0846 8.79587C62.8328 8.48476 62.525 8.2585 62.1053 8.06052L62.1333 7.91911C62.7209 7.57972 63.2524 7.1272 63.728 6.53327ZM58.9998 11.8221C58.9719 11.9918 58.8879 12.1898 58.804 12.3595C58.7201 12.5292 58.5802 12.6989 58.4123 12.8686C58.2445 13.0382 58.0486 13.1514 57.8248 13.2645C57.601 13.3494 57.3212 13.4059 56.9855 13.4059H54.1318L54.8872 10.21H57.7409C58.2724 10.21 58.6361 10.3514 58.86 10.6625C59.0558 10.9736 59.1118 11.3413 58.9998 11.8221ZM59.8392 5.37368C59.7273 5.85448 59.5314 6.16559 59.2237 6.33529C58.9159 6.50498 58.6082 6.58983 58.2724 6.58983H55.7545L56.286 4.24238H58.9159C59.2796 4.24238 59.5594 4.32723 59.7273 4.52521C59.8672 4.72318 59.9231 5.00601 59.8392 5.37368ZM71.8415 5.06257C71.9254 4.89288 72.0094 4.75147 72.1492 4.61005C72.2891 4.46864 72.457 4.35551 72.6528 4.27066C72.8767 4.18582 73.1285 4.12925 73.4642 4.12925H79.2275C79.3954 4.12925 79.5353 4.10097 79.6192 4.01612C79.7031 3.93127 79.7591 3.78986 79.8151 3.59188L80.4585 0.820194C80.5145 0.537368 80.5425 0.367673 80.4865 0.311108C80.4306 0.254543 80.3186 0.22626 80.1228 0.22626H72.9886C72.1213 0.22626 71.3659 0.367673 70.7224 0.622216C70.0509 0.876759 69.4914 1.24443 69.0437 1.66867C68.5681 2.09291 68.2044 2.60199 67.9247 3.16764C67.6449 3.73329 67.4211 4.29894 67.2812 4.89288L65.4626 12.7271C65.3507 13.2645 65.2668 13.8019 65.2668 14.3675C65.2668 14.9332 65.3787 15.414 65.6305 15.8665C65.8823 16.319 66.274 16.6867 66.8056 16.9695C67.3371 17.2523 68.0925 17.3938 69.0717 17.3938H76.5697C76.8774 17.3938 77.0733 17.1958 77.1572 16.8281L77.8007 14.0564C77.8566 13.7736 77.8846 13.6039 77.8287 13.5473C77.7727 13.4908 77.6608 13.4625 77.465 13.4625H71.3099C71.1141 13.4625 70.9182 13.4625 70.7504 13.4342C70.5825 13.4059 70.4426 13.3494 70.3307 13.2645C70.2188 13.1797 70.1628 13.0382 70.1349 12.8686C70.1069 12.6989 70.1349 12.4443 70.1908 12.1332L70.6105 10.2948H77.1012C77.409 10.2948 77.6048 10.0969 77.6888 9.72919L78.2763 7.18376C78.3323 6.90094 78.3602 6.73124 78.3043 6.67468C78.2763 6.61811 78.1364 6.58983 77.9406 6.58983H71.4498L71.7016 5.57166C71.7296 5.40196 71.7855 5.23227 71.8415 5.06257ZM95.958 0.848476C96.014 0.565651 96.014 0.395956 95.958 0.33939C95.9021 0.282825 95.7622 0.254543 95.5943 0.254543H82.8086C82.6128 0.254543 82.4729 0.282825 82.389 0.33939C82.305 0.424238 82.2491 0.565651 82.1652 0.848476L81.5217 3.59188C81.4377 3.95955 81.5497 4.15753 81.9134 4.15753H85.9701L83.0325 16.8847C82.9485 17.2241 83.0884 17.3938 83.4801 17.3938H86.9213C87.2011 17.3938 87.369 17.3655 87.4529 17.2806C87.5368 17.1958 87.5928 17.0827 87.6208 16.8847L90.5584 4.15753H94.6991C95.0348 4.15753 95.2586 3.95955 95.3425 3.59188L95.958 0.848476ZM49.4875 0.282825H46.0463C45.7665 0.282825 45.5987 0.311108 45.5147 0.395956C45.4308 0.480803 45.3748 0.593933 45.3469 0.791911L43.2765 9.61606H43.0807L41.9056 6.61811L39.6674 1.38584C39.5555 1.1313 39.4436 0.933324 39.3317 0.791911C39.2198 0.650498 39.1079 0.537368 38.968 0.452521C38.8281 0.367673 38.6882 0.33939 38.5204 0.311108C38.3245 0.282825 38.1287 0.282825 37.8769 0.282825H36.6179C35.9464 0.282825 35.4429 0.424238 35.1351 0.678781C34.8273 0.933324 34.5756 1.44241 34.4077 2.23432L30.9385 16.913C30.8546 17.2523 30.9944 17.422 31.3861 17.422H34.8273C35.1071 17.422 35.275 17.3938 35.3589 17.3089C35.4429 17.2241 35.4988 17.1109 35.5268 16.913L37.5971 8.14537H37.765L38.996 11.1716L41.2062 16.319C41.3181 16.5736 41.43 16.7715 41.5419 16.913C41.6538 17.0544 41.7937 17.1675 41.9336 17.2523C42.0735 17.3372 42.2134 17.3655 42.4092 17.3938C42.5771 17.422 42.8009 17.422 43.0247 17.422H44.2837C45.0111 17.422 45.5427 17.2523 45.8505 16.8847C46.1582 16.517 46.382 16.0645 46.5219 15.4988L49.9911 0.791911C49.9911 0.452521 49.8512 0.282825 49.4875 0.282825Z" fill="#D42A28"/>
</svg>
