<svg width="140" height="86" viewBox="0 0 140 86" fill="none" xmlns="http://www.w3.org/2000/svg">
<g id="Hard Rock Bet">
<path id="ring" fill-rule="evenodd" clip-rule="evenodd" d="M72.4189 4.03922C57.4926 4.03922 44.5521 12.7919 38.3375 25.4929H33.9352C40.4317 10.4995 54.3419 0 72.4158 0C90.4897 0 105.933 11.6159 111.848 27.8575C111.061 28.5223 110.342 29.2906 109.713 30.1436C109.103 28.8391 108.232 27.7446 107.163 26.9167C101.24 13.4536 87.3452 4.03922 72.4189 4.03922ZM72.4158 80.9915C92.1286 80.9915 108.384 65.7221 110.246 46.2535V46.2566C111.321 47.1724 112.616 47.8153 114.05 48.1132C111.336 68.9208 93.8635 85.0307 72.4158 85.0307C50.9682 85.0307 33.2257 68.6668 30.7225 47.6271C31.5652 48.0944 32.5411 48.3515 33.582 48.3515C34.025 48.3515 34.4402 48.3233 34.8336 48.27C37.5847 66.7664 52.7031 80.9915 72.4158 80.9915Z" fill="#6A46F3"/>
<path id="text" fill-rule="evenodd" clip-rule="evenodd" d="M15.1301 29.3878L17.7975 18.9417H23.25L16.3941 45.5133H10.9416L13.9993 33.772H9.03627L6.01259 45.5133H0.560059L5.95063 24.6492C4.99954 25.1102 3.89974 25.3611 2.89907 25.3705C2.59856 25.3737 2.29496 25.358 2.00374 25.3266L2.93005 21.7578C5.48593 21.7578 6.86765 20.6759 8.03561 18.9417H12.8685L10.1671 29.3878H15.1301ZM35.4842 40.1006C35.4346 40.3201 35.4067 40.5114 35.4067 40.6807L35.4098 40.6776C35.4098 41.1668 35.6887 41.4459 36.2711 41.4459C36.7017 41.4459 37.0146 41.3832 37.2903 41.2766L36.3269 45.0147C35.7878 45.4538 35.0443 45.7987 33.5851 45.7987C32.2158 45.7987 30.7194 44.9677 30.3074 43.1488H30.2733C29.4554 44.4408 28.0799 45.7423 25.7719 45.7423C23.1571 45.7423 20.7004 43.1613 20.7004 39.6239C20.7004 33.2765 24.7061 27.7163 29.3966 27.7163C31.1284 27.7163 32.3985 28.8077 32.8756 29.8582H32.9128L33.3682 28.0393H38.5977L35.4842 40.1006ZM26.0166 38.6768C26.0166 40.4957 26.5928 41.5243 27.6338 41.5243C29.8086 41.5243 31.5714 37.714 31.5714 34.7379C31.5714 33.0037 30.8898 31.9343 29.9232 31.9343C27.736 31.9343 26.0166 35.4153 26.0166 38.6768ZM63.3169 29.5164H63.2859C62.7438 28.5348 61.4674 27.7194 59.8502 27.7194C55.1567 27.7194 51.1541 33.2796 51.1541 39.627C51.1541 43.1644 53.6108 45.7454 56.2255 45.7454C58.326 45.7454 59.748 44.5286 60.5628 43.3432H60.5968L60.0485 45.5165H64.5406L71.3966 18.9448H66.0525L63.3169 29.5164ZM58.0874 41.5274C57.0465 41.5274 56.4734 40.4988 56.4734 38.6799C56.4734 35.4184 58.1928 31.9374 60.38 31.9374C61.3466 31.9374 62.0281 33.0068 62.0281 34.741C62.0281 37.7171 60.2654 41.5274 58.0874 41.5274ZM47.2846 30.4949C48.056 29.2342 49.6515 27.754 51.2904 27.754L51.2934 27.7571C51.7582 27.7571 52.1609 27.8574 52.4707 27.9923L51.154 33.0852C50.7637 32.85 50.2029 32.6619 49.605 32.6619C47.5262 32.6619 46.1786 35.0547 45.6117 37.2813L43.4771 45.5165H38.1268L42.6283 28.0456H47.8453L47.2381 30.4949H47.2846ZM136.158 47.3166C135.092 47.3166 134.686 46.749 134.686 45.689C134.686 45.407 134.693 45.1518 134.701 44.8869C134.709 44.6008 134.717 44.3034 134.717 43.9485C134.717 41.9445 133.791 39.903 132.545 39.0092V38.9716C135.606 38.3726 139.442 35.8669 139.442 31.9343C139.442 29.6607 137.778 27.7508 134.866 27.7508C133.131 27.7508 131.542 28.5442 130.476 29.7453H130.442L133.208 18.9417H127.877L121.021 45.5134H126.365L127.762 40.1068C129.035 40.2887 130.25 41.5745 130.25 43.4373C130.25 44.203 130.196 44.8165 130.143 45.4166V45.4167V45.4168V45.417C130.092 45.9916 130.042 46.5538 130.042 47.2256C130.042 49.8442 131.907 51.5251 134.742 51.5251C136.086 51.5251 137.524 51.061 138.295 50.3742L137.552 46.9214C137.264 47.1284 136.66 47.3197 136.158 47.3197V47.3166ZM128.592 36.8924C129.128 34.1797 131.405 31.5078 133.304 31.5078C134.11 31.5078 134.572 31.9656 134.572 32.7497C134.572 34.7442 131.92 36.8924 128.592 36.8924ZM92.488 38.8148C92.488 32.8632 96.4713 27.7173 101.824 27.7163C105.553 27.7171 108.204 30.4798 108.204 35.0139C108.204 40.6462 104.13 45.7454 98.6376 45.7454C95.2483 45.7454 92.488 42.8791 92.488 38.8148ZM97.5749 38.5859C97.5749 40.549 98.3185 41.6654 99.2634 41.6654L99.2665 41.6623C101.327 41.6623 103.139 37.8081 103.139 34.7254C103.139 32.9692 102.535 31.5956 101.413 31.5956C99.2231 31.5956 97.5749 35.086 97.5749 38.5859ZM114.524 38.3694C114.524 34.3271 116.758 31.5611 119.153 31.5611C120.376 31.5611 121.393 32.2761 122.003 32.8939L122.997 29.0021C122.183 28.4156 120.476 27.7194 118.762 27.7194C113.626 27.7194 109.44 33.2012 109.44 38.5858C109.44 42.8132 112.256 45.7454 115.863 45.7454C117.278 45.7454 118.273 45.4632 118.861 45.2092L119.909 41.1009C119.221 41.5588 118.493 41.7407 117.266 41.7407C115.612 41.7407 114.524 40.6431 114.524 38.3694ZM90.0312 45.7297C90.0312 46.9089 90.8027 47.7054 91.8281 47.7054V47.7148C92.5871 47.7148 93.1231 47.5549 93.5072 47.2946L94.3003 50.7756C93.3771 51.5628 92.0914 52.2276 90.2295 52.2276C86.9239 52.2276 84.588 50.3428 84.588 47.2476C84.588 45.8103 84.7599 44.7634 84.9287 43.7358C85.0913 42.7454 85.251 41.7729 85.251 40.4862C85.251 37.9868 83.6493 35.8104 81.9144 35.34L79.2811 45.5165H73.8285L79.2191 24.6524C78.2711 25.1134 77.1713 25.3642 76.1676 25.3737C75.8671 25.3768 75.5634 25.3611 75.2722 25.3297L76.1985 21.7609C78.7575 21.7609 80.1392 20.679 81.3072 18.9448H86.4623C92.045 18.9448 94.5823 21.9271 94.5823 26.0071C94.5823 29.877 90.8863 33.5964 87.3329 34.3741L87.3267 34.4619C88.5721 35.2459 90.2202 37.645 90.2202 40.8124C90.2202 41.7431 90.1684 42.6429 90.1191 43.5006L90.1191 43.5009C90.0742 44.2816 90.0312 45.0274 90.0312 45.7297ZM82.946 31.3729H84.0396C87.3824 31.3729 89.0368 28.8829 89.0368 26.1796C89.0368 24.3325 88.1786 22.8272 85.8706 22.8272H85.1457L82.946 31.3729ZM115.884 48.9943H117.858V49.4114H117.089V51.6004H116.653V49.4114H115.884V48.9943ZM119.955 48.9943H120.507V51.6004H120.101V49.6748L119.484 51.6004H119.159L118.542 49.656V51.6004H118.146V48.9943H118.688L119.32 50.7819L119.952 48.9943H119.955ZM81.6138 59.2618H78.206V56.3703H88.4357V59.2618H85.0247V69.4163H81.6138V59.2618ZM61.0367 56.3734H56.3958L56.3989 56.3766V69.4225H61.4332C64.2091 69.4225 66.5078 68.259 66.5078 65.5683C66.5078 63.8404 65.5164 62.8776 64.2865 62.5169V62.4354C65.2779 62.034 65.913 60.7482 65.913 59.6255C65.913 57.0571 63.732 56.3734 61.0367 56.3734ZM62.5826 60.1461C62.5826 60.9489 62.0652 61.4695 60.9561 61.4695V61.4726H59.8068V59.0234H60.9561C62.0683 59.0234 62.5826 59.3433 62.5826 60.1461ZM63.1774 65.3237C63.1774 66.2865 62.5423 66.7694 61.1947 66.7694H59.8068V64.0003H61.1947C62.5423 64.0003 63.1774 64.3609 63.1774 65.3237ZM76.4618 56.3734H68.1343V56.3766V69.4225H76.6601V66.5311H71.5453V64.2041H75.7493V61.3127H71.5453V59.2649H76.4618V56.3734Z" fill="#F8F8FA"/>
</g>
</svg>
