<svg width="445" height="357" viewBox="0 0 445 357" fill="none" xmlns="http://www.w3.org/2000/svg">
<rect width="445" height="357" fill="#F4F4F4"/>
<path d="M101.147 197.641C100.953 198.631 100.447 198.868 99.3966 199.185C97.101 199.621 87.9188 199.621 84.1447 199.621C77.686 199.621 72.2389 194.908 74.5345 186.037C77.686 173.878 85.312 144.175 85.312 144.175H95.0389L84.4171 185.443C84.2614 186.314 84.1058 187.146 84.0669 187.858C83.7946 190.67 85.0396 191.581 88.3468 191.581H101.342C101.77 191.581 102.665 191.898 102.354 193.126C101.809 195.066 101.147 197.641 101.147 197.641ZM162.35 166.235C163.984 166.235 167.019 166.472 168.886 166.71L162.427 191.898C160.988 192.136 158.109 192.334 155.618 192.334C151.027 192.334 149.549 190.512 149.899 186.552C149.938 185.641 150.094 184.571 150.638 182.076C150.911 180.769 152.078 176.492 152.078 176.492C153.79 169.561 156.28 166.235 162.35 166.235ZM184.099 144.175L174.683 144.136L170.909 158.908C168.419 158.631 166.046 158.472 164.334 158.472C153.012 158.472 146.008 163.423 142.779 176.492C142.779 176.492 141.728 180.611 141.378 182.076C140.795 184.611 140.756 185.245 140.717 186.037C139.978 193.957 143.79 200.096 153.556 200.096C158.109 200.096 163.478 199.423 168.186 198.274C169.859 197.878 170.248 197.443 170.598 196.334L184.099 144.175ZM198.923 166.235C203.553 166.235 204.954 168.413 204.565 172.294C204.526 173.601 204.253 174.948 203.786 176.532L202.425 182.116C201.063 187.462 198.3 192.373 192.192 192.373C189.624 192.373 186.784 192.215 185.539 191.938L192.036 166.75C194.098 166.472 197.289 166.235 198.923 166.235ZM213.085 176.492C213.475 174.987 213.669 173.561 213.825 172.096C214.447 163.977 210.634 158.472 200.946 158.472C199.273 158.472 196.705 158.631 194.059 158.908L197.872 144.136H188.573C188.573 144.136 177.368 187.779 175.034 196.611C174.683 197.918 176.395 198.195 176.551 198.235C180.597 199.383 185.733 200.056 190.247 200.056C201.88 200.056 208.728 194.037 211.763 182.037L213.085 176.492ZM257.09 166.631C261.214 166.631 262.965 168.967 262.615 173.205C262.498 174.155 262.421 175.225 262.07 176.373L260.514 182.156C258.763 188.928 255.456 191.977 250.515 191.977C246.391 191.977 244.523 189.68 244.834 185.403C244.912 184.769 244.951 184.056 245.612 181.601C245.924 180.175 246.974 176.373 246.974 176.373C248.881 169.245 252.771 166.631 257.09 166.631ZM272.031 172.611C272.692 165.086 268.801 158.512 259.152 158.512C248.103 158.512 240.788 164.571 237.675 176.413C237.675 176.413 236.78 179.66 236.352 181.403C235.924 182.948 235.613 184.571 235.535 185.68C234.874 193.245 238.765 200.096 248.375 200.096C259.503 200.096 266.623 194.076 269.774 182.156L271.253 176.571C271.681 174.987 271.914 173.839 272.031 172.611ZM310.316 160.492C310.978 159.898 311.094 158.948 309.849 158.948H301.445C300.784 158.948 300.278 159.146 299.694 159.819L284.365 175.264L292.458 144.175H283.12C283.12 144.175 273.354 182.314 269.268 197.997C269.074 198.67 269.463 199.502 270.319 199.502H276.778C277.517 199.502 278.412 198.829 278.567 197.997L282.964 180.849L290.123 197.997C290.395 198.67 291.018 199.462 291.835 199.462H299.811C300.434 199.462 301.329 198.868 300.862 197.799C299.344 194.433 291.757 178.314 291.757 178.314L310.316 160.492ZM324.829 166.631C328.681 166.631 330.626 168.888 330.276 173.047C330.198 174.037 330.004 174.868 329.77 175.779H314.791C316.152 170.552 319.148 166.631 324.829 166.631ZM338.447 178.274C338.952 175.977 339.186 175.383 339.419 173.245C340.081 164.809 336.268 158.512 326.891 158.512C316.075 158.512 308.682 163.462 305.18 176.928C305.18 176.928 304.636 178.908 304.13 181.047C303.702 183.027 303.391 185.086 303.352 185.72C302.457 196.571 309.772 200.136 316.036 200.136C322.378 200.136 325.49 199.779 330.276 198.908C331.638 198.75 331.871 198.235 332.221 197.086C332.221 197.086 333.583 191.264 333.661 191.066C330.393 191.581 324.245 192.056 319.148 192.056C313.857 192.056 312.184 189.443 312.495 185.522C312.534 184.571 312.845 183.581 313.079 182.591H335.995C336.968 182.591 337.591 181.997 337.863 180.849C337.824 180.809 338.058 179.898 338.447 178.274ZM371.013 159.938C367.238 158.948 362.997 158.512 358.718 158.512C352.025 158.512 343.738 160.73 342.921 170.314C342.649 173.799 344.244 176.967 346.734 178.908L354.788 184.888C356.422 186.116 356.928 187.264 356.733 188.413C356.539 191.74 353.854 192.334 350.43 192.334C348.835 192.334 342.532 192.056 339.225 191.581C337.98 191.423 337.474 192.492 337.357 192.73L336.229 197.205C336.034 197.957 336.423 198.552 337.163 198.71C341.404 199.898 347.395 200.096 349.769 200.096C358.095 200.096 365.643 196.334 366.46 187.304C366.772 184.136 365.993 181.245 361.947 178.274L354.243 172.413C352.881 171.462 352.337 170.512 352.376 169.522C352.687 166.472 355.916 166.195 358.017 166.195C360.858 166.195 365.838 166.512 369.067 167.066C370.273 167.264 370.701 166.195 370.896 165.641L371.946 161.601C371.946 161.641 372.335 160.215 371.013 159.938ZM241.099 159.898C241.41 158.75 240.399 158.512 240.165 158.512C237.208 158.512 233.434 158.829 229.193 161.957L229.543 160.492C229.738 159.7 229.349 159.027 228.493 159.027H222.384C221.567 159.027 220.867 159.66 220.672 160.492C220.672 160.492 212.58 191.779 211.023 197.799C210.751 198.829 211.023 199.581 212.074 199.581H218.416C219.233 199.581 220.011 198.908 220.206 198.037L227.676 169.086C232.695 166.631 235.808 166.552 238.064 166.552C238.765 166.552 239.621 165.918 239.776 165.126C239.776 165.086 240.593 161.878 241.099 159.898ZM126.049 166.274C119.979 166.274 117.333 170.631 115.777 176.492L113.87 183.938C113.598 185.047 113.442 186.037 113.326 186.908C112.975 190.948 114.921 192.294 117.722 192.294C120.407 192.294 123.442 191.146 126.749 189.284L132.663 166.75C131.379 166.512 128.578 166.274 126.049 166.274ZM143.012 162.354L133.869 198.076C133.636 198.868 132.818 199.462 132.118 199.462H126.438C125.621 199.462 125.387 198.829 125.504 198.195C125.698 197.047 125.932 196.017 125.932 196.017C121.808 199.106 118.111 200.017 114.726 200.017C108.229 200.017 103.56 195.621 104.26 187.106C104.26 186.512 104.649 184.651 105.077 182.71C105.544 180.413 106.128 177.957 106.556 176.492C109.435 165.245 116.75 158.472 128.072 158.472C132.546 158.472 137.877 159.185 142.001 160.413C143.09 160.73 143.285 161.165 143.012 162.354Z" fill="#D32123"/>
</svg>
