<svg width="179" height="27" viewBox="0 0 179 27" fill="none" xmlns="http://www.w3.org/2000/svg">
<path d="M25.9606 6.37655C25.7418 6.08777 25.5026 5.82232 25.243 5.57438C25.173 5.49854 22.0343 2.36569 21.9614 2.29276C20.57 0.828434 18.5689 7.62939e-06 16.3579 7.62939e-06H5.87418C5.06909 7.62939e-06 4.36026 0.574655 4.19108 1.36516L0.0372821 20.9236C-0.0677296 21.4136 0.0518671 21.9125 0.361068 22.2946C0.428159 22.3763 3.78853 25.7337 3.86729 25.8008C4.17649 26.18 4.63738 26.3959 5.13327 26.3959C5.45997 26.3959 5.78084 26.2996 6.05795 26.1188L13.1142 21.5566H16.3724C21.1125 21.5566 25.8235 17.992 27.0953 13.4386C27.8187 10.8541 27.4045 8.27843 25.9577 6.37364L25.9606 6.37655Z" fill="#8000FF"/>
<path d="M16.3583 1.4585H5.87464C5.75796 1.4585 5.6442 1.55184 5.62087 1.66852L3.74232 10.5012C3.71899 10.6179 3.79191 10.7112 3.90859 10.7112C6.11675 10.7112 8.28408 8.92308 8.75372 6.71492L8.97832 5.6648H15.4657C17.4318 5.6648 18.6482 7.35957 18.0268 9.36646C17.4843 11.1137 15.6407 12.3943 13.8847 12.3943H13.4355L14.0597 9.45689C14.0976 9.28479 13.9197 9.18561 13.7593 9.2877L7.32439 13.4473L7.86112 10.9212C7.88445 10.8045 7.81153 10.7112 7.69485 10.7112C5.48668 10.7112 3.31936 12.4993 2.84972 14.7075L1.46415 21.227C1.42623 21.3991 1.60417 21.4982 1.7646 21.3961L9.18251 16.6006H12.8725C16.9009 16.6006 21.0693 13.5669 22.1923 9.54732C23.4262 5.13974 20.7046 1.4585 16.3583 1.4585Z" fill="#FBF9FF"/>
<path d="M34.043 21.2173V5.18234C34.043 5.07592 34.1266 4.99231 34.233 4.99231H42.184C44.6354 4.99231 46.4711 5.45979 47.6911 6.39475C48.9112 7.32971 49.5193 8.74736 49.5193 10.6477C49.5193 12.548 48.896 13.9885 47.6455 14.9234C46.3951 15.8584 44.4834 16.3259 41.9103 16.3259H38.7368V21.2173C38.7368 21.3238 38.6532 21.4074 38.5468 21.4074H34.233C34.1266 21.4074 34.043 21.3238 34.043 21.2173ZM41.8153 12.7153C42.8567 12.7153 43.613 12.5518 44.0805 12.2212C44.548 11.8905 44.7836 11.3584 44.7836 10.6249C44.7836 9.89136 44.5556 9.40488 44.0957 9.08562C43.6358 8.76256 42.8909 8.60294 41.8647 8.60294H38.7368V12.7191H41.8191L41.8153 12.7153Z" fill="#FBF9FF"/>
<path d="M61.8334 21.3162L58.5991 15.847H54.8288V21.2211C54.8288 21.3276 54.7452 21.4112 54.6388 21.4112H50.4656C50.3592 21.4112 50.2756 21.3276 50.2756 21.2211V5.18234C50.2756 5.07592 50.3592 4.99231 50.4656 4.99231H58.6675C63.5551 4.99231 66.0027 6.80902 66.0027 10.4425C66.0027 11.5294 65.7633 12.4378 65.2882 13.1675C64.8131 13.8973 64.0834 14.4826 63.1028 14.9272L66.9453 21.1223C67.0251 21.2477 66.9339 21.4112 66.7857 21.4112H61.993C61.9246 21.4112 61.8638 21.377 61.8296 21.3162H61.8334ZM58.371 12.3504C59.4124 12.3504 60.1725 12.1984 60.6476 11.8905C61.1227 11.5827 61.3621 11.0848 61.3621 10.3968C61.3621 9.70893 61.1341 9.23765 60.6856 8.9374C60.2333 8.63714 59.477 8.48892 58.4204 8.48892H54.8326V12.3504H58.3748H58.371Z" fill="#FBF9FF"/>
<path d="M67.7624 21.2173V5.18234C67.7624 5.07592 67.8461 4.99231 67.9525 4.99231H72.3993C72.5057 4.99231 72.5893 5.07592 72.5893 5.18234V21.2173C72.5893 21.3238 72.5057 21.4074 72.3993 21.4074H67.9525C67.8461 21.4074 67.7624 21.3238 67.7624 21.2173Z" fill="#FBF9FF"/>
<path d="M74.0335 21.2591L73.3836 18.2034C73.3646 18.1084 73.3912 18.0096 73.4596 17.9412L82.6839 8.76256H73.5851C73.4634 8.76256 73.3722 8.65235 73.3988 8.53452L74.121 5.14433C74.14 5.05692 74.216 4.99231 74.3072 4.99231H87.982C88.0732 4.99231 88.1492 5.05692 88.1682 5.14433L88.8181 8.20007C88.8371 8.29508 88.8105 8.3939 88.7421 8.46231L79.5179 17.6409H88.6167C88.7383 17.6409 88.8295 17.7511 88.8029 17.869L88.0808 21.2591C88.0618 21.3466 87.9858 21.4112 87.8946 21.4112H74.2198C74.1286 21.4112 74.0525 21.3466 74.0335 21.2591Z" fill="#FBF9FF"/>
<path d="M89.6087 21.2173V5.18234C89.6087 5.07592 89.6923 4.99231 89.7987 4.99231H103.519C103.61 4.99231 103.686 5.05692 103.705 5.14433L104.412 8.46611C104.439 8.58393 104.348 8.69415 104.226 8.69415H94.3443V11.1988H103.238C103.344 11.1988 103.428 11.2824 103.428 11.3888V14.7106C103.428 14.817 103.344 14.9006 103.238 14.9006H94.3443V17.7055H104.226C104.348 17.7055 104.439 17.8157 104.412 17.9336L103.705 21.2553C103.686 21.3428 103.61 21.4074 103.519 21.4074H89.7987C89.6923 21.4074 89.6087 21.3238 89.6087 21.2173Z" fill="#FBF9FF"/>
<path d="M105.222 21.2173V5.18234C105.222 5.07592 105.305 4.99231 105.412 4.99231H113.363C115.814 4.99231 117.65 5.45979 118.87 6.39475C120.09 7.32971 120.698 8.74736 120.698 10.6477C120.698 12.548 120.075 13.9885 118.824 14.9234C117.574 15.8584 115.662 16.3259 113.089 16.3259H109.916V21.2173C109.916 21.3238 109.832 21.4074 109.726 21.4074H105.416C105.309 21.4074 105.226 21.3238 105.226 21.2173H105.222ZM112.994 12.7153C114.036 12.7153 114.792 12.5518 115.259 12.2212C115.727 11.8905 115.962 11.3584 115.962 10.6249C115.962 9.89136 115.734 9.40488 115.275 9.08562C114.815 8.76256 114.07 8.60294 113.044 8.60294H109.916V12.7191H112.998L112.994 12.7153Z" fill="#FBF9FF"/>
<path d="M121.454 21.2173V5.18234C121.454 5.07592 121.538 4.99231 121.644 4.99231H126.091C126.198 4.99231 126.281 5.07592 126.281 5.18234V21.2173C126.281 21.3238 126.198 21.4074 126.091 21.4074H121.644C121.538 21.4074 121.454 21.3238 121.454 21.2173Z" fill="#FBF9FF"/>
<path d="M145.129 15.3377C145.243 15.3377 145.334 15.4403 145.319 15.5543C145.068 17.5041 144.194 19.0282 142.7 20.1189C141.153 21.2515 139.082 21.8216 136.494 21.8216C134.563 21.8216 132.891 21.4834 131.481 20.8107C130.071 20.1379 128.98 19.146 128.204 17.8461C127.429 16.5425 127.045 14.9957 127.045 13.2017C127.045 11.499 127.421 9.99778 128.17 8.69415C128.923 7.39053 130.006 6.37955 131.424 5.65742C132.841 4.9353 134.54 4.57803 136.516 4.57803C138.892 4.57803 140.788 5.06072 142.206 6.02609C143.57 6.95725 144.498 8.34069 144.992 10.1802C145.022 10.2942 144.943 10.4083 144.828 10.4197L140.367 10.9289C140.279 10.9403 140.199 10.8871 140.169 10.8035C139.876 10.0054 139.454 9.42008 138.896 9.05141C138.307 8.65995 137.505 8.46611 136.494 8.46611C135.099 8.46611 134.012 8.88419 133.229 9.72033C132.446 10.5565 132.054 11.7157 132.054 13.2017C132.054 14.6878 132.45 15.8698 133.24 16.6983C134.031 17.5269 135.144 17.9412 136.585 17.9412C137.702 17.9412 138.58 17.7321 139.219 17.3103C139.819 16.9112 140.226 16.3031 140.439 15.4897C140.462 15.4061 140.534 15.3453 140.621 15.3453H145.133L145.129 15.3377Z" fill="#FBF9FF"/>
<path d="M158.442 21.3276L153.327 14.1861L150.936 16.3031V21.2173C150.936 21.3238 150.853 21.4074 150.746 21.4074H146.299C146.193 21.4074 146.109 21.3238 146.109 21.2173V5.18234C146.109 5.07592 146.193 4.99231 146.299 4.99231H150.746C150.853 4.99231 150.936 5.07592 150.936 5.18234V11.2444L157.641 5.04172C157.675 5.00751 157.72 4.99231 157.77 4.99231H162.908C163.083 4.99231 163.163 5.20514 163.037 5.32296L156.614 11.2254L163.798 21.1109C163.889 21.2363 163.798 21.4112 163.646 21.4112H158.598C158.537 21.4112 158.48 21.3808 158.442 21.3314V21.3276Z" fill="#FBF9FF"/>
<path d="M174.052 9.92177C173.972 9.92937 173.896 9.88376 173.862 9.80775C173.6 9.23005 173.219 8.80817 172.722 8.54213C172.186 8.25708 171.448 8.11645 170.513 8.11645C169.457 8.11645 168.655 8.23047 168.111 8.46231C167.568 8.69035 167.294 9.02861 167.294 9.47329C167.294 9.88756 167.439 10.1954 167.731 10.393C168.024 10.5907 168.59 10.7617 169.434 10.8985L172.976 11.4724C175.108 11.8107 176.644 12.3808 177.586 13.1865C178.529 13.9923 179 15.1135 179 16.5539C179 18.287 178.301 19.5983 176.91 20.4838C175.515 21.3732 173.451 21.8178 170.726 21.8178C168.001 21.8178 165.918 21.3352 164.486 20.3698C163.106 19.4386 162.304 18.0552 162.083 16.2157C162.068 16.1016 162.16 16.0028 162.274 16.0028H166.739C166.827 16.0028 166.899 16.0636 166.922 16.1511C167.093 16.858 167.465 17.3825 168.039 17.7283C168.651 18.097 169.548 18.2794 170.73 18.2794C171.832 18.2794 172.684 18.1426 173.28 17.8652C173.877 17.5877 174.177 17.2 174.177 16.6907C174.177 16.3069 174.014 16.0104 173.683 15.7938C173.352 15.581 172.782 15.4099 171.969 15.2883L169.05 14.8512C166.796 14.513 165.151 13.9239 164.105 13.0801C163.064 12.2364 162.543 11.081 162.543 9.61011C162.543 8.03284 163.266 6.79762 164.706 5.90827C166.146 5.01891 168.138 4.57423 170.684 4.57423C173.045 4.57423 174.873 4.9809 176.169 5.79425C177.408 6.57338 178.187 7.72878 178.51 9.26425C178.533 9.37447 178.453 9.48469 178.339 9.49229L174.063 9.91797L174.052 9.92177Z" fill="#FBF9FF"/>
</svg>
