<svg width="150" height="61" viewBox="0 0 150 61" fill="none" xmlns="http://www.w3.org/2000/svg">
<path d="M86.0457 40.4777H84.2024V42.2318H83.5573V43.6517H84.2024V47.6686H86.0457V43.6517H87.1747V42.2318H86.0457V40.4777ZM91.6908 42.0951C91.2761 42.0951 90.9612 42.1331 90.5772 42.3229C90.3544 42.4368 90.1163 42.619 89.8783 42.8848V38.792H88.035V47.6686H89.8783V44.9502C89.8783 44.6844 89.8859 44.1529 90.27 43.8264C90.3698 43.7277 90.6002 43.5606 90.9996 43.5606C91.2684 43.5606 91.5526 43.6441 91.7215 43.8112C92.0211 44.077 92.0288 44.525 92.0288 44.8894V47.6838H93.8721V44.2364C93.8721 43.8188 93.8337 43.1582 93.3037 42.657C92.8045 42.1634 92.144 42.1027 91.6908 42.1027V42.0951ZM97.7814 42.0647C98.4342 42.0647 99.3482 42.171 100.055 42.8848C100.738 43.5682 100.869 44.4187 100.869 45.0945V45.2767H96.5986C96.5986 45.5652 96.7215 45.9525 96.9519 46.2031C97.2207 46.4992 97.6201 46.5448 97.8966 46.5448C98.1731 46.5448 98.4573 46.4992 98.6493 46.3853C98.68 46.3625 98.9027 46.2335 99.0487 45.9297L100.792 46.1044C100.554 46.8637 100.032 47.2662 99.7015 47.4636C99.1485 47.7749 98.5418 47.866 97.8966 47.866C97.0364 47.866 96.2837 47.7218 95.6078 47.0839C95.1086 46.6055 94.7476 45.8842 94.7476 44.9882C94.7476 44.206 95.0472 43.4087 95.6309 42.8468C96.3298 42.1938 97.1747 42.0799 97.8198 42.0799H97.7891L97.7814 42.0647ZM99.21 44.1984C99.2023 44.1529 99.1101 43.8112 98.8413 43.5606C98.6339 43.3784 98.3267 43.2569 97.958 43.2569C97.4742 43.2569 97.1977 43.4391 97.0134 43.6062C96.8751 43.758 96.7445 43.9479 96.6908 44.1984H99.21ZM109.363 44.7376H111.437C111.268 45.3374 110.884 45.6412 110.815 45.6867C110.623 45.8462 110.147 46.1272 109.333 46.1272C108.672 46.1272 108.112 45.9829 107.597 45.4893C107.236 45.1476 106.875 44.5477 106.875 43.6214C106.875 42.862 107.136 42.1786 107.605 41.7002C108.019 41.2826 108.595 41.032 109.371 41.032C109.863 41.032 110.285 41.1535 110.677 41.4193C111.007 41.6471 111.268 41.9812 111.437 42.3077L113.219 41.4041C112.912 40.8878 112.405 40.3258 111.837 39.9614C111.038 39.4602 110.139 39.3539 109.433 39.3539C108.411 39.3539 107.113 39.4982 106.076 40.5309C105.354 41.2219 104.855 42.2849 104.855 43.6062C104.855 45.2235 105.615 46.2107 106.107 46.6967C107.098 47.6686 108.211 47.8281 109.233 47.8281C110.254 47.8281 111.337 47.6534 112.282 46.727C113.234 45.793 113.595 44.2896 113.595 43.31V43.2265H109.348V44.7452H109.371L109.363 44.7376ZM119.279 42.8544V42.247H121.122V47.6762H119.279V47.008C118.764 47.7369 118.065 47.8584 117.582 47.8584C116.752 47.8584 116.068 47.661 115.439 47.0232C114.824 46.4081 114.594 45.7095 114.594 44.9882C114.594 44.0618 114.955 43.2948 115.485 42.7937C115.984 42.3077 116.668 42.0419 117.466 42.0419C117.958 42.0419 118.726 42.1558 119.264 42.8392V42.862L119.279 42.8544ZM118.964 45.9449C119.202 45.7323 119.417 45.3906 119.417 44.9274C119.417 44.5477 119.256 44.1833 118.987 43.9403C118.718 43.6821 118.296 43.5606 117.966 43.5606C117.566 43.5606 117.182 43.7201 116.944 43.9479C116.744 44.1225 116.514 44.449 116.514 44.9274C116.514 45.4058 116.737 45.7247 116.906 45.8994C117.144 46.1575 117.551 46.3246 117.989 46.3246C118.35 46.3246 118.703 46.1727 118.941 45.9449H118.964ZM129.717 42.1027C129.263 42.1027 128.895 42.1786 128.503 42.4064C128.134 42.6266 127.912 42.8848 127.773 43.0974C127.62 42.7633 127.374 42.4975 127.075 42.3381C126.683 42.1179 126.23 42.0875 125.999 42.0875C125.561 42.0875 124.878 42.171 124.394 42.8544V42.2166H122.551V47.6458H124.394V44.8667C124.394 44.6844 124.394 44.0694 124.755 43.7656C124.932 43.6062 125.154 43.5454 125.4 43.5454C125.592 43.5454 125.823 43.5834 126.022 43.7656C126.306 44.0314 126.322 44.4566 126.322 44.8211V47.6534H128.165V44.9426C128.165 44.5933 128.204 44.1605 128.449 43.8795C128.603 43.6821 128.864 43.5454 129.171 43.5454C129.44 43.5454 129.686 43.6593 129.839 43.8416C130.078 44.1377 130.078 44.6237 130.078 44.897V47.6534H131.921V44.2212C131.921 43.834 131.882 43.105 131.329 42.6038C130.976 42.2925 130.416 42.0875 129.724 42.0875H129.694H129.717V42.1027ZM136.099 42.0647C136.752 42.0647 137.666 42.171 138.372 42.8848C139.056 43.5682 139.187 44.4187 139.187 45.0945V45.2767H134.916C134.916 45.5652 135.039 45.9525 135.27 46.2031C135.538 46.4992 135.938 46.5448 136.214 46.5448C136.491 46.5448 136.775 46.4992 136.967 46.3853C136.998 46.3625 137.22 46.2335 137.366 45.9297L139.11 46.1044C138.872 46.8637 138.349 47.2662 138.019 47.4636C137.466 47.7749 136.859 47.866 136.214 47.866C135.354 47.866 134.601 47.7218 133.925 47.0839C133.426 46.6055 133.065 45.8842 133.065 44.9882C133.065 44.206 133.365 43.4087 133.949 42.8468C134.647 42.1938 135.492 42.0799 136.137 42.0799H136.107L136.099 42.0647ZM135.024 44.1984H137.543C137.535 44.1529 137.443 43.8112 137.174 43.5606C136.967 43.3784 136.66 43.2569 136.291 43.2569C135.807 43.2569 135.531 43.4391 135.346 43.6062C135.208 43.758 135.078 43.9479 135.024 44.1984ZM56.3225 39.5437H54.3486V47.6686H58.9722V46.0816H56.3225V39.5437ZM65.4545 42.938C66.0382 43.4923 66.3147 44.2592 66.3147 44.9654C66.3147 45.6715 66.0306 46.4385 65.4545 46.9928C64.9323 47.4864 64.072 47.8812 62.9507 47.8812C61.8294 47.8812 60.9692 47.494 60.4469 46.9928C59.8632 46.4385 59.5867 45.6715 59.5867 44.9654C59.5867 44.2592 59.8709 43.4923 60.4469 42.938C60.9692 42.4444 61.837 42.0495 62.9507 42.0495C64.0644 42.0495 64.9323 42.4368 65.4545 42.938ZM64.0029 45.9677C64.2871 45.7171 64.433 45.3754 64.433 44.9502C64.433 44.525 64.2717 44.1909 64.0029 43.9327C63.7341 43.6745 63.3731 43.5454 62.9584 43.5454C62.5436 43.5454 62.198 43.6821 61.9292 43.9327C61.6604 44.1833 61.5068 44.5098 61.5068 44.9502C61.5068 45.4438 61.7065 45.7551 61.9292 45.9677C62.1519 46.1879 62.4822 46.355 62.9737 46.355C63.3731 46.355 63.7264 46.2183 63.9952 45.9677H64.0029ZM70.1165 45.14L68.6726 42.2166H66.645L69.5405 47.661H70.7002L73.5958 42.2166H71.5681L70.1242 45.14H70.1012H70.1165ZM76.8753 42.0647C77.5281 42.0647 78.4421 42.171 79.1487 42.8848C79.8323 43.5682 79.9628 44.4187 79.9628 45.0945V45.2767H75.6925C75.6925 45.5652 75.8154 45.9525 76.0458 46.2031C76.3146 46.4992 76.714 46.5448 76.9905 46.5448C77.267 46.5448 77.5512 46.4992 77.7432 46.3853C77.7739 46.3625 77.9966 46.2335 78.1426 45.9297L79.886 46.1044C79.6479 46.8637 79.1257 47.2662 78.7954 47.4636C78.2424 47.7749 77.6357 47.866 76.9905 47.866C76.1303 47.866 75.3776 47.7218 74.7017 47.0839C74.2025 46.6055 73.8415 45.8842 73.8415 44.9882C73.8415 44.206 74.1411 43.4087 74.7248 42.8468C75.4237 42.1938 76.2685 42.0799 76.9137 42.0799H76.883L76.8753 42.0647ZM78.3192 44.1984C78.3115 44.1529 78.2194 43.8112 77.9506 43.5606C77.7432 43.3784 77.436 43.2569 77.0673 43.2569C76.5834 43.2569 76.3069 43.4391 76.1226 43.6062C75.9844 43.758 75.8538 43.9479 75.8 44.1984H78.3192Z" fill="white"/>
<path d="M69.9629 29.0044C69.9629 31.009 69.2486 32.7251 67.8047 34.1451C66.3685 35.565 64.6327 36.2788 62.5974 36.2788H54.3716V31.1457H62.5974C63.1965 31.1457 63.711 30.9407 64.1335 30.523C64.5559 30.1054 64.7633 29.6043 64.7633 29.0044C64.7633 28.4045 64.5559 27.9033 64.1335 27.4857C63.711 27.0681 63.2041 26.8631 62.5974 26.8631H60.0014C57.9738 26.8631 56.238 26.1569 54.8018 24.7293C53.3655 23.3094 52.6436 21.5933 52.6436 19.5811C52.6436 17.5688 53.3655 15.8603 54.8018 14.4404C56.238 13.0204 57.9738 12.3066 60.0014 12.3066H68.2271V17.4397H60.0014C59.4023 17.4397 58.8877 17.6448 58.473 18.0624C58.0506 18.48 57.8432 18.9812 57.8432 19.5735C57.8432 20.1657 58.0506 20.6745 58.473 21.0921C58.8954 21.5098 59.4023 21.7148 60.0014 21.7148H62.5974C64.625 21.7148 66.3608 22.421 67.8047 23.8485C69.2409 25.2685 69.9629 26.9846 69.9629 28.9968V29.0044ZM112.904 29.0044C112.904 31.009 112.182 32.7251 110.746 34.1451C109.31 35.565 107.574 36.2788 105.546 36.2788H90.0165L84.1794 25.6405L73.4191 29.0423L82.7585 12.3218L95.6309 35.5498V12.3142H105.585C107.612 12.3142 109.348 13.028 110.792 14.448C112.228 15.8679 112.95 17.584 112.95 19.5886C112.95 21.4035 112.359 22.9753 111.184 24.3117C112.336 25.6329 112.912 27.1972 112.912 29.0044H112.904ZM107.704 29.0044C107.704 28.4121 107.497 27.9033 107.075 27.4857C106.652 27.0681 106.145 26.8631 105.539 26.8631H100.815V31.1457H105.539C106.138 31.1457 106.652 30.9407 107.075 30.523C107.497 30.1054 107.704 29.6043 107.704 29.0044ZM107.743 19.5886C107.743 18.9964 107.536 18.4876 107.113 18.0776C106.691 17.6599 106.184 17.4549 105.577 17.4549H100.815V21.7376H105.577C106.176 21.7376 106.691 21.5325 107.113 21.1149C107.536 20.6973 107.743 20.1961 107.743 19.5962V19.5886ZM69.479 36.2788H75.4928L78.7109 30.4016L71.3991 32.7099L69.479 36.2788ZM125.884 12.3142L116.545 29.0348L127.305 25.6329L133.142 36.2712H139.156L125.884 12.3066V12.3142ZM112.605 36.2788H118.618L121.836 30.4016L114.532 32.7099L112.612 36.2788H112.605Z" fill="#ED1B00"/>
<path d="M29.6134 48.868C40.133 48.868 48.6608 40.4369 48.6608 30.0365C48.6608 19.6362 40.133 11.2051 29.6134 11.2051C19.0937 11.2051 10.5659 19.6362 10.5659 30.0365C10.5659 40.4369 19.0937 48.868 29.6134 48.868Z" fill="white"/>
<path d="M29.6134 48.868C40.133 48.868 48.6608 40.4369 48.6608 30.0365C48.6608 19.6362 40.133 11.2051 29.6134 11.2051C19.0937 11.2051 10.5659 19.6362 10.5659 30.0365C10.5659 40.4369 19.0937 48.868 29.6134 48.868Z" fill="white"/>
<path d="M33.2081 43.3705C31.8179 43.6515 30.3893 43.7957 28.9147 43.7957C25.3971 43.7957 22.0868 42.9453 19.1529 41.457C17.6782 38.8449 16.6951 35.929 16.3111 32.831C20.4125 38.1311 26.3571 41.9657 33.2004 43.3705H33.2081ZM28.1159 29.5203H26.1421V31.3123H28.1236C28.3771 31.3123 28.5844 31.2212 28.7611 31.0465C28.9377 30.8719 29.0222 30.6593 29.0222 30.4163C29.0222 30.1733 28.9301 29.9607 28.7534 29.786C28.5768 29.6114 28.3617 29.5279 28.1159 29.5279V29.5203ZM49.2064 30.0442C49.2064 31.2895 49.0835 32.5044 48.8531 33.6814C48.8531 33.6814 48.8531 33.689 48.8531 33.6966C48.6764 34.6154 48.4306 35.5114 48.1311 36.3846C48.1234 36.4074 48.1157 36.4302 48.1081 36.453C47.9545 36.8858 47.7855 37.311 47.6088 37.7287C47.4322 38.1311 47.2402 38.5184 47.0405 38.9056C47.0174 38.9512 46.9944 38.9891 46.9714 39.0347C46.764 39.422 46.5413 39.8092 46.3108 40.1813C46.3108 40.1813 46.3032 40.1965 46.2955 40.2041C46.0728 40.561 45.8347 40.9027 45.5966 41.2444C45.5582 41.2975 45.5198 41.3507 45.4814 41.4038C44.9053 42.1859 44.2755 42.9225 43.5997 43.6135C42.486 44.7297 41.2495 45.7168 39.89 46.5445C39.6212 46.704 39.3601 46.8634 39.0836 47.0153C39.0759 47.0153 39.0682 47.0229 39.0605 47.0305C38.7917 47.1748 38.5306 47.3114 38.2541 47.4405C38.2387 47.4481 38.2234 47.4557 38.208 47.4633C37.9469 47.5924 37.6781 47.7139 37.4092 47.8278C37.3862 47.8354 37.3555 47.8506 37.3324 47.8658C37.079 47.9721 36.8102 48.0784 36.549 48.1771L36.4338 48.2226C36.1804 48.3138 35.9269 48.3973 35.6735 48.4808C35.6197 48.496 35.5659 48.5188 35.5122 48.534C35.2664 48.6099 35.013 48.6782 34.7672 48.7466C34.7057 48.7618 34.6366 48.7845 34.5752 48.7997C34.3371 48.8605 34.099 48.9136 33.8532 48.9668C33.7764 48.982 33.6996 49.0048 33.6151 49.0199C33.3847 49.0655 33.1466 49.1035 32.9162 49.1414C32.824 49.1566 32.7319 49.1718 32.6397 49.187C32.4093 49.225 32.1789 49.2477 31.9485 49.2781C31.8486 49.2857 31.7565 49.3009 31.6489 49.3161C31.4108 49.3389 31.1804 49.354 30.9423 49.3692C30.8425 49.3692 30.7503 49.3844 30.6505 49.392C30.3125 49.4072 29.9746 49.4148 29.6367 49.4148C29.3218 49.4148 29.0145 49.4072 28.7073 49.392C28.6075 49.392 28.5076 49.3844 28.4155 49.3768C28.2081 49.3616 27.993 49.3465 27.7857 49.3313C27.6782 49.3237 27.5629 49.3085 27.4554 49.2933C27.2557 49.2705 27.056 49.2477 26.864 49.2174C26.7565 49.2022 26.649 49.187 26.5414 49.1718C26.3187 49.1338 26.1037 49.0959 25.8809 49.0579C25.8041 49.0427 25.7273 49.0275 25.6505 49.0123C25.3663 48.9516 25.0822 48.8909 24.798 48.8149C24.6981 48.7921 24.5983 48.7618 24.4985 48.7314C24.3141 48.6782 24.1298 48.6327 23.9531 48.5795C23.8303 48.5416 23.7074 48.5036 23.5845 48.4656C23.4309 48.4125 23.2773 48.3669 23.1237 48.3138C22.9931 48.2682 22.8625 48.2226 22.7396 48.1771C22.5937 48.1239 22.4555 48.0708 22.3095 48.01C22.179 47.9569 22.0484 47.9037 21.9178 47.8506C21.7796 47.7898 21.649 47.7291 21.5108 47.6683C21.2496 47.5468 20.9885 47.4253 20.7274 47.2963C20.6352 47.2431 20.5354 47.2051 20.4432 47.152C20.2819 47.0685 20.1283 46.9773 19.967 46.8938C19.8825 46.8482 19.798 46.8027 19.7136 46.7495C19.5523 46.6508 19.391 46.5521 19.2297 46.4534C19.1682 46.4154 19.0991 46.3699 19.03 46.3319C18.8533 46.218 18.6844 46.1041 18.5077 45.9902L18.4847 45.975C13.7843 42.7478 10.5815 37.5616 10.09 31.616C10.0823 31.5325 10.0746 31.449 10.0669 31.3654C10.0593 31.206 10.0439 31.0389 10.0362 30.8795C10.0209 30.5985 10.0132 30.3176 10.0132 30.0366C10.0132 29.7177 10.0209 29.3988 10.0362 29.0798C10.0439 28.9128 10.0593 28.7457 10.0746 28.5711C10.0823 28.4268 10.0977 28.2825 10.1053 28.1459C10.1284 27.9105 10.1591 27.6751 10.1898 27.4473C10.1975 27.3789 10.2052 27.3106 10.2129 27.2423C10.2513 26.9613 10.305 26.6804 10.3588 26.407C10.3588 26.3918 10.3588 26.3766 10.3665 26.3614C11.7106 19.5047 16.6951 13.9387 23.2465 11.7139C25.2435 11.0381 27.3786 10.666 29.6059 10.666C40.4276 10.666 49.1987 19.3376 49.2064 30.0442ZM37.6089 22.542L33.0775 30.6593L38.7303 28.6318L41.4415 33.5979L43.8608 33.6207L37.6089 22.5496V22.542ZM33.1927 21.2815L37.5475 19.9071L39.9131 24.2125H42.3478L36.9791 14.5158L33.2004 21.2815H33.1927ZM31.6028 24.2125H34.0375L35.3355 21.8358L32.3786 22.7698L31.6028 24.2125ZM31.4876 33.5903H33.9223L35.228 31.2136L32.271 32.1476L31.4953 33.5903H31.4876ZM30.6812 24.8504C30.2511 25.2452 29.6136 25.6932 28.7918 25.921C28.907 26.0729 29.0606 26.4146 29.0606 26.6196C29.0606 26.8702 28.9761 27.0752 28.7995 27.2499C28.6228 27.4245 28.4078 27.5156 28.162 27.5156H26.1728V25.9134H24.0453H23.9992L24.0146 33.5979H28.162C29.0069 33.5903 29.7365 33.2866 30.3356 32.6943C30.9346 32.102 31.2265 31.3806 31.2265 30.5454C31.2265 29.7936 30.9807 29.1406 30.4969 28.5863C30.9884 28.0244 31.2342 27.3713 31.2342 26.612C31.2342 26.0197 30.9884 25.3287 30.6812 24.8504ZM24.1912 15.3359C23.5768 15.9434 23.2696 16.6723 23.2696 17.5304C23.2696 18.3884 23.5768 19.1174 24.1912 19.7249C24.8057 20.3323 25.543 20.6361 26.4109 20.6361H27.5169C27.7703 20.6361 27.9854 20.7272 28.1697 20.9018C28.354 21.0765 28.4385 21.2967 28.4385 21.5473C28.4385 21.7978 28.3463 22.0105 28.1697 22.1927C27.993 22.3749 27.7703 22.4585 27.5169 22.4585H24.0146V24.6453H27.5169C28.3848 24.6453 29.1221 24.3416 29.7365 23.7341C30.3509 23.1267 30.6582 22.3977 30.6582 21.5397C30.6582 20.6816 30.3509 19.9527 29.7365 19.3452C29.1221 18.7377 28.3848 18.434 27.5169 18.434H26.4109C26.1574 18.434 25.9347 18.3429 25.758 18.1682C25.5814 17.986 25.4892 17.7734 25.4892 17.5228C25.4892 17.2722 25.5814 17.052 25.758 16.8774C25.9347 16.6951 26.1574 16.6116 26.4109 16.6116H29.9132V14.4247H26.4109C25.543 14.4247 24.8057 14.7284 24.1912 15.3359ZM48.1234 31.9577C45.5889 37.0453 41.0421 40.9862 35.5199 42.763C27.4785 41.7455 20.5123 37.3034 16.1652 30.963C16.1498 30.6213 16.1422 30.272 16.1422 29.9227C16.1422 23.0811 19.0838 16.9153 23.7765 12.5719C23.0008 12.8225 22.2404 13.1263 21.5108 13.4755C17.6782 17.7278 15.305 23.2937 15.1744 29.3912C13.9993 27.3941 13.07 25.2376 12.4325 22.9596C12.2251 23.4532 12.0331 23.9619 11.8718 24.4783C12.6783 26.9006 13.7996 29.1786 15.1975 31.2667C15.3741 34.585 16.219 37.7287 17.6014 40.5762C15.3434 39.179 13.3695 37.3718 11.7797 35.2608C12.0639 36.1948 12.4095 37.106 12.8319 37.9716C14.4678 39.6498 16.3649 41.0773 18.4616 42.1859C19.4217 43.8413 20.5661 45.3675 21.8718 46.7571C22.6091 47.0912 23.3694 47.3874 24.1605 47.6228C22.6091 46.2484 21.242 44.6841 20.0976 42.9605C22.8088 44.1146 25.7964 44.7601 28.9377 44.7601C31.2726 44.7601 33.5153 44.4032 35.6351 43.7426C36.7641 43.8793 37.9008 43.9552 39.0682 43.9552C40.0436 43.9552 41.0037 43.902 41.9561 43.8033C42.3631 43.4464 42.7548 43.0744 43.1235 42.6871C41.8024 42.8845 40.443 42.9908 39.0682 42.9908C38.6381 42.9908 38.208 42.9756 37.7779 42.9605C41.7871 41.2444 45.1972 38.4121 47.5935 34.8508C47.8469 33.9168 48.0389 32.9524 48.1388 31.9653L48.1234 31.9577Z" fill="#ED1B00"/>
<path d="M35.1049 34.9573C34.6441 34.9573 34.2601 35.0864 33.9682 35.337C33.684 35.58 33.5227 35.9141 33.5227 36.2785C33.5227 36.6202 33.661 36.9088 33.9298 37.1366C34.1218 37.296 34.4521 37.4859 34.9667 37.4859C34.9974 37.4859 35.0281 37.4859 35.0511 37.4859L33.9912 38.6249L33.9068 38.716H34.8054L34.8207 38.7008L35.8883 37.5466L35.9728 37.4555C36.1264 37.2885 36.2723 37.1366 36.4106 36.9012C36.5565 36.6582 36.6256 36.4456 36.6256 36.1874C36.6256 35.8533 36.4951 35.5572 36.2339 35.337C36.0419 35.1699 35.6886 34.9649 35.0972 34.9649L35.1049 34.9573ZM35.6502 36.7038C35.5043 36.8329 35.2892 36.9088 35.0742 36.9088C34.8668 36.9088 34.6518 36.8329 34.5058 36.719C34.3676 36.5975 34.2754 36.4152 34.2754 36.233C34.2754 36.0507 34.3599 35.8685 34.5058 35.747C34.6518 35.6331 34.8668 35.5572 35.0742 35.5572C35.2815 35.5572 35.5043 35.6331 35.6502 35.747C35.7961 35.8609 35.8806 36.0356 35.8806 36.2178C35.8806 36.4 35.7885 36.5823 35.6502 36.7114V36.7038ZM27.8315 35.018H28.9298V38.716H28.1695V35.7546H27.8315V35.018ZM31.3108 34.9573C30.8499 34.9573 30.4659 35.0864 30.1741 35.337C29.8899 35.58 29.7286 35.9141 29.7286 36.2785C29.7286 36.6202 29.8669 36.9088 30.1357 37.1366C30.3277 37.296 30.6579 37.4859 31.1725 37.4859C31.2032 37.4859 31.234 37.4859 31.257 37.4859L30.1971 38.6249L30.1126 38.716H31.0112L31.0266 38.7008L32.0942 37.5466L32.1787 37.4555C32.3323 37.2885 32.4782 37.1366 32.6164 36.9012C32.7624 36.6582 32.8315 36.4456 32.8315 36.1874C32.8315 35.8533 32.7009 35.5572 32.4398 35.337C32.2478 35.1699 31.8945 34.9649 31.3031 34.9649L31.3108 34.9573ZM31.8561 36.7038C31.7102 36.8329 31.4951 36.9088 31.2801 36.9088C31.0727 36.9088 30.8576 36.8329 30.7117 36.719C30.5735 36.5975 30.4813 36.4152 30.4813 36.233C30.4813 36.0507 30.5658 35.8685 30.7117 35.747C30.8576 35.6331 31.0727 35.5572 31.2801 35.5572C31.4874 35.5572 31.7025 35.6331 31.8561 35.747C32.002 35.8609 32.0865 36.0356 32.0865 36.2178C32.0865 36.4 31.9943 36.5823 31.8561 36.7114V36.7038ZM39.8284 37.0455C39.7439 36.9468 39.621 36.8556 39.4827 36.7873C39.6133 36.719 39.7055 36.6278 39.7592 36.5519C39.8975 36.3621 39.9205 36.1419 39.9205 36.028C39.9205 35.7166 39.79 35.4357 39.5442 35.2383C39.3829 35.1092 39.091 34.9497 38.6302 34.9497C38.1694 34.9497 37.8852 35.1092 37.7162 35.2383C37.4705 35.4357 37.3399 35.7166 37.3399 36.028C37.3399 36.1419 37.3629 36.3621 37.5012 36.5519C37.5626 36.6278 37.6471 36.719 37.7854 36.7873C37.6394 36.8556 37.5242 36.9468 37.4321 37.0455C37.2938 37.1973 37.2247 37.3872 37.2247 37.615C37.2247 38.0174 37.4167 38.2756 37.5857 38.4199C37.7623 38.5793 38.0849 38.7692 38.6302 38.7692C39.1755 38.7692 39.4904 38.5793 39.6747 38.4199C39.836 38.2756 40.0357 38.025 40.0357 37.615C40.0357 37.3796 39.9666 37.1973 39.8284 37.0379V37.0455ZM38.2001 35.6863C38.3076 35.6027 38.4612 35.5572 38.6302 35.5572C38.7992 35.5572 38.9528 35.6027 39.0603 35.6863C39.1602 35.7698 39.2216 35.9065 39.2216 36.0431C39.2216 36.2178 39.1294 36.3317 39.068 36.3773C38.9682 36.4684 38.7915 36.5291 38.6302 36.5291C38.4689 36.5291 38.2923 36.4684 38.1924 36.3848C38.131 36.3317 38.0388 36.2254 38.0388 36.0507C38.0388 35.9141 38.1003 35.7774 38.2001 35.6939V35.6863ZM39.1064 38.0098C39.0296 38.0858 38.8837 38.1769 38.6302 38.1769C38.3844 38.1769 38.2385 38.0858 38.154 38.0098C38.0465 37.9111 37.9774 37.7668 37.9774 37.6302C37.9774 37.4859 38.0465 37.3264 38.154 37.2353C38.2692 37.1366 38.4459 37.0834 38.6225 37.0834C38.7992 37.0834 38.9758 37.1442 39.091 37.2353C39.1986 37.3264 39.2677 37.4783 39.2677 37.6302C39.2677 37.7668 39.1986 37.9111 39.091 38.0098H39.1064Z" fill="white"/>
</svg>
