<svg viewBox="0 0 383 83" fill="none" xmlns="http://www.w3.org/2000/svg">
<path d="M70.532 0.00864708H28.1368C17.3435 0.00864708 11.2981 5.22372 9.28304 16.3717L6.25605 33.0979C4.36202 44.2459 13.3824 49.7723 20.0072 49.7723H33.006L35.9205 33.219H25.8709L28.8028 16.6052H64.1753L62.4542 26.3261H81.8961L83.6777 16.363C85.5718 5.21506 81.308 0 70.5147 0L70.532 0.00864708ZM13.5814 82.9913H55.9765C66.7698 82.9913 72.8152 77.7763 74.8303 66.6283L77.8573 49.902C79.7513 38.7541 70.7309 33.2277 64.1061 33.2277H50.6403L47.7258 49.781H58.2424L55.3105 66.3948H19.938L21.6591 56.6738H2.21719L0.435587 66.637C-1.45844 77.7849 2.80528 83 13.5987 83L13.5814 82.9913Z" fill="#FE4000"/>
<path d="M138.483 5.47459H156.869C161.22 5.47459 162.932 7.57619 162.171 12.0648L160.502 21.5176C159.689 26.0062 157.25 28.1078 152.856 28.1078H142.444L140.532 38.9012H132.602L138.474 5.46594L138.483 5.47459ZM151.767 21.2841C152.389 21.2841 152.623 21.0938 152.77 20.376L154.059 13.215C154.154 12.4972 153.963 12.3069 153.341 12.3069H145.22L143.646 21.2841H151.767Z" fill="white"/>
<path d="M162.327 32.3197L165.864 12.0648C166.677 7.57621 169.116 5.47461 173.457 5.47461H186.11C190.504 5.47461 192.225 7.57621 191.412 12.0648L187.874 32.3197C187.061 36.765 184.623 38.9098 180.229 38.9098H167.576C163.226 38.9098 161.514 36.7564 162.327 32.3197ZM171.157 32.0343H179.131C179.753 32.0343 179.987 31.7921 180.134 31.1262L183.282 13.2669C183.377 12.5491 183.23 12.3588 182.564 12.3588H174.59C173.968 12.3588 173.682 12.5491 173.587 13.2669L170.439 31.1262C170.292 31.7921 170.491 32.0343 171.157 32.0343Z" fill="white"/>
<path d="M196.264 5.47459H214.651C219.001 5.47459 220.714 7.57619 219.952 12.0648L218.474 20.4193C217.808 24.1468 215.991 26.2484 212.887 26.8192L216.424 38.9012H208.545L205.06 27.39H200.381L198.331 38.9012H190.4L196.273 5.46594L196.264 5.47459ZM209.583 20.8084C210.249 20.8084 210.491 20.6182 210.638 19.9003L211.831 13.1199C211.978 12.4021 211.78 12.2118 211.166 12.2118H203.045L201.514 20.8084H209.583Z" fill="white"/>
<path d="M230.573 12.4021H222.114L223.308 5.47461H248.19L246.996 12.4021H238.495L233.816 38.9098H225.885L230.564 12.4021H230.573Z" fill="white"/>
<path d="M103.162 44.3761H111.084L105.212 77.794H97.29L103.162 44.3761Z" fill="white"/>
<path d="M115.989 44.3761H123.677L132.032 63.9996L135.465 44.3761H143.154L137.281 77.794H130.362L121.48 57.0721L117.805 77.794H110.116L115.989 44.3761Z" fill="white"/>
<path d="M152.753 51.3036H144.304L145.497 44.3848H170.37L169.177 51.3036H160.675L155.997 77.8027H148.074L152.753 51.3036Z" fill="white"/>
<path d="M172.827 44.3761H195.46L194.266 51.2517H179.564L178.517 57.3143H190.262L189.069 64.0948H177.324L176.13 70.9185H190.79L189.596 77.794H166.963L172.835 44.3761H172.827Z" fill="white"/>
<path d="M199.083 44.3761H217.462C221.803 44.3761 223.524 46.4777 222.763 50.9663L221.284 59.3208C220.618 63.0483 218.802 65.1412 215.697 65.7207L219.235 77.8027H211.356L207.87 66.3001H203.191L201.142 77.8027H193.22L199.092 44.3847L199.083 44.3761ZM212.402 59.71C213.068 59.71 213.31 59.5197 213.449 58.8019L214.642 52.0214C214.789 51.3036 214.599 51.1133 213.976 51.1133H205.864L204.333 59.71H212.402Z" fill="white"/>
<path d="M236.246 44.3761H247.083L251.191 77.794H242.88L242.257 70.7282H231.948L228.895 77.794H220.445L236.246 44.3761ZM241.686 63.9996L240.588 50.9144L234.906 63.9996H241.686Z" fill="white"/>
<path d="M254.711 71.2125L258.248 50.9663C259.061 46.4777 261.543 44.3761 265.885 44.3761H277.725C282.066 44.3761 283.744 46.4777 282.974 50.9663L281.928 56.7867H274.006L274.862 52.1511C274.957 51.4333 274.767 51.243 274.101 51.243H266.983C266.361 51.243 266.075 51.4333 265.98 52.1511L262.832 70.0104C262.685 70.6763 262.875 70.9185 263.55 70.9185H270.616C271.334 70.9185 271.567 70.6763 271.714 70.0104L272.527 65.3315H280.449L279.403 71.2039C278.642 75.6406 276.108 77.794 271.809 77.794H259.969C255.628 77.794 253.907 75.6492 254.72 71.2039L254.711 71.2125Z" fill="white"/>
<path d="M293.724 51.3036H285.274L286.468 44.3848H311.341L310.148 51.3036H301.646L296.967 77.8027H289.045L293.724 51.3036Z" fill="white"/>
<path d="M313.694 44.3761H321.616L315.743 77.794H307.821L313.694 44.3761Z" fill="white"/>
<path d="M321.209 71.204L324.746 50.9577C325.559 46.4691 327.99 44.3676 332.34 44.3676H344.993C349.386 44.3676 351.107 46.4691 350.294 50.9577L346.757 71.204C345.944 75.6407 343.514 77.7941 339.12 77.7941H326.467C322.126 77.7941 320.405 75.6493 321.218 71.204H321.209ZM330.039 70.9099H338.013C338.636 70.9099 338.869 70.6677 339.016 70.0018L342.164 52.1426C342.26 51.4248 342.113 51.2345 341.447 51.2345H333.473C332.85 51.2345 332.565 51.4248 332.469 52.1426L329.321 70.0018C329.174 70.6677 329.373 70.9099 330.039 70.9099Z" fill="white"/>
<path d="M355.717 44.3761H363.406L371.76 63.9996L375.194 44.3761H382.882L377.01 77.794H370.091L361.209 57.0721L357.533 77.794H349.845L355.717 44.3761Z" fill="white"/>
<path d="M105.247 32.3802L106.008 27.9781H113.852L113.229 31.3769C113.134 32.0429 113.281 32.285 113.99 32.285H121.117C121.835 32.285 122.077 32.0429 122.215 31.3769L123.071 26.9662C123.262 26.0062 122.994 25.5824 122.068 25.5824L113.212 25.5997C108.992 25.5997 106.899 23.403 107.66 18.9058L108.871 12.1167C109.684 7.61941 112.122 5.51782 116.473 5.51782H128.191C132.542 5.51782 134.263 7.61941 133.502 12.1167L132.784 16.1382H124.94L125.467 13.1285C125.614 12.4107 125.415 12.2204 124.749 12.2204H117.666C117.043 12.2204 116.758 12.4107 116.663 13.1285L115.841 17.4442C115.694 18.4041 115.885 18.8798 116.845 18.8798L125.675 18.8971C129.999 18.8885 131.988 21.0938 131.227 25.5911L129.964 32.4061C129.203 36.8515 126.712 39.005 122.362 39.005H110.496C106.146 39.005 104.425 36.8515 105.238 32.4061L105.247 32.3802Z" fill="white"/>
<path d="M245.829 32.3803L246.59 27.9782H254.434L253.811 31.3771C253.716 32.043 253.863 32.2852 254.573 32.2852H261.699C262.417 32.2852 262.659 32.043 262.797 31.3771L263.653 26.9663C263.844 26.0063 263.576 25.5825 262.65 25.5825L253.794 25.5998C249.574 25.5998 247.481 23.4031 248.242 18.9059L249.453 12.1168C250.266 7.61954 252.704 5.51794 257.055 5.51794H268.773C273.124 5.51794 274.845 7.61954 274.084 12.1168L273.366 16.1383H265.522L266.049 13.1287C266.196 12.4108 265.997 12.2206 265.331 12.2206H258.248C257.625 12.2206 257.34 12.4108 257.245 13.1287L256.423 17.4443C256.276 18.4043 256.467 18.8799 257.427 18.8799L266.257 18.8972C270.581 18.8886 272.57 21.094 271.809 25.5912L270.546 32.4062C269.785 36.8516 267.295 39.0051 262.944 39.0051H251.079C246.728 39.0051 245.007 36.8516 245.82 32.4062L245.829 32.3803Z" fill="white"/>
</svg>