<svg width="200" height="50" viewBox="0 0 200 50" fill="none" xmlns="http://www.w3.org/2000/svg">
<path d="M199.542 27.8909H189.496C189.582 29.1502 190.383 29.9802 191.843 29.9802C192.902 29.9802 193.904 29.5509 194.991 28.7209L197.996 32.0123C196.222 33.5865 194.047 34.5596 191.299 34.5596C186.548 34.5596 183.629 31.7834 183.629 27.6905C183.629 22.9394 187.178 18.1882 193.131 18.1882C198.283 18.1882 200 21.68 200 24.9715C200 26.0019 199.828 27.0036 199.542 27.8909ZM192.73 22.6818C191.728 22.6818 190.498 23.2828 189.897 25.0287H194.304C194.39 24.7998 194.419 24.5708 194.419 24.3418C194.419 23.4832 193.789 22.6818 192.73 22.6818Z" fill="white"/>
<path d="M169.848 34.5597C167.072 34.5597 164.725 32.3273 164.725 28.4634C164.725 22.7677 168.36 18.1883 172.939 18.1883C175.171 18.1883 176.631 19.1901 177.518 20.5639L178.896 15.4899C179.28 14.0776 180.485 13.0412 181.939 12.8735L186.314 12.3687L180.381 34.1877H173.884L174.313 32.5849C173.197 33.7297 171.508 34.5597 169.848 34.5597ZM173.282 29.2648C175.057 29.2648 176.345 27.5761 176.345 25.7444C176.345 24.3992 175.458 23.5119 174.256 23.5119C172.481 23.5119 171.193 25.2006 171.193 27.0323C171.193 28.3775 172.08 29.2648 173.282 29.2648Z" fill="white"/>
<path d="M151.271 34.5312C148.867 34.5312 147.093 32.9571 147.093 30.2666C147.093 26.9752 149.669 24.8286 154.076 24.8286C155.25 24.8286 156.452 25.0003 157.625 25.3438L157.682 25.172C157.74 24.9717 157.797 24.6569 157.797 24.3993C157.797 23.4261 157.024 22.8823 155.393 22.8823C153.962 22.8823 152.187 23.1686 151.128 23.5692L150.27 19.1616C151.958 18.6464 154.448 18.3315 156.709 18.3315C161.89 18.3315 164.294 20.3064 164.294 23.4261C164.294 24.0844 164.208 24.8286 164.008 25.6014L161.718 34.1878H155.221L155.65 32.6136C154.248 33.7871 153.074 34.5312 151.271 34.5312ZM154.42 30.8391C155.45 30.8391 156.566 29.7801 156.938 28.3204L157.11 27.6621C156.681 27.5476 156.337 27.4904 155.908 27.4904C154.277 27.4904 153.361 28.2631 153.361 29.6084C153.361 30.4098 153.819 30.8391 154.42 30.8391Z" fill="white"/>
<path d="M98.0917 34.1875L102.27 18.5603H108.767L107.937 21.7086C109.397 19.5906 111.05 18.4458 113.568 18.5603L112.003 24.6668H111.316C108.254 24.6668 106.506 26.8605 105.619 30.295L104.589 34.1875H98.0917Z" fill="white"/>
<path d="M134.018 34.1875L138.196 18.5603H144.693L143.863 21.7086C145.323 19.5906 146.975 18.4458 149.494 18.5603L147.929 24.6668H147.242C144.18 24.6668 142.432 26.8605 141.545 30.295L140.515 34.1875H134.018Z" fill="white"/>
<path d="M129.17 34.5312C125.506 34.5312 123.732 33.1288 123.732 30.2666C123.732 29.6083 123.846 28.8928 124.046 28.0914L125.248 23.5692H123.417L124.762 18.5605H126.594L127.129 16.5931C127.448 15.4244 128.441 14.5644 129.643 14.4171L134.345 13.8408L133.091 18.5605H136.697L135.352 23.5692H131.746L130.858 26.9179C130.715 27.4331 130.658 27.8052 130.658 28.12C130.658 28.7783 131.059 29.1218 131.974 29.1218C132.49 29.1218 132.948 29.0359 133.864 28.7783L132.461 34.0733C131.345 34.3595 130.257 34.5312 129.17 34.5312Z" fill="white"/>
<path d="M117.645 34.531C113.981 34.531 112.207 33.1285 112.207 30.2664C112.207 29.6081 112.321 28.8926 112.521 28.0912L115.069 18.5603L115.278 17.7348C115.52 16.7798 116.324 16.0718 117.302 15.953L122.419 15.3313L121.566 18.5603H125.172L123.827 23.569H120.221L119.333 26.9177C119.19 27.4329 119.133 27.805 119.133 28.1198C119.133 28.7781 119.534 29.1216 120.449 29.1216C120.965 29.1216 121.423 29.0357 122.339 28.7781L120.936 34.0731C119.82 34.3593 118.732 34.531 117.645 34.531Z" fill="white"/>
<path d="M89.6104 34.5596C84.6876 34.5596 81.7968 31.3541 81.7968 27.2898C81.7968 22.5101 85.7179 18.1882 91.156 18.1882C96.0789 18.1882 98.9696 21.3938 98.9696 25.4581C98.9696 30.2378 95.0485 34.5596 89.6104 34.5596ZM90.0111 29.2647C91.6426 29.2647 92.8447 27.6047 92.8447 25.7443C92.8447 24.4277 92.0146 23.4832 90.7553 23.4832C89.1239 23.4832 87.9218 25.1432 87.9218 27.0036C87.9218 28.3202 88.7518 29.2647 90.0111 29.2647Z" fill="white"/>
<path d="M59.8375 39.589L65.4687 18.5603H71.9657L71.5364 20.1631C72.6527 19.0183 74.3413 18.1882 76.0013 18.1882C78.7776 18.1882 81.1245 20.4207 81.1245 24.2846C81.1245 29.9802 77.4897 34.5596 72.9102 34.5596C70.6778 34.5596 69.2181 33.5579 68.3308 32.1841L67.0791 36.8276C66.7631 37.9999 65.7677 38.8635 64.5625 39.0109L59.8375 39.589ZM71.5937 29.2361C73.3682 29.2361 74.6561 27.5474 74.6561 25.7156C74.6561 24.3704 73.7689 23.4832 72.5668 23.4832C70.7923 23.4832 69.5043 25.1718 69.5043 27.0036C69.5043 28.3488 70.3916 29.2361 71.5937 29.2361Z" fill="white"/>
<path d="M52.5228 34.5883C48.5444 34.5883 45.0813 33.1572 42.6484 30.9534L46.4837 26.374C48.7734 28.2916 51.1204 29.2075 53.2383 29.2075C54.097 29.2075 54.698 28.8926 54.698 28.3202C54.698 27.6905 54.3259 27.4902 51.4066 26.4026C47.6858 25.0288 45.9399 23.7122 45.9399 20.7642C45.9399 16.9003 49.4889 13.752 54.9556 13.752C58.5333 13.752 61.7103 14.8968 63.8855 16.7572L60.0502 21.3366C58.5333 20.1059 56.3867 19.1041 54.2687 19.1041C53.4101 19.1041 52.809 19.3331 52.809 19.9055C52.809 20.5066 53.2383 20.6211 56.0146 21.6514C59.4205 22.9108 61.5958 24.3419 61.5958 27.4043C61.5958 31.4399 58.2757 34.5883 52.5228 34.5883Z" fill="white"/>
<path d="M6.49182 24.0203L15.9355 29.8251L29.5058 26.5254L20.3766 20.6433L6.49182 24.0203Z" fill="url(#paint0_linear_485_73)"/>
<path d="M7.62342 17.105C8.00888 14.7491 9.78184 12.8528 12.1209 12.2946L32.6331 7.39974L31.5107 14.2548C31.1259 16.6046 29.3606 18.4976 27.0291 19.0607L6.49198 24.0202L7.62342 17.105Z" fill="#1AC07D"/>
<path d="M4.49717 36.2311C4.8807 33.8723 6.65514 31.973 8.99691 31.4147L29.5056 26.5255L28.383 33.3711C27.9973 35.723 26.2287 37.6167 23.8943 38.1774L3.37963 43.1043L4.49717 36.2311Z" fill="#1AC07D"/>
<defs>
<linearGradient id="paint0_linear_485_73" x1="18.1747" y1="21.1246" x2="18.6382" y2="22.8829" gradientUnits="userSpaceOnUse">
<stop stop-color="#077652"/>
<stop offset="1" stop-color="#00875B"/>
</linearGradient>
</defs>
</svg>
