<svg width="445" height="357" viewBox="0 0 445 357" fill="none" xmlns="http://www.w3.org/2000/svg">
<rect width="445" height="357" fill="#F4F4F4"/>
<path d="M193.6 165.55C191.611 165.442 190.425 165.873 188.89 167.345C187.441 168.709 186.761 170.36 186.761 170.36L196.095 170.45C196.095 170.432 196.758 165.55 193.6 165.55ZM161.95 166.717C159.961 166.752 158.409 169.086 157.24 173.412C156.315 176.894 155.198 180.412 157.641 180.717C159.613 180.95 161.253 179.784 162.84 174.183C163.905 170.432 165.266 166.663 161.95 166.717ZM221.796 169.409C220.348 171.329 219.754 173.25 219.056 175.781C218.359 178.276 215.933 187.376 215.933 187.376L202.656 187.304L205.761 176.642H184.824C184.336 179.245 184.981 181.399 189.518 181.471C192.082 181.525 193.845 179.568 193.845 179.568L202.97 179.461C202.97 179.461 201.836 187.897 186.29 187.897C179.346 187.897 175.455 184.863 174.111 180.789C174.111 180.789 173.902 180.161 173.728 179.191C173.431 179.909 173.291 180.232 173.291 180.232C171.494 183.93 169.907 185.384 167.499 186.694C164.271 188.489 158.932 187.969 157.938 187.592C156.995 187.233 155.425 186.048 154.937 185.527C154.448 185.025 154.256 184.199 154.256 184.199L151.028 196.135H137.978L148.202 160.165H160.869L160.188 163.234C160.328 162.768 161.776 158.944 170.308 159.501C175.315 159.824 177.095 162.48 177.235 166.016C177.235 166.016 177.217 166.681 177.095 167.704C177.688 166.878 178.142 166.322 178.142 166.322C181.841 162.139 187.633 159.016 195.031 159.106C204.139 159.232 207.157 162.66 207.873 166.106C207.873 166.106 208.047 166.914 208.239 168.152L210.664 159.86L223.069 160.003L221.9 163.934C221.9 163.934 223.855 161.493 225.913 160.542C227.955 159.591 229.124 159.25 230.991 159.142C232.857 159.034 233.329 159.429 233.329 159.429L232.526 162.175L230.711 168.296C230.694 168.296 223.261 167.488 221.796 169.409ZM141.153 177.881C139.862 181.704 136.896 188.04 122.536 188.166C108.177 188.274 110.114 179.532 110.114 179.532L110.131 179.461C109.503 180.52 108.875 181.291 108.875 181.291C106.362 184.486 101.146 187.807 90.1537 188.202C70.3507 188.92 74.3287 175.978 74.3287 175.978H90.2409L89.5256 177.468C89.5256 177.468 87.8681 180.986 91.9159 180.986C95.9463 180.986 96.365 177.378 96.2603 175.422C96.1557 173.465 84.239 171.581 81.744 167.111C79.249 162.642 84.0296 155.121 84.7449 154.331C85.4777 153.56 88.4613 147.977 104.147 148.139C119.797 148.3 115.505 160.129 115.505 160.129H101.215C101.215 160.129 101.739 158.406 101.844 157.867C101.948 157.311 102.245 155.749 99.4533 155.749C96.6442 155.749 95.2135 157.706 95.4229 159.501C95.6148 161.314 95.2135 161.942 104.216 164.85C109.451 166.537 111.143 169.194 111.579 171.491C111.579 171.491 111.771 172.299 111.771 173.448L115.47 160.129L128.137 160.255L123.234 177.45C123.234 177.45 121.228 181.471 124.595 181.704C127.963 181.956 128.521 177.827 128.521 177.827L133.493 160.183H146.248C146.283 160.201 142.427 174.058 141.153 177.881ZM314.111 174.453C312.523 180.035 311.162 181.794 308.981 181.471C306.521 181.094 307.76 177.271 308.702 173.807C309.889 169.481 311.215 165.604 313.675 165.64C317.042 165.675 315.175 170.719 314.111 174.453ZM283.316 174.04C281.728 179.622 280.071 180.843 278.117 180.591C275.639 180.286 276.773 176.75 277.715 173.286C278.884 168.942 280.42 166.609 282.409 166.591C285.759 166.519 284.38 170.306 283.316 174.04ZM265.031 172.837C265.013 170.306 263.827 166.86 257.546 164.85C248.525 161.942 248.944 161.314 248.735 159.501C248.525 157.706 249.974 155.749 252.783 155.749C255.592 155.749 255.278 157.311 255.173 157.867C255.068 158.406 254.562 160.129 254.562 160.129H268.66L265.031 172.837ZM362.999 168.799H369.245L372.002 160.183L365.529 160.129L367.762 152.231L354.816 152.303L352.74 159.375C352.356 159.268 351.745 159.142 350.803 159.142C347.209 159.088 343.458 161.87 341.73 164.006L342.899 160.111L330.529 159.95L328.121 168.135C327.842 162.463 323.131 159.429 317.164 158.962C312.732 158.621 306.574 159.555 303.049 161.942C301.252 162.911 299.193 165.388 297.553 168.529C298.234 163.719 296.96 159.77 290.766 159.375C281.693 158.783 280.629 163.127 280.629 163.127L281.309 160.039H268.799C269.166 158.909 272.254 148.283 257.406 148.139C241.756 147.977 238.755 153.56 238.022 154.331C237.289 155.121 232.526 162.642 235.021 167.111C237.499 171.581 249.415 173.465 249.52 175.422C249.625 177.378 249.223 180.986 245.175 180.986C241.128 180.986 242.785 177.468 242.785 177.468L243.518 175.978H227.588C227.588 175.978 223.61 188.92 243.413 188.202C255.627 187.771 260.704 183.732 262.902 180.232L258.418 195.992H271.469L274.679 184.056C274.679 184.056 274.871 184.881 275.36 185.384C275.848 185.904 277.401 187.089 278.378 187.448C279.355 187.825 284.712 188.328 287.922 186.568C290.749 185.007 292.441 183.356 294.639 178.025C294.587 178.599 294.552 179.155 294.552 179.712C294.552 187.161 301.583 187.897 308.685 187.897C314.111 187.897 320.601 186.604 324.736 179.658L322.521 187.286L335.763 187.358C335.763 187.358 338.206 178.294 338.886 175.799C339.567 173.304 340.143 171.383 341.626 169.445C342.969 167.704 349.233 168.224 350.332 168.332L348.343 175.278C348.343 175.278 346.11 181.238 346.197 184.558C346.302 187.879 353.804 187.717 354.781 187.717C355.758 187.717 364.395 187.34 364.395 187.34L366.157 180.645C366.157 180.645 365.267 180.861 364.796 180.932C364.308 181.004 361.307 180.932 360.626 180.771C359.946 180.627 360.033 178.94 360.033 178.94L362.999 168.799Z" fill="#ED1B30"/>
</svg>
