<?xml version="1.0" encoding="iso-8859-1"?>
<!-- Generator: Adobe Illustrator 19.1.1, SVG Export Plug-In . SVG Version: 6.00 Build 0)  -->
<svg version="1.1" id="Layer_3_copy" xmlns="http://www.w3.org/2000/svg" xmlns:xlink="http://www.w3.org/1999/xlink" x="0px"
	 y="0px" viewBox="-290 382.791 30.333 28.209" style="enable-background:new -290 382.791 30.333 28.209;" xml:space="preserve">
<g>
	<g>
		<path style="fill:#FFFFFF;" d="M-287.173,391.891c0.24-0.657,0.542-1.29,0.913-1.902l-0.011-0.02l-1.237,0.154
			c-0.358,0.656-0.684,1.401-0.94,2.244L-287.173,391.891z"/>
	</g>
	<g>
		<path style="fill:#FFFFFF;" d="M-268.696,385.186c0.257-0.049,0.516-0.09,0.78-0.115l0.704-0.067
			c-1.758-0.91-3.174-1.213-3.191-1.213l-0.026,0.004l-0.716,0.239l-0.111,0.1l0.137,0.047
			C-270.809,384.269-269.77,384.685-268.696,385.186z"/>
	</g>
	<g>
		<path style="fill:#FFFFFF;" d="M-269.613,385.42c0.301-0.096,0.606-0.174,0.916-0.233c-1.073-0.501-2.112-0.917-2.422-1.006
			l-0.136-0.047l-0.458,0.411l-0.091,0.076l0.147,0.044C-270.936,384.875-270.256,385.131-269.613,385.42z"/>
	</g>
	<g>
		<path style="fill:#FFFFFF;" d="M-287.821,395.112c0.053-0.968,0.219-1.885,0.492-2.759l-1.247,0.465
			c-0.269,1.027-0.433,2.182-0.424,3.474L-287.821,395.112z"/>
	</g>
	<g>
		<path style="fill:#FFFFFF;" d="M-288.015,400.929l0.763-1.402c-0.389-1.155-0.563-2.178-0.587-3.424
			c-0.003-0.149,0.001-0.295,0.003-0.442l-1.081,1.082l-0.076-0.076c0.004,0.124,0.008,0.249,0.015,0.376
			c0.078,1.345,0.396,2.683,0.922,3.959L-288.015,400.929z"/>
	</g>
	<g>
		<path style="fill:#FFFFFF;" d="M-285.325,403.104c-0.748-0.958-1.344-2.002-1.757-3.099l-0.782,1.437
			c0.608,1.334,1.443,2.591,2.474,3.709L-285.325,403.104z"/>
	</g>
	<g>
		<path style="fill:#FFFFFF;" d="M-282.074,406.094c-1.096-0.728-2.068-1.591-2.887-2.55l-0.062,1.987
			c0.536,0.54,1.116,1.047,1.741,1.506c0.478,0.351,0.978,0.668,1.493,0.959L-282.074,406.094z"/>
	</g>
	<g>
		<path style="fill:#FFFFFF;" d="M-278.484,407.835c-0.653-0.215-1.299-0.475-1.92-0.78c-0.431-0.211-0.844-0.445-1.246-0.694
			l0.279,1.865c1.13,0.595,2.336,1.047,3.594,1.351L-278.484,407.835z"/>
	</g>
	<g>
		<path style="fill:#FFFFFF;" d="M-282.585,386.08l-0.03,0.139c1.355-0.846,3.869-1.891,4.382-2.038l0.138-0.047l-0.111-0.1
			l-0.716-0.239l-0.025-0.004c-0.022,0-2.429,0.516-4.866,2.227L-282.585,386.08z"/>
	</g>
	<g>
		<path style="fill:#FFFFFF;" d="M-284.663,387.712l0.027,0.187c0.472-0.486,0.991-0.942,1.568-1.372l0.019-0.091l-1.235-0.063
			l0.001-0.008c-0.382,0.293-0.762,0.615-1.128,0.972c-0.116,0.113-0.239,0.24-0.365,0.375H-284.663z"/>
	</g>
	<g>
		<path style="fill:#FFFFFF;" d="M-286.06,389.561l0.034,0.063c0.098-0.149,0.198-0.297,0.304-0.443
			c0.236-0.323,0.489-0.631,0.757-0.93l-0.025-0.16h-1.122c-0.382,0.445-0.783,0.985-1.162,1.621L-286.06,389.561z"/>
	</g>
	<g>
		<path style="fill:#FFFFFF;" d="M-264.294,388.083l-0.034,0.234c0.246,0.278,0.482,0.564,0.7,0.864
			c0.12,0.164,0.229,0.33,0.338,0.498l0.066-0.125l1.139,0.142c-0.379-0.632-0.778-1.169-1.158-1.613H-264.294z"/>
	</g>
	<g>
		<path style="fill:#FFFFFF;" d="M-263.013,389.962l-0.045,0.085c0.361,0.603,0.657,1.226,0.89,1.873l0.033-0.044l1.22,0.455
			c-0.257-0.834-0.581-1.574-0.936-2.224L-263.013,389.962z"/>
	</g>
	<g>
		<path style="fill:#FFFFFF;" d="M-260.784,392.783l-1.216-0.454l-0.02,0.027c0.266,0.849,0.427,1.738,0.485,2.675l1.185,1.186
			C-260.349,394.941-260.515,393.798-260.784,392.783z"/>
	</g>
	<g>
		<path style="fill:#FFFFFF;" d="M-260.367,396.738l-1.149-1.15c0.004,0.171,0.008,0.342,0.004,0.516
			c-0.023,1.216-0.191,2.221-0.561,3.342l0.807,1.483c0.508-1.254,0.816-2.565,0.892-3.885c0.006-0.106,0.01-0.209,0.013-0.313
			L-260.367,396.738z"/>
	</g>
	<g>
		<path style="fill:#FFFFFF;" d="M-262.24,399.929c-0.004,0.012-0.007,0.022-0.012,0.033c-0.401,1.08-0.983,2.109-1.709,3.056
			l0.064,2.06c1.019-1.119,1.845-2.375,2.442-3.706L-262.24,399.929z"/>
	</g>
	<g>
		<path style="fill:#FFFFFF;" d="M-264.325,403.466c-0.343,0.408-0.711,0.799-1.107,1.17c0.386,0.194,0.771,0.346,1.158,0.461
			L-264.325,403.466z"/>
	</g>
	<g>
		<path style="fill:#FFFFFF;" d="M-267.49,407.954c0.489-0.28,0.965-0.582,1.421-0.917c0.089-0.066,0.175-0.135,0.263-0.202
			c-0.498-0.195-0.961-0.446-1.404-0.746L-267.49,407.954z"/>
	</g>
	<g>
		<path style="fill:#FFFFFF;" d="M-267.627,406.319c-0.424,0.265-0.862,0.514-1.318,0.736c-0.598,0.293-1.217,0.544-1.845,0.754
			l-0.71,1.749c1.258-0.309,2.464-0.767,3.593-1.369L-267.627,406.319z"/>
	</g>
	<g>
		<path style="fill:#FFFFFF;" d="M-271.272,407.965c-1.126,0.337-2.266,0.537-3.349,0.577l-0.054,0.002l-0.054-0.002
			c-1.062-0.039-2.182-0.234-3.288-0.559l0.689,1.697c0.799,0.168,1.616,0.279,2.448,0.326h0.17h0.072h0.17
			c0.848-0.048,1.681-0.161,2.495-0.336L-271.272,407.965z"/>
	</g>
	<g>
		<path style="fill:#FFFFFF;" d="M-266.699,386.072l1.154-0.057c-0.533-0.373-1.063-0.692-1.568-0.958l-0.437,0.697
			c0.33,0.174,0.635,0.348,0.894,0.513L-266.699,386.072z"/>
	</g>
	<g>
		<path style="fill:#FFFFFF;" d="M-282.861,387.37c1.386-1.18,3.123-2.105,5.166-2.705l0.147-0.044l-0.091-0.077l-0.457-0.411
			l-0.137,0.047c-0.513,0.148-3.027,1.193-4.382,2.039L-282.861,387.37z"/>
	</g>
	<g>
		<path style="fill:#FFFFFF;" d="M-285.077,388.958h0.214l-0.103-0.706c-0.267,0.298-0.521,0.606-0.756,0.929
			c-0.106,0.146-0.206,0.294-0.304,0.443l0.55,1.036c0.092-0.181,0.184-0.361,0.286-0.537c-0.115-0.093-0.241-0.198-0.343-0.333
			l-0.041-0.054l-0.022-0.064c-0.076-0.226-0.001-0.39,0.05-0.468C-285.479,389.103-285.343,388.978-285.077,388.958z"/>
	</g>
	<g>
		<path style="fill:#FFFFFF;" d="M-286.324,392.988c0.154-0.664,0.368-1.302,0.642-1.909l-0.578-1.089
			c-0.371,0.611-0.673,1.244-0.913,1.901l0.024-0.008L-286.324,392.988z"/>
	</g>
	<g>
		<path style="fill:#FFFFFF;" d="M-286.597,396.054c-0.008-0.14-0.014-0.28-0.016-0.42c-0.007-0.77,0.062-1.515,0.199-2.232
			l-0.047,0.035l-0.821-1.101l-0.047,0.017c-0.274,0.874-0.439,1.791-0.492,2.759l0.176-0.176L-286.597,396.054z"/>
	</g>
	<g>
		<path style="fill:#FFFFFF;" d="M-285.756,399.595c-0.417-0.954-0.684-1.956-0.795-2.979l-0.02,0.019l-1.082-1.155l-0.182,0.182
			c-0.002,0.147-0.006,0.293-0.003,0.442c0.023,1.246,0.197,2.269,0.587,3.424l0.145-0.267L-285.756,399.595z"/>
	</g>
	<g>
		<path style="fill:#FFFFFF;" d="M-286.914,399.698l-0.168,0.308c0.413,1.097,1.009,2.14,1.757,3.099l0.006-0.214h0.186
			c0.23,0.002,0.977,0.008,1.616,0.018c-0.842-0.874-1.523-1.843-2.03-2.872L-286.914,399.698z"/>
	</g>
	<g>
		<path style="fill:#FFFFFF;" d="M-282.092,405.974l2.016-0.508c-1.113-0.57-2.136-1.293-3.059-2.172
			c-0.503-0.009-1.238-0.018-1.818-0.023l-0.007,0.273c0.818,0.959,1.791,1.822,2.887,2.55L-282.092,405.974z"/>
	</g>
	<g>
		<path style="fill:#FFFFFF;" d="M-278.515,407.762l2.121-1.044c-1.113-0.215-2.162-0.549-3.144-0.998l-2.129,0.537l0.016,0.105
			c0.402,0.248,0.815,0.483,1.246,0.694c0.621,0.305,1.267,0.564,1.92,0.78L-278.515,407.762z"/>
	</g>
	<g>
		<path style="fill:#FFFFFF;" d="M-266.235,386.428l0.034,0.161c0.567,0.43,1.079,0.883,1.544,1.368l0.037-0.252h1.04
			c-0.124-0.133-0.244-0.257-0.358-0.368c-0.364-0.356-0.742-0.675-1.122-0.968L-266.235,386.428z"/>
	</g>
	<g>
		<path style="fill:#FFFFFF;" d="M-266.656,386.267c-0.259-0.165-0.563-0.339-0.894-0.513l-0.36,0.574
			c0.539,0.34,1.042,0.709,1.503,1.108L-266.656,386.267z"/>
	</g>
	<g>
		<path style="fill:#FFFFFF;" d="M-262.167,391.92c-0.234-0.647-0.53-1.271-0.89-1.873l-0.583,1.098
			c0.269,0.607,0.48,1.244,0.629,1.906L-262.167,391.92z"/>
	</g>
	<g>
		<path style="fill:#FFFFFF;" d="M-262.37,399.69l-1.439,0.358c-0.505,1.023-1.183,1.985-2.019,2.855
			c0.652-0.01,1.44-0.017,1.678-0.019l0.185-0.002l0.004,0.136c0.727-0.947,1.308-1.976,1.709-3.056
			c0.004-0.011,0.008-0.021,0.012-0.033L-262.37,399.69z"/>
	</g>
	<g>
		<path style="fill:#FFFFFF;" d="M-264.332,403.264c-0.603,0.006-1.375,0.015-1.878,0.024c-0.186,0.177-0.377,0.347-0.571,0.511
			c0.452,0.334,0.901,0.612,1.348,0.837c0.396-0.37,0.764-0.762,1.107-1.17L-264.332,403.264z"/>
	</g>
	<g>
		<path style="fill:#FFFFFF;" d="M-269.245,405.45l1.76,0.444c-0.347-0.256-0.685-0.54-1.02-0.854
			C-268.746,405.185-268.993,405.321-269.245,405.45z"/>
	</g>
	<g>
		<path style="fill:#FFFFFF;" d="M-267.617,406.25l-2.161-0.545c-0.976,0.449-2.018,0.782-3.122,1.001l2.131,1.048l-0.022,0.056
			c0.628-0.211,1.248-0.462,1.845-0.754c0.456-0.223,0.894-0.472,1.318-0.736L-267.617,406.25z"/>
	</g>
	<g>
		<path style="fill:#FFFFFF;" d="M-271.26,407.935l-2.265-1.115c-0.314,0.049-0.631,0.091-0.956,0.122h-0.159v-0.001l-0.032,0.001
			l-0.039-0.001v0.001h-0.158c-0.303-0.029-0.6-0.068-0.894-0.113l-2.269,1.117l0.015,0.036c1.106,0.326,2.226,0.52,3.288,0.559
			l0.028,0.001v0.002l0.026-0.001l0.026,0.001v-0.002l0.028-0.001c1.083-0.04,2.224-0.24,3.349-0.577L-271.26,407.935z"/>
	</g>
	<g>
		<path style="fill:#FFFFFF;" d="M-283.067,386.527c-0.578,0.43-1.096,0.887-1.569,1.372l0.156,1.059h0.087
			c0.32-0.408,0.675-0.795,1.06-1.161L-283.067,386.527z"/>
	</g>
	<g>
		<path style="fill:#FFFFFF;" d="M-266.201,386.59l0.261,1.279c0.406,0.395,0.778,0.812,1.111,1.254l0.171-1.165
			C-265.122,387.473-265.634,387.019-266.201,386.59z"/>
	</g>
	<g>
		<path style="fill:#FFFFFF;" d="M-263.628,389.181c-0.218-0.3-0.453-0.586-0.7-0.864l-0.179,1.264
			c0.246,0.366,0.468,0.744,0.665,1.138l0.552-1.04C-263.399,389.512-263.509,389.345-263.628,389.181z"/>
	</g>
	<g>
		<path style="fill:#FFFFFF;" d="M-262.021,392.356l-0.889,1.199c0.118,0.67,0.179,1.363,0.172,2.079
			c-0.001,0.165-0.012,0.328-0.022,0.492l1.121-1.197l0.102,0.102C-261.594,394.094-261.755,393.205-262.021,392.356z"/>
	</g>
	<g>
		<path style="fill:#FFFFFF;" d="M-261.516,395.587l-0.114-0.114l-1.188,1.292c-0.12,0.977-0.383,1.931-0.782,2.841l1.422-0.352
			l0.105,0.192c0.37-1.12,0.538-2.126,0.561-3.342C-261.508,395.929-261.512,395.758-261.516,395.587z"/>
	</g>
	<g>
		<path style="fill:#FFFFFF;" d="M-261.631,405.493c-1.021,0.114-1.596,0.131-2.515-0.11c-1.34-0.352-2.656-1.146-4.022-2.428
			l-0.422-0.394c-1.122-1.03-2.456-2.417-2.954-4.103c1.949-0.117,4.243-1.013,5.074-3.235c0.258-1.123-0.005-2.252-0.703-2.962
			c-0.592-0.455-1.299-0.676-2.164-0.676c-0.059,0-0.118,0.001-0.171,0.003l-5.121-0.003c0.821-1.007,1.689-1.874,2.639-2.637
			c0.509-0.363,1.02-0.657,1.56-0.898l0.708-0.306c0.094-0.047,0.203-0.074,0.316-0.104c0.137-0.035,0.279-0.072,0.417-0.146
			l0.039-0.021l1.384-2.202l-0.339,0.032c-1.278,0.122-2.462,0.535-3.625,1.267l-0.587,0.399c-3.124,2.528-4.884,5.884-6.532,9.174
			l0.016-5.916c0.015-0.028,0.032-0.059,0.051-0.094c0.24-0.44,0.326-0.647,0.239-0.793c-0.039-0.066-0.109-0.105-0.193-0.105
			l-1.477,0.003l-0.132-0.003c-0.117,0-0.18,0.061-0.207,0.099c-0.098,0.133-0.041,0.316,0.045,0.592
			c0.099,0.319,0.234,0.756,0.094,1.071l-2.832,5.671l0.045-5.961c0.062-0.41,0.128-0.71,0.423-0.814
			c0.219-0.031,0.46-0.262,0.447-0.523l-0.008-0.156l-1.54-0.024l-1.393,0.001c-0.049,0.003-0.199,0.014-0.278,0.133
			c-0.032,0.048-0.062,0.131-0.022,0.249l0.025,0.048c0.093,0.124,0.217,0.222,0.336,0.318c0.198,0.159,0.37,0.296,0.387,0.496
			l0.04,9.541c0.009,0.195,0.162,0.243,0.23,0.265l0.028,0.009l0.03-0.001c0.377-0.013,0.547-0.356,0.684-0.631
			c0.032-0.064,0.064-0.128,0.1-0.192l3.138-6.011l0.016,6.486l0.009,0.05c0.052,0.164,0.094,0.268,0.319,0.343
			c0.368,0.049,0.54-0.207,0.633-0.397l0.286-0.598c1.154-2.414,2.347-4.907,4.015-7.119c0.001,0.001,0.002,0.001,0.002,0.001
			c0.138,0.066,0.31,0.107,0.492,0.151c0.293,0.071,0.623,0.15,0.669,0.313l-1.306,9.985c-0.186,0.551-0.776,0.815-1.111,0.923
			l-0.049,0.025c-0.142,0.107-0.146,0.301-0.078,0.438l0.021,0.042l0.157,0.097h3.909l0.039-0.022
			c0.205-0.119,0.158-0.307,0.137-0.387l-0.03-0.14l-0.099-0.027c-0.472-0.128-1.009-0.497-1.075-0.978l0.018-0.899l0.376-3.247
			c0.119,0.014,0.286,0.01,0.442,0.004c0.081-0.004,0.162-0.006,0.221-0.005c0.389,1.692,1.282,3.353,2.73,5.079l0.44,0.458
			c1.26,1.342,3.313,2.964,5.941,3.065l0.058,0.002l0.046-0.034c0.127-0.091,0.254-0.18,0.38-0.269
			c0.407-0.286,0.829-0.582,1.264-0.971l0.39-0.349L-261.631,405.493z M-272.934,397.693l0.528-4.589
			c0.03-0.107,0.038-0.218,0.046-0.324c0.014-0.169,0.025-0.316,0.111-0.42l0.632-0.003c1.32,0,2.597,0.103,3.002,0.858
			c0.432,0.697,0.383,1.824-0.115,2.518c-0.744,1.165-1.891,1.891-3.063,1.942L-272.934,397.693z"/>
	</g>
</g>
</svg>
