<svg width="180" height="180" viewBox="0 0 180 180" fill="none" xmlns="http://www.w3.org/2000/svg">
<g clip-path="url(#clip0_40278_25307)">
<path d="M0 16.3636C0 7.32624 7.32625 0 16.3636 0H163.636C172.674 0 180 7.32625 180 16.3636V163.636C180 172.674 172.674 180 163.636 180H16.3636C7.32624 180 0 172.674 0 163.636V16.3636Z" fill="url(#paint0_linear_40278_25307)"/>
<path d="M101.072 40.0913C91.4598 39.961 89.057 48.1392 89.5715 50.823C90.7729 57.2096 111.371 59.5095 122.186 62.448C143.642 68.3239 146.56 79.0568 142.44 93.1097L142.269 93.6216C135.745 116.46 117.208 130.09 75.5602 130.217C53.4579 130.345 36.798 126.395 25.8043 118.753L34.0493 89.4045H78.6303C77.9484 92.2151 77.0953 94.8989 76.4133 97.5803C75.5602 100.393 73.854 106.524 83.4055 106.653C86.8252 106.78 92.4901 105.248 94.7219 98.2214C97.8104 88.2552 91.1164 86.466 72.6611 83.0179C54.8328 79.5687 35.9388 75.4808 43.1522 50.0552C49.68 27.2225 69.0788 16.5243 105.535 16.5243C126.992 16.5243 142.611 19.4545 156.515 27.9891L149.136 53.7603H106.394L106.908 51.7164C109.311 43.2846 107.766 40.2169 101.072 40.0913Z" fill="white"/>
<path d="M127.334 164.251L132.925 140.274H24.8211L19.2301 164.251H127.334Z" fill="#FFBF00"/>
</g>
<defs>
<linearGradient id="paint0_linear_40278_25307" x1="180" y1="0" x2="180" y2="180" gradientUnits="userSpaceOnUse">
<stop stop-color="#0A4FA1"/>
<stop offset="1" stop-color="#05244A"/>
</linearGradient>
<clipPath id="clip0_40278_25307">
<rect width="180" height="180" fill="white"/>
</clipPath>
</defs>
</svg>
