<svg xmlns="http://www.w3.org/2000/svg" fill="none" viewBox="0 0 180 180"><g clip-path="url(#a)"><g clip-path="url(#b)"><path fill="url(#c)" d="M0 0h180v180H0z"/><g clip-path="url(#d)"><path fill="#fb0" d="m125.94 152.4 5-17.46H34.4l-5 17.46z"/><path fill="#fff" d="M104.79 47.32c-8.38-.13-10.48 7.17-10.04 9.56 1.05 5.7 19.02 7.73 28.48 10.38 18.73 5.25 21.27 14.8 17.67 27.36l-.15.44c-5.7 20.39-21.89 32.52-58.23 32.65-19.3.13-33.82-3.4-43.41-10.22l7.2-26.18h38.92c-.6 2.51-1.34 4.9-1.94 7.29-.74 2.52-2.23 7.96 6.11 8.09 3 .13 7.93-1.24 9.88-7.52C101.98 90.3 96.12 88.7 80 85.6c-15.55-3.08-32.05-6.72-25.77-29.4 5.7-20.35 22.64-29.9 54.46-29.9 18.73 0 32.36 2.61 44.5 10.22l-6.43 23h-37.3l.44-1.82c2.1-7.51.77-10.25-5.1-10.35z"/></g></g></g><defs><clipPath id="a"><path fill="#fff" d="M0 0h180v180H0z"/></clipPath><clipPath id="b"><rect width="180" height="180" fill="#fff" rx="16"/></clipPath><clipPath id="d"><path fill="#fff" d="M26.21 26.3h127.4v127.4H26.21z"/></clipPath><linearGradient id="c" x1="89.13" x2="90.25" y1="-72.72" y2="137.54" gradientUnits="userSpaceOnUse"><stop stop-color="#0042fd"/><stop offset=".1" stop-color="#0040f7"/><stop offset=".23" stop-color="#003ce7"/><stop offset=".37" stop-color="#0035cd"/><stop offset=".53" stop-color="#002ca8"/><stop offset=".69" stop-color="#002078"/><stop offset=".86" stop-color="#001240"/><stop offset="1" stop-color="#00050c"/></linearGradient></defs></svg>